SplineFontDB: 3.0
FontName: Pliska-BoldItalic
FullName: Pliska Bold Italic
FamilyName: Pliska
Weight: Bold
Copyright: The font Pliska is modification of the Tempora Regular, created by Michael Sharpe \\(c\\) 2015 which on its turn was derived from TemporaLGCUni by Alexej Kryukov, issued in 2005 under the GPL.
Version: 001.001
ItalicAngle: -12
UnderlinePosition: -250
UnderlineWidth: 50
Ascent: 800
Descent: 200
InvalidEm: 0
sfntRevision: 0x00011999
LayerCount: 2
Layer: 0 0 "Back" 1
Layer: 1 0 "Fore" 0
XUID: [1021 174 -1597659960 18737]
StyleMap: 0x0021
FSType: 0
OS2Version: 3
OS2_WeightWidthSlopeOnly: 0
OS2_UseTypoMetrics: 0
CreationTime: 1132412641
ModificationTime: 1470010331
PfmFamily: 17
TTFWeight: 700
TTFWidth: 5
LineGap: 28
VLineGap: 0
Panose: 2 0 8 3 7 0 0 9 0 3
OS2TypoAscent: 699
OS2TypoAOffset: 0
OS2TypoDescent: -205
OS2TypoDOffset: 0
OS2TypoLinegap: 55
OS2WinAscent: 950
OS2WinAOffset: 0
OS2WinDescent: 218
OS2WinDOffset: 0
HheadAscent: 950
HheadAOffset: 0
HheadDescent: -218
HheadDOffset: 0
OS2SubXSize: 500
OS2SubYSize: 500
OS2SubXOff: 0
OS2SubYOff: 250
OS2SupXSize: 500
OS2SupYSize: 500
OS2SupXOff: 0
OS2SupYOff: 500
OS2StrikeYSize: 50
OS2StrikeYPos: 250
OS2CapHeight: 669
OS2XHeight: 462
OS2Vendor: 'PfEd'
OS2CodePages: 6000019f.9fd70000
OS2UnicodeRanges: e00002ff.500161fb.00000000.00000000
Lookup: 1 0 0 "'aalt' Access All Alternates lookup 0" { "'aalt' Access All Alternates lookup 0 subtable"  } ['aalt' ('DFLT' <'dflt' > 'cyrl' <'BGR ' 'MKD ' 'RUS ' 'SRB ' 'UKR ' 'dflt' > 'grek' <'dflt' > 'latn' <'CAT ' 'LTH ' 'MOL ' 'NLD ' 'ROM ' 'TRK ' 'VIT ' 'dflt' > ) ]
Lookup: 3 0 0 "'aalt' Access All Alternates lookup 1" { "'aalt' Access All Alternates lookup 1 subtable"  } ['aalt' ('DFLT' <'dflt' > 'cyrl' <'BGR ' 'MKD ' 'RUS ' 'SRB ' 'UKR ' 'dflt' > 'grek' <'dflt' > 'latn' <'CAT ' 'LTH ' 'MOL ' 'NLD ' 'ROM ' 'TRK ' 'VIT ' 'dflt' > ) ]

StartChar: .notdef
Encoding: 1114112 -1 0
Width: 586
Flags: MW
HStem: 0 25 199 270 643 25
VStem: 42 25 116 270 433 25
CounterMasks: 1 e0
LayerCount: 2
Fore
SplineSet
50 0 m 1
 50 530 l 1
 536 530 l 1
 536 0 l 1
 50 0 l 1
69 74 m 1
 118 181 190 273 271 355 c 1
 242 368 220 375 194 380 c 1
 139 286 102 188 69 74 c 1
348 313 m 1
 234 255 153 173 76 72 c 1
 180 145 288 209 416 255 c 1
 391 281 373 297 348 313 c 1
97 72 m 1
 517 72 l 1
 511 111 500 141 477 173 c 1
 343 155 195 115 97 72 c 1
EndSplineSet
Validated: 1
EndChar

StartChar: exclam
Encoding: 33 33 2
Width: 389
GlyphClass: 5
Flags: MW
HStem: -13 21G<118.5 159.5> 664 20G<285.5 321.5>
LayerCount: 2
Fore
SplineSet
196 204 m 1
 167 212 l 1
 197 368 215 487 220 565 c 0
 222 609 224 620 232 638 c 0
 246 667 270 684 301 684 c 0
 342 684 370 655 370 611 c 0
 370 584 365 569 339 522 c 0
 283 411 238 312 196 204 c 1
140 133 m 0
 178 133 213 97 213 58 c 0
 213 19 180 -13 139 -13 c 0
 98 -13 67 17 67 58 c 0
 67 100 99 133 140 133 c 0
EndSplineSet
Validated: 1
EndChar

StartChar: quotedbl
Encoding: 34 34 3
Width: 555
Flags: MW
HStem: 665 20G<211 243 471 503>
LayerCount: 2
Fore
SplineSet
177 398 m 1
 136 398 l 1
 152 612 l 2
 155 650 192 685 230 685 c 0
 256 685 276 663 276 636 c 0
 276 622 275 620 261 589 c 2
 259 584 l 1
 177 398 l 1
437 398 m 1
 396 398 l 1
 412 612 l 2
 415 650 452 685 490 685 c 0
 516 685 536 663 536 636 c 0
 536 622 535 620 521 589 c 2
 519 584 l 1
 437 398 l 1
EndSplineSet
Validated: 1
EndChar

StartChar: numbersign
Encoding: 35 35 4
Width: 500
Flags: MW
HStem: 0 21G<-22 56 -22 -22 169 247 169 169> 210 73<-13 63 -33 93 171 254 -13 141 362 429> 417 73<71 147 51 176 71 225 254 338 445 513>
LayerCount: 2
Fore
SplineSet
449 283 m 1
 429 210 l 1
 332 210 l 1
 247 0 l 1
 169 0 l 1
 254 210 l 1
 141 210 l 1
 56 0 l 1
 -22 0 l 1
 63 210 l 1
 -33 210 l 1
 -13 283 l 1
 93 283 l 1
 147 417 l 1
 51 417 l 1
 71 490 l 1
 176 490 l 1
 263 700 l 1
 340 700 l 1
 254 490 l 1
 367 490 l 1
 454 700 l 1
 531 700 l 1
 445 490 l 1
 533 490 l 1
 513 417 l 1
 416 417 l 1
 362 283 l 1
 449 283 l 1
338 417 m 1
 225 417 l 1
 171 283 l 1
 284 283 l 1
 338 417 l 1
EndSplineSet
Validated: 1
EndChar

StartChar: dollar
Encoding: 36 36 5
Width: 500
Flags: MW
HStem: 0 32<186 201 178 203.5> 637 33<255 279 219.5 291>
VStem: 79 99<522 539.5> 323 109<144 180.5>
LayerCount: 2
Fore
SplineSet
497 598 m 1
 455 465 l 1
 434 470 l 1
 435 481 435 494 435 500 c 0
 435 569 411 605 351 625 c 1
 292 410 l 1
 353 357 372 338 396 308 c 0
 419 277 432 238 432 201 c 0
 432 87 331 0 201 0 c 2
 178 0 l 1
 150 -100 l 1
 98 -100 l 1
 127 7 l 1
 64 22 33 39 -20 86 c 1
 22 228 l 1
 44 222 l 1
 47 114 67 74 137 42 c 1
 211 303 l 1
 105 384 79 420 79 488 c 0
 79 591 164 670 275 670 c 0
 283 670 291 670 313 668 c 1
 331 733 l 1
 381 733 l 1
 361 661 l 1
 394 655 441 636 479 612 c 1
 497 598 l 1
248 436 m 1
 303 635 l 1
 298 637 294 637 288 637 c 0
 222 637 178 599 178 542 c 0
 178 502 195 476 248 436 c 1
253 274 m 1
 186 32 l 1
 221 32 230 33 247 39 c 0
 294 57 323 101 323 157 c 0
 323 204 308 230 253 274 c 1
EndSplineSet
Validated: 1
EndChar

StartChar: percent
Encoding: 37 37 6
Width: 833
Flags: HMW
HStem: -10 46<602 605.5> 294 46<187.5 198> 325 51 585 38<419 442.5> 659 20G<207 277.5>
VStem: 347 34 759 34<235.5 276>
LayerCount: 2
Fore
SplineSet
676 376 m 0xbe
 746 376 793 329 793 260 c 0
 793 184 760 101 706 44 c 0
 674 10 628 -10 583 -10 c 0
 503 -10 450 45 450 128 c 0
 450 192 485 265 539 316 c 0
 582 356 627 376 676 376 c 0xbe
708 325 m 0
 707.367543858 325.026352339 706.733698824 325.039510209 706.098556401 325.039510209 c 0
 682.631761696 325.039510209 657.393896197 307.077668126 635 273 c 0
 604.860269278 229.799719299 566.873817788 135.038847926 566.873817788 88.9817118321 c 0
 566.873817788 58.9315506572 588.267860789 36 617 36 c 0
 653 36 688 65 718 119 c 0
 745 168 759 214 759 257 c 0
 759 295 738 323 708 325 c 0
194 -8 m 1
 543 612 l 1
 500 594 461 585 424 585 c 0
 414 585 401 587 381 590 c 1
 380 501 363 444 320 382 c 0
 281 325 228 294 168 294 c 0xde
 93 294 39 351 39 431 c 0
 39 555 151 679 263 679 c 0
 292 679 311 672 340 651 c 0
 368 631 394 623 436 623 c 0
 499 623 549 643 605 692 c 1
 644 692 l 1
 250 -8 l 1
 194 -8 l 1
287 631 m 0
 286.219120689 631.091868154 285.423471801 631.137317641 284.6139256 631.137317641 c 0
 267.799384176 631.137317641 244.989450303 611.530109531 224 581 c 0
 190.823522874 530.732610414 153.868305387 439.145432812 153.868305387 389.945499168 c 0
 153.868305387 361.015567518 174.279271386 340 202 340 c 0
 272 340 347 463 347 577 c 0
 347 599 346 601 318 612 c 0
 311 615 310 615 302 623 c 0
 295 629 292 630 287 631 c 0
EndSplineSet
Validated: 524289
EndChar

StartChar: ampersand
Encoding: 38 38 7
Width: 778
Flags: MW
HStem: -19 71<229 233> -18 79<502.5 609.5> 649 33<402.5 441.5>
VStem: 5 133<150.5 171> 234 121<517.5 537> 477 80<560 601 534.5 603>
LayerCount: 2
Fore
SplineSet
673 101 m 1x7c
 699 80 l 1
 638 7 595 -18 529 -18 c 0x7c
 476 -18 435 0 390 44 c 1
 324 -1 268 -19 198 -19 c 0xbc
 84 -19 5 49 5 148 c 0
 5 194 26 242 63 280 c 0
 97 316 129 334 245 384 c 1
 237 429 234 452 234 476 c 0
 234 598 309 682 419 682 c 0
 499 682 557 634 557 568 c 0
 557 501 499 446 375 396 c 1
 387 322 420 235 461 169 c 1
 518 241 535 270 535 298 c 0
 535 320 521 329 479 336 c 1
 479 361 l 1
 691 361 l 1
 691 336 l 1
 629 324 624 319 486 133 c 1
 525 82 557 61 596 61 c 0
 623 61 644 72 673 101 c 1x7c
253 343 m 1
 169 302 138 260 138 190 c 0
 138 111 193 52 265 52 c 0xbc
 296 52 322 60 362 80 c 1
 306 167 279 232 253 343 c 1
366 434 m 1
 403 456 403 456 414 465 c 0
 453 495 477 538 477 582 c 0
 477 624 458 649 425 649 c 0
 380 649 355 607 355 530 c 0
 355 505 357 488 366 434 c 1
EndSplineSet
Validated: 1
EndChar

StartChar: quotesingle
Encoding: 39 39 8
Width: 278
Flags: MW
HStem: 665 20G<203 235>
LayerCount: 2
Fore
SplineSet
169 398 m 1
 128 398 l 1
 144 612 l 2
 147 650 184 685 222 685 c 0
 248 685 268 663 268 636 c 0
 268 622 267 620 253 589 c 2
 251 584 l 1
 169 398 l 1
EndSplineSet
Validated: 1
EndChar

StartChar: parenleft
Encoding: 40 40 9
Width: 333
Flags: MW
VStem: 28 94<138.5 173.5 52 243>
LayerCount: 2
Fore
SplineSet
326 685 m 1
 344 665 l 1
 263 591 226 543 190 462 c 0
 147 366 122 237 122 110 c 0
 122 -6 138 -68 193 -164 c 1
 170 -179 l 1
 69 -41 28 70 28 207 c 0
 28 279 41 344 68 404 c 0
 114 508 174 573 326 685 c 1
EndSplineSet
Validated: 1
EndChar

StartChar: parenright
Encoding: 41 41 10
Width: 333
Flags: MW
VStem: 177 94<332.5 335.5 250.5 456>
LayerCount: 2
Fore
SplineSet
-27 -179 m 1
 -44 -159 l 1
 32 -89 63 -51 95 14 c 0
 145 114 177 266 177 399 c 0
 177 513 159 580 105 670 c 1
 128 685 l 1
 180 614 201 580 224 524 c 0
 255 450 271 372 271 299 c 0
 271 202 245 114 192 33 c 0
 141 -47 90 -95 -27 -179 c 1
EndSplineSet
Validated: 1
EndChar

StartChar: asterisk
Encoding: 42 42 11
Width: 500
Flags: MW
HStem: 334 105<101.5 144> 497 106<101.5 144> 665 20G<245.5 276>
VStem: 253 15<442 454 426 454 482 494>
LayerCount: 2
Fore
SplineSet
253 482 m 1
 253 494 l 2
 253 527 246 552 227 584 c 0
 214 606 210 618 210 633 c 0
 210 664 230 685 261 685 c 0
 291 685 311 664 311 633 c 0
 311 618 307 606 294 584 c 0
 275 552 268 527 268 494 c 2
 268 482 l 1
 279 488 l 2
 308 505 320 517 344 555 c 0
 365 590 383 603 407 603 c 0
 432 603 456 577 456 548 c 0
 456 533 447 519 430 508 c 0
 416 499 406 497 377 497 c 0
 333 496 320 493 287 474 c 2
 276 468 l 1
 287 462 l 2
 320 443 331 441 377 439 c 0
 406 439 417 436 430 429 c 0
 446 420 456 403 456 388 c 0
 456 359 433 334 406 334 c 0
 381 334 365 346 344 382 c 0
 322 418 312 428 279 448 c 2
 268 454 l 1
 268 442 l 2
 268 410 275 386 294 353 c 0
 306 331 311 318 311 303 c 0
 311 273 291 252 260 252 c 0
 230 252 210 273 210 304 c 0
 210 318 215 331 227 353 c 0
 246 386 253 410 253 442 c 2
 253 454 l 1
 242 448 l 2
 209 428 199 418 177 382 c 0
 156 346 140 334 115 334 c 0
 88 334 65 359 65 388 c 0
 65 403 75 420 91 429 c 0
 103 436 115 439 144 439 c 0
 190 441 201 443 234 462 c 2
 245 468 l 1
 234 474 l 2
 201 493 188 496 144 497 c 0
 115 497 105 499 91 508 c 0
 74 519 65 532 65 549 c 0
 65 577 89 603 114 603 c 0
 138 603 155 590 177 555 c 0
 201 517 213 505 242 488 c 2
 253 482 l 1
EndSplineSet
Validated: 1
EndChar

StartChar: plus
Encoding: 43 43 12
Width: 570
Flags: MW
HStem: 0 21G<241 329 241 241> 209 88<33 241 33 241 329 537>
VStem: 241 88<0 209 0 209 297 506>
LayerCount: 2
Fore
SplineSet
241 297 m 1
 241 506 l 1
 329 506 l 1
 329 297 l 1
 537 297 l 1
 537 209 l 1
 329 209 l 1
 329 0 l 1
 241 0 l 1
 241 209 l 1
 33 209 l 1
 33 297 l 1
 241 297 l 1
EndSplineSet
Validated: 1
EndChar

StartChar: comma
Encoding: 44 44 13
Width: 250
GlyphClass: 5
Flags: MW
VStem: 58 86<-59 65.5>
LayerCount: 2
Fore
SplineSet
-47 -182 m 1
 -60 -158 l 1
 18 -116 58 -77 58 -41 c 0
 58 -27 51 -17 28 -2 c 0
 -2 18 -12 34 -12 61 c 0
 -12 103 18 134 59 134 c 0
 110 134 144 95 144 36 c 0
 144 -45 68 -131 -47 -182 c 1
EndSplineSet
Validated: 1
EndChar

StartChar: hyphen
Encoding: 45 45 14
Width: 333
Flags: MW
HStem: 166 116<26 248 2 271>
LayerCount: 2
Fore
SplineSet
271 282 m 1
 248 166 l 1
 2 166 l 1
 26 282 l 1
 271 282 l 1
EndSplineSet
Validated: 1
EndChar

StartChar: period
Encoding: 46 46 15
Width: 250
GlyphClass: 5
Flags: MW
HStem: -13 148<44.5 85>
VStem: -9 148<40 81 40 81.5>
LayerCount: 2
Fore
SplineSet
66 135 m 0
 106 135 139 101 139 61 c 0
 139 19 106 -13 64 -13 c 0
 23 -13 -9 19 -9 60 c 0
 -9 103 23 135 66 135 c 0
EndSplineSet
Validated: 1
EndChar

StartChar: slash
Encoding: 47 47 16
Width: 278
Flags: MW
HStem: -18 21G<-64 23 -64 -64> 665 20G<255 342 342 342>
LayerCount: 2
Fore
SplineSet
255 685 m 1
 342 685 l 1
 23 -18 l 1
 -64 -18 l 1
 255 685 l 1
EndSplineSet
Validated: 1
Substitution2: "'frac' Diagonal Fractions in Cyrillic lookup 27 subtable" fraction
Substitution2: "'frac' Diagonal Fractions in Latin lookup 25 subtable" fraction
Substitution2: "'frac' Diagonal Fractions lookup 23 subtable" fraction
EndChar

StartChar: zero
Encoding: 48 48 17
Width: 500
GlyphClass: 5
Flags: MW
HStem: -14 29<149.5 202.5 149.5 261> 654 29<293.5 340.5>
VStem: 17 103<71 310> 374 103<341 602.5>
LayerCount: 2
Fore
SplineSet
477 458 m 0
 477 224 343 -14 179 -14 c 0
 52 -14 17 116 17 207 c 0
 17 413 147 683 326 683 c 0
 415 683 477 587 477 458 c 0
374 578 m 0
 374 627 359 654 322 654 c 0
 265 654 224 518 201 444 c 0
 191 412 120 163 120 83 c 0
 120 59 128 15 171 15 c 0
 234 15 266 124 291 208 c 0
 321 312 374 516 374 578 c 0
EndSplineSet
Validated: 1
Substitution2: "'frac' Diagonal Fractions in Cyrillic lookup 27 subtable" zero.numerator
Substitution2: "'frac' Diagonal Fractions in Latin lookup 25 subtable" zero.numerator
Substitution2: "'frac' Diagonal Fractions lookup 23 subtable" zero.numerator
Substitution2: "'dnom' Denominators lookup 22 subtable" zero.denominator
Substitution2: "'numr' Numerators lookup 21 subtable" zero.numerator
Substitution2: "'onum' Oldstyle Figures in Latin lookup 20 subtable" uniF730
Substitution2: "'onum' Oldstyle Figures in Cyrillic lookup 19 subtable" uniF730
Substitution2: "'onum' Oldstyle Figures in Greek lookup 18 subtable" uniF730
Substitution2: "'sups' Superscript in Latin lookup 17 subtable" zero.superior
Substitution2: "'sups' Superscript in Cyrillic lookup 16 subtable" zero.superior
Substitution2: "'sups' Superscript in Greek lookup 15 subtable" zero.superior
Substitution2: "'subs' Subscript in Latin lookup 14 subtable" zero.inferior
Substitution2: "'subs' Subscript in Cyrillic lookup 13 subtable" zero.inferior
Substitution2: "'subs' Subscript in Greek lookup 12 subtable" zero.inferior
AlternateSubs2: "'aalt' Access All Alternates lookup 1 subtable" uniF730 zero.inferior zero.superior
EndChar

StartChar: one
Encoding: 49 49 18
Width: 500
Flags: MW
HStem: 0 23<5 41 5 41 5 350>
LayerCount: 2
Fore
SplineSet
5 0 m 1
 5 23 l 1
 77 23 109 42 124 97 c 2
 252 556 l 2
 254 565 256 574 256 580 c 0
 256 602 241 613 210 613 c 0
 191 613 174 612 147 608 c 1
 149 631 l 1
 265 648 328 661 419 683 c 1
 265 123 l 2
 254 83 253 78 253 69 c 0
 253 32 271 24 350 23 c 1
 350 0 l 1
 5 0 l 1
EndSplineSet
Validated: 1
Substitution2: "'frac' Diagonal Fractions in Cyrillic lookup 27 subtable" one.numerator
Substitution2: "'frac' Diagonal Fractions in Latin lookup 25 subtable" one.numerator
Substitution2: "'frac' Diagonal Fractions lookup 23 subtable" one.numerator
Substitution2: "'dnom' Denominators lookup 22 subtable" one.denominator
Substitution2: "'numr' Numerators lookup 21 subtable" one.numerator
Substitution2: "'onum' Oldstyle Figures in Latin lookup 20 subtable" uniF731
Substitution2: "'onum' Oldstyle Figures in Cyrillic lookup 19 subtable" uniF731
Substitution2: "'onum' Oldstyle Figures in Greek lookup 18 subtable" uniF731
Substitution2: "'sups' Superscript in Latin lookup 17 subtable" one.superior
Substitution2: "'sups' Superscript in Cyrillic lookup 16 subtable" one.superior
Substitution2: "'sups' Superscript in Greek lookup 15 subtable" one.superior
Substitution2: "'subs' Subscript in Latin lookup 14 subtable" one.inferior
Substitution2: "'subs' Subscript in Cyrillic lookup 13 subtable" one.inferior
Substitution2: "'subs' Subscript in Greek lookup 12 subtable" one.inferior
AlternateSubs2: "'aalt' Access All Alternates lookup 1 subtable" uniF731 one.inferior one.superior
EndChar

StartChar: two
Encoding: 50 50 19
Width: 500
Flags: MW
HStem: 0 21G<-27 340 -27 -27> 593 90<220.5 265.5>
VStem: 312 134<468 488.5>
LayerCount: 2
Fore
SplineSet
419 191 m 1
 340 0 l 1
 -27 0 l 1
 -27 24 l 1
 156 207 156 207 205 266 c 0
 262 336 312 402 312 479 c 0
 312 498 312 593 219 593 c 0
 143 593 100 528 86 507 c 1
 64 519 l 1
 92 578 158 683 283 683 c 0
 388 683 446 593 446 515 c 0
 446 421 370 336 302 278 c 2
 106 111 l 1
 255 111 l 2
 336 111 360 129 394 191 c 1
 419 191 l 1
EndSplineSet
Validated: 1
Substitution2: "'frac' Diagonal Fractions in Cyrillic lookup 27 subtable" two.numerator
Substitution2: "'frac' Diagonal Fractions in Latin lookup 25 subtable" two.numerator
Substitution2: "'frac' Diagonal Fractions lookup 23 subtable" two.numerator
Substitution2: "'dnom' Denominators lookup 22 subtable" two.denominator
Substitution2: "'numr' Numerators lookup 21 subtable" two.numerator
Substitution2: "'onum' Oldstyle Figures in Latin lookup 20 subtable" uniF732
Substitution2: "'onum' Oldstyle Figures in Cyrillic lookup 19 subtable" uniF732
Substitution2: "'onum' Oldstyle Figures in Greek lookup 18 subtable" uniF732
Substitution2: "'sups' Superscript in Latin lookup 17 subtable" two.superior
Substitution2: "'sups' Superscript in Cyrillic lookup 16 subtable" two.superior
Substitution2: "'sups' Superscript in Greek lookup 15 subtable" two.superior
Substitution2: "'subs' Subscript in Latin lookup 14 subtable" two.inferior
Substitution2: "'subs' Subscript in Cyrillic lookup 13 subtable" two.inferior
Substitution2: "'subs' Subscript in Greek lookup 12 subtable" two.inferior
AlternateSubs2: "'aalt' Access All Alternates lookup 1 subtable" uniF732 two.inferior two.superior
EndChar

StartChar: three
Encoding: 51 51 20
Width: 500
Flags: MW
HStem: -13 136<56.5 61 33.5 197.5> 612 71<252 267>
VStem: 285 123<175 240> 321 129<526 543.5>
LayerCount: 2
Fore
SplineSet
128 347 m 1xe0
 132 369 l 1
 176 378 321 406 321 524 c 0
 321 563 298 612 236 612 c 0
 173 612 144 573 118 537 c 1
 97 550 l 1
 137 614 200 683 304 683 c 0
 369 683 450 639 450 547 c 0xd0
 450 505 433 448 343 403 c 2
 331 397 l 1
 375 365 408 328 408 247 c 0
 408 103 275 -13 120 -13 c 0
 -7 -13 -15 52 -15 63 c 0
 -15 116 25 123 42 123 c 0
 80 123 90 108 132 45 c 0
 140 33 157 27 176 27 c 0
 234 27 285 97 285 190 c 0
 285 290 228 347 128 347 c 1xe0
EndSplineSet
Validated: 1
Substitution2: "'frac' Diagonal Fractions in Cyrillic lookup 27 subtable" three.numerator
Substitution2: "'frac' Diagonal Fractions in Latin lookup 25 subtable" three.numerator
Substitution2: "'frac' Diagonal Fractions lookup 23 subtable" three.numerator
Substitution2: "'dnom' Denominators lookup 22 subtable" three.denominator
Substitution2: "'numr' Numerators lookup 21 subtable" three.numerator
Substitution2: "'onum' Oldstyle Figures in Latin lookup 20 subtable" uniF733
Substitution2: "'onum' Oldstyle Figures in Cyrillic lookup 19 subtable" uniF733
Substitution2: "'onum' Oldstyle Figures in Greek lookup 18 subtable" uniF733
Substitution2: "'sups' Superscript in Latin lookup 17 subtable" three.superior
Substitution2: "'sups' Superscript in Cyrillic lookup 16 subtable" three.superior
Substitution2: "'sups' Superscript in Greek lookup 15 subtable" three.superior
Substitution2: "'subs' Subscript in Latin lookup 14 subtable" three.inferior
Substitution2: "'subs' Subscript in Cyrillic lookup 13 subtable" three.inferior
Substitution2: "'subs' Subscript in Greek lookup 12 subtable" three.inferior
AlternateSubs2: "'aalt' Access All Alternates lookup 1 subtable" uniF733 three.inferior three.superior
EndChar

StartChar: four
Encoding: 52 52 21
Width: 500
Flags: MW
HStem: 0 21G<188 316 188 188> 150 98<53 229 -15 256 384 426> 663 20G<440 503 503 503>
LayerCount: 2
Fore
SplineSet
453 248 m 1
 426 150 l 1
 358 150 l 1
 316 0 l 1
 188 0 l 1
 229 150 l 1
 -15 150 l 1
 13 255 l 1
 440 683 l 1
 503 683 l 1
 384 248 l 1
 453 248 l 1
53 248 m 1
 256 248 l 1
 335 528 l 1
 53 248 l 1
EndSplineSet
Validated: 1
Substitution2: "'frac' Diagonal Fractions in Cyrillic lookup 27 subtable" four.numerator
Substitution2: "'frac' Diagonal Fractions in Latin lookup 25 subtable" four.numerator
Substitution2: "'frac' Diagonal Fractions lookup 23 subtable" four.numerator
Substitution2: "'dnom' Denominators lookup 22 subtable" four.denominator
Substitution2: "'numr' Numerators lookup 21 subtable" four.numerator
Substitution2: "'onum' Oldstyle Figures in Latin lookup 20 subtable" uniF734
Substitution2: "'onum' Oldstyle Figures in Cyrillic lookup 19 subtable" uniF734
Substitution2: "'onum' Oldstyle Figures in Greek lookup 18 subtable" uniF734
Substitution2: "'sups' Superscript in Latin lookup 17 subtable" four.superior
Substitution2: "'sups' Superscript in Cyrillic lookup 16 subtable" four.superior
Substitution2: "'sups' Superscript in Greek lookup 15 subtable" four.superior
Substitution2: "'subs' Subscript in Latin lookup 14 subtable" four.inferior
Substitution2: "'subs' Subscript in Cyrillic lookup 13 subtable" four.inferior
Substitution2: "'subs' Subscript in Greek lookup 12 subtable" four.inferior
AlternateSubs2: "'aalt' Access All Alternates lookup 1 subtable" uniF734 four.inferior four.superior
EndChar

StartChar: five
Encoding: 53 53 22
Width: 500
Flags: MW
HStem: -13 40<143.5 192.5> 560 109<197 487 204 451>
VStem: 307 105<169 238>
LayerCount: 2
Fore
SplineSet
197 560 m 1
 163 484 l 1
 244 467 288 458 338 417 c 0
 409 360 412 273 412 253 c 0
 412 85 267 -13 118 -13 c 0
 22 -13 -11 33 -11 63 c 0
 -11 107 20 123 48 123 c 0
 122 123 115 27 172 27 c 0
 250 27 307 112 307 187 c 0
 307 289 223 372 73 372 c 1
 204 669 l 1
 487 669 l 1
 451 560 l 1
 197 560 l 1
EndSplineSet
Validated: 1
Substitution2: "'frac' Diagonal Fractions in Cyrillic lookup 27 subtable" five.numerator
Substitution2: "'frac' Diagonal Fractions in Latin lookup 25 subtable" five.numerator
Substitution2: "'frac' Diagonal Fractions lookup 23 subtable" five.numerator
Substitution2: "'dnom' Denominators lookup 22 subtable" five.denominator
Substitution2: "'numr' Numerators lookup 21 subtable" five.numerator
Substitution2: "'onum' Oldstyle Figures in Latin lookup 20 subtable" uniF735
Substitution2: "'onum' Oldstyle Figures in Cyrillic lookup 19 subtable" uniF735
Substitution2: "'onum' Oldstyle Figures in Greek lookup 18 subtable" uniF735
Substitution2: "'sups' Superscript in Latin lookup 17 subtable" five.superior
Substitution2: "'sups' Superscript in Cyrillic lookup 16 subtable" five.superior
Substitution2: "'sups' Superscript in Greek lookup 15 subtable" five.superior
Substitution2: "'subs' Subscript in Latin lookup 14 subtable" five.inferior
Substitution2: "'subs' Subscript in Cyrillic lookup 13 subtable" five.inferior
Substitution2: "'subs' Subscript in Greek lookup 12 subtable" five.inferior
AlternateSubs2: "'aalt' Access All Alternates lookup 1 subtable" uniF735 five.inferior five.superior
EndChar

StartChar: six
Encoding: 54 54 23
Width: 500
Flags: MW
HStem: -15 32<164 208 164 262> 382 40<280 287.5>
VStem: 23 112<82.5 292> 319 124<273 321>
LayerCount: 2
Fore
SplineSet
503 679 m 1
 509 655 l 1
 362 602 278 507 231 409 c 1
 251 416 266 422 294 422 c 0
 345 422 443 397 443 250 c 0
 443 94 323 -15 201 -15 c 0
 43 -15 23 125 23 201 c 0
 23 383 174 632 503 679 c 1
135 95 m 0
 135 70 136 17 192 17 c 0
 224 17 248 40 266 88 c 0
 270 99 319 235 319 311 c 0
 319 331 319 382 256 382 c 0
 212 382 209 373 178 291 c 0
 157 233 135 154 135 95 c 0
EndSplineSet
Validated: 1
Substitution2: "'frac' Diagonal Fractions in Cyrillic lookup 27 subtable" six.numerator
Substitution2: "'frac' Diagonal Fractions in Latin lookup 25 subtable" six.numerator
Substitution2: "'frac' Diagonal Fractions lookup 23 subtable" six.numerator
Substitution2: "'dnom' Denominators lookup 22 subtable" six.denominator
Substitution2: "'numr' Numerators lookup 21 subtable" six.numerator
Substitution2: "'onum' Oldstyle Figures in Latin lookup 20 subtable" uniF736
Substitution2: "'onum' Oldstyle Figures in Cyrillic lookup 19 subtable" uniF736
Substitution2: "'onum' Oldstyle Figures in Greek lookup 18 subtable" uniF736
Substitution2: "'sups' Superscript in Latin lookup 17 subtable" six.superior
Substitution2: "'sups' Superscript in Cyrillic lookup 16 subtable" six.superior
Substitution2: "'sups' Superscript in Greek lookup 15 subtable" six.superior
Substitution2: "'subs' Subscript in Latin lookup 14 subtable" six.inferior
Substitution2: "'subs' Subscript in Cyrillic lookup 13 subtable" six.inferior
Substitution2: "'subs' Subscript in Greek lookup 12 subtable" six.inferior
AlternateSubs2: "'aalt' Access All Alternates lookup 1 subtable" uniF736 six.inferior six.superior
EndChar

StartChar: seven
Encoding: 55 55 24
Width: 500
Flags: MW
HStem: 0 21G<52 144 52 52> 649 20G<144 525 525 525>
LayerCount: 2
Fore
SplineSet
83 479 m 1
 57 479 l 1
 144 669 l 1
 525 669 l 1
 144 0 l 1
 52 0 l 1
 384 556 l 1
 251 556 l 2
 147 556 120 544 83 479 c 1
EndSplineSet
Validated: 1
Substitution2: "'frac' Diagonal Fractions in Cyrillic lookup 27 subtable" seven.numerator
Substitution2: "'frac' Diagonal Fractions in Latin lookup 25 subtable" seven.numerator
Substitution2: "'frac' Diagonal Fractions lookup 23 subtable" seven.numerator
Substitution2: "'dnom' Denominators lookup 22 subtable" seven.denominator
Substitution2: "'numr' Numerators lookup 21 subtable" seven.numerator
Substitution2: "'onum' Oldstyle Figures in Latin lookup 20 subtable" uniF737
Substitution2: "'onum' Oldstyle Figures in Cyrillic lookup 19 subtable" uniF737
Substitution2: "'onum' Oldstyle Figures in Greek lookup 18 subtable" uniF737
Substitution2: "'sups' Superscript in Latin lookup 17 subtable" seven.superior
Substitution2: "'sups' Superscript in Cyrillic lookup 16 subtable" seven.superior
Substitution2: "'sups' Superscript in Greek lookup 15 subtable" seven.superior
Substitution2: "'subs' Subscript in Latin lookup 14 subtable" seven.inferior
Substitution2: "'subs' Subscript in Cyrillic lookup 13 subtable" seven.inferior
Substitution2: "'subs' Subscript in Greek lookup 12 subtable" seven.inferior
AlternateSubs2: "'aalt' Access All Alternates lookup 1 subtable" uniF737 seven.inferior seven.superior
EndChar

StartChar: eight
Encoding: 56 56 25
Width: 500
Flags: MW
HStem: -13 30<159 234 159 260.5> 650 33<278 326.5>
VStem: 3 97<134 184.5 115 214> 109 111<528.5 553.5> 306 113<131.5 175> 383 93<518.5 576>
LayerCount: 2
Fore
SplineSet
3 150 m 0xf8
 3 278 133 323 183 340 c 1
 183 345 l 1
 150 380 109 422 109 499 c 0
 109 608 192 683 302 683 c 0
 356 683 476 651 476 542 c 0xf4
 476 455 410 412 333 381 c 1
 333 376 l 1
 360 347 419 284 419 194 c 0
 419 69 319 -13 202 -13 c 0
 21 -13 3 118 3 150 c 0xf8
100 137 m 0
 100 93 118 17 200 17 c 0
 268 17 306 82 306 145 c 0
 306 205 285 231 209 321 c 1
 151 282 100 232 100 137 c 0
310 403 m 1
 367 463 383 493 383 544 c 0
 383 608 351 650 302 650 c 0
 254 650 220 609 220 553 c 0
 220 504 241 468 310 403 c 1
EndSplineSet
Validated: 1
Substitution2: "'frac' Diagonal Fractions in Cyrillic lookup 27 subtable" eight.numerator
Substitution2: "'frac' Diagonal Fractions in Latin lookup 25 subtable" eight.numerator
Substitution2: "'frac' Diagonal Fractions lookup 23 subtable" eight.numerator
Substitution2: "'dnom' Denominators lookup 22 subtable" eight.denominator
Substitution2: "'numr' Numerators lookup 21 subtable" eight.numerator
Substitution2: "'onum' Oldstyle Figures in Latin lookup 20 subtable" uniF738
Substitution2: "'onum' Oldstyle Figures in Cyrillic lookup 19 subtable" uniF738
Substitution2: "'onum' Oldstyle Figures in Greek lookup 18 subtable" uniF738
Substitution2: "'sups' Superscript in Latin lookup 17 subtable" eight.superior
Substitution2: "'sups' Superscript in Cyrillic lookup 16 subtable" eight.superior
Substitution2: "'sups' Superscript in Greek lookup 15 subtable" eight.superior
Substitution2: "'subs' Subscript in Latin lookup 14 subtable" eight.inferior
Substitution2: "'subs' Subscript in Cyrillic lookup 13 subtable" eight.inferior
Substitution2: "'subs' Subscript in Greek lookup 12 subtable" eight.inferior
AlternateSubs2: "'aalt' Access All Alternates lookup 1 subtable" uniF738 eight.inferior eight.superior
EndChar

StartChar: nine
Encoding: 57 57 26
Width: 500
Flags: MW
HStem: 245 43<158.5 264> 651 32<257.5 337.5>
VStem: 53 124<323 470> 363 112<391 589.5>
LayerCount: 2
Fore
SplineSet
363 575 m 0
 363 604 363 651 312 651 c 0
 203 651 177 358 177 358 c 1
 177 288 227 288 242 288 c 0
 286 288 288 293 320 377 c 0
 360 479 363 572 363 575 c 0
-6 -10 m 1
 -12 15 l 1
 105 47 211 142 265 259 c 1
 247 251 231 245 204 245 c 0
 113 245 53 313 53 412 c 0
 53 528 130 683 303 683 c 0
 413 683 475 598 475 466 c 0
 475 316 354 41 -6 -10 c 1
EndSplineSet
Validated: 1
Substitution2: "'frac' Diagonal Fractions in Cyrillic lookup 27 subtable" nine.numerator
Substitution2: "'frac' Diagonal Fractions in Latin lookup 25 subtable" nine.numerator
Substitution2: "'frac' Diagonal Fractions lookup 23 subtable" nine.numerator
Substitution2: "'dnom' Denominators lookup 22 subtable" nine.denominator
Substitution2: "'numr' Numerators lookup 21 subtable" nine.numerator
Substitution2: "'onum' Oldstyle Figures in Latin lookup 20 subtable" uniF739
Substitution2: "'onum' Oldstyle Figures in Cyrillic lookup 19 subtable" uniF739
Substitution2: "'onum' Oldstyle Figures in Greek lookup 18 subtable" uniF739
Substitution2: "'sups' Superscript in Latin lookup 17 subtable" nine.superior
Substitution2: "'sups' Superscript in Cyrillic lookup 16 subtable" nine.superior
Substitution2: "'sups' Superscript in Greek lookup 15 subtable" nine.superior
Substitution2: "'subs' Subscript in Latin lookup 14 subtable" nine.inferior
Substitution2: "'subs' Subscript in Cyrillic lookup 13 subtable" nine.inferior
Substitution2: "'subs' Subscript in Greek lookup 12 subtable" nine.inferior
AlternateSubs2: "'aalt' Access All Alternates lookup 1 subtable" uniF739 nine.inferior nine.superior
EndChar

StartChar: colon
Encoding: 58 58 27
Width: 333
Flags: MW
HStem: -13 148<77 117> 311 148<170 210>
VStem: 23 148<40 81 40 82> 116 148<364 405 364 406>
LayerCount: 2
Fore
SplineSet
98 135 m 0xe0
 138 135 171 101 171 61 c 0
 171 19 138 -13 96 -13 c 0
 55 -13 23 19 23 61 c 0
 23 103 56 135 98 135 c 0xe0
191 459 m 0
 231 459 264 425 264 385 c 0
 264 343 231 311 189 311 c 0
 148 311 116 343 116 385 c 0xd0
 116 427 149 459 191 459 c 0
EndSplineSet
Validated: 1
EndChar

StartChar: semicolon
Encoding: 59 59 28
Width: 333
Flags: MW
HStem: 311 148<170 210>
VStem: 93 86<-60 64.5> 116 148<364 405 364 406>
LayerCount: 2
Fore
SplineSet
-12 -183 m 1xc0
 -25 -159 l 1
 53 -117 93 -78 93 -42 c 0
 93 -28 86 -18 63 -3 c 0
 33 17 23 33 23 60 c 0
 23 102 53 133 94 133 c 0
 145 133 179 94 179 35 c 0
 179 -46 103 -132 -12 -183 c 1xc0
191 459 m 0
 231 459 264 425 264 385 c 0
 264 343 231 311 189 311 c 0
 148 311 116 343 116 385 c 0xa0
 116 427 149 459 191 459 c 0
EndSplineSet
Validated: 1
EndChar

StartChar: less
Encoding: 60 60 29
Width: 570
Flags: MW
HStem: -12 21G<539 539>
VStem: 31 508<-12 295 -12 295>
LayerCount: 2
Fore
SplineSet
539 -12 m 1
 31 211 l 1
 31 295 l 1
 539 518 l 1
 539 422 l 1
 154 253 l 1
 539 84 l 1
 539 -12 l 1
EndSplineSet
Validated: 1
EndChar

StartChar: equal
Encoding: 61 61 30
Width: 570
Flags: MW
HStem: 107 88<33 537 33 537> 311 88<33 537 33 537>
LayerCount: 2
Fore
SplineSet
537 399 m 1
 537 311 l 1
 33 311 l 1
 33 399 l 1
 537 399 l 1
537 195 m 1
 537 107 l 1
 33 107 l 1
 33 195 l 1
 537 195 l 1
EndSplineSet
Validated: 1
EndChar

StartChar: greater
Encoding: 62 62 31
Width: 570
Flags: MW
HStem: -12 21G<31 31>
VStem: 31 508<-12 295 84 295 211 518 211 518>
LayerCount: 2
Fore
SplineSet
31 -12 m 1
 31 84 l 1
 416 253 l 1
 31 422 l 1
 31 518 l 1
 539 295 l 1
 539 211 l 1
 31 -12 l 1
EndSplineSet
Validated: 1
EndChar

StartChar: question
Encoding: 63 63 32
Width: 500
GlyphClass: 5
Flags: MW
HStem: -13 21G<131.5 173> 653 31<258 295>
VStem: 119 93<536 624.5> 343 127<549.5 582.5 508 597.5>
LayerCount: 2
Fore
SplineSet
196 208 m 1
 167 215 l 1
 171 270 192 316 238 374 c 2
 279 425 l 2
 323 480 343 526 343 573 c 0
 343 622 316 653 274 653 c 0
 242 653 212 634 212 615 c 0
 212 609 215 603 223 593 c 0
 236 576 241 562 241 547 c 0
 241 515 214 488 180 488 c 0
 146 488 119 517 119 555 c 0
 119 630 193 684 294 684 c 0
 399 684 470 626 470 539 c 0
 470 477 433 427 344 369 c 2
 278 326 l 2
 240 301 224 278 196 208 c 1
154 135 m 0
 194 135 227 101 227 61 c 0
 227 19 194 -13 152 -13 c 0
 111 -13 79 19 79 61 c 0
 79 103 112 135 154 135 c 0
EndSplineSet
Validated: 1
EndChar

StartChar: at
Encoding: 64 64 33
Width: 832
Flags: HMW
HStem: -18 46<363 475> 142 37<585.5 612 585.5 633> 143 47<339 421.5> 646 39<354.5 515.5>
VStem: 63 91<236.5 416.5 236.5 427.5> 272 76<249 293.5> 724 46<354 452>
LayerCount: 2
Fore
SplineSet
545 463 m 1xbe
 556 501 l 1
 627 501 l 1
 562 244 l 2
 560 238 560 233 560 224 c 0
 560 195 574 179 597 179 c 0
 627 179 654 196 677 230 c 0
 706 271 724 329 724 379 c 0
 724 525 594 646 437 646 c 0
 272 646 154 511 154 322 c 0
 154 151 277 28 449 28 c 0
 518 28 569 40 647 76 c 1
 660 41 l 1
 563 -4 511 -18 439 -18 c 0
 228 -18 63 134 63 328 c 0
 63 527 228 685 436 685 c 0
 624 685 770 555 770 387 c 0
 770 255 683 142 583 142 c 0xde
 534 142 492 176 490 217 c 1
 455 171 408 143 365 143 c 0
 313 143 272 193 272 257 c 0
 272 330 304 409 355 463 c 0
 386 496 430 515 473 515 c 0
 509 515 523 505 545 463 c 1xbe
486 467 m 0
 484.851648071 467.091868154 483.684306688 467.137317641 482.499429621 467.137317641 c 0
 457.889142391 467.137317641 425.71384584 447.530109531 399 417 c 0
 366 379 348 329 348 275 c 0
 348 223 371 190 407 190 c 0
 436 190 466 215 488 257 c 0
 509 298 526 358 528 402 c 0
 528.118264106 404.306150064 528.177086017 406.559851132 528.177086017 408.759655877 c 0
 528.177086017 443.761413347 513.285170466 465.118264106 486 467 c 0
EndSplineSet
Validated: 524289
EndChar

StartChar: A
Encoding: 65 65 34
Width: 691
GlyphClass: 5
Flags: MW
HStem: 0 25<141 153 -43 -43> 208 40<185 370 185 377 162 370> 663 20G<412 437 437 437>
LayerCount: 2
Fore
SplineSet
617 0 m 1
 313 0 l 1
 313 25 l 1
 353 28 392 30 392 81 c 0
 392 123 383 167 377 208 c 1
 162 208 l 1
 146 180 88 97 88 60 c 0
 88 27 129 25 153 25 c 1
 153 0 l 1
 -43 0 l 1
 -43 25 l 1
 1 36 16 57 40 95 c 2
 412 683 l 1
 437 683 l 1
 533 111 l 2
 545 41 547 32 617 25 c 1
 617 0 l 1
185 248 m 1
 370 248 l 1
 333 491 l 1
 185 248 l 1
EndSplineSet
Validated: 1
EndChar

StartChar: B
Encoding: 66 66 35
Width: 667
Flags: MW
HStem: 0 32<248.5 277> 637 32<370.5 388 388 419>
VStem: 419 153<178 252 126.5 276.5> 477 147<470.5 569.5>
LayerCount: 2
Fore
SplineSet
624 525 m 0xd0
 624 416 528 378 438 356 c 1
 438 354 l 1
 513 331 572 296 572 208 c 0xe0
 572 45 412 0 277 0 c 2
 -24 0 l 1
 -24 25 l 1
 25 31 43 48 56 97 c 2
 178 546 l 2
 181 557 189 588 189 599 c 0
 189 642 149 643 116 644 c 1
 116 669 l 1
 388 669 l 2
 484 669 624 649 624 525 c 0xd0
477 539 m 0
 477 600 451 637 387 637 c 0
 354 637 346 621 338 593 c 2
 277 368 l 1
 397 372 477 399 477 539 c 0
419 225 m 0xe0
 419 328 353 336 269 338 c 1
 254 282 198 111 198 63 c 0
 198 33 238 32 259 32 c 0
 363 32 419 131 419 225 c 0xe0
EndSplineSet
Validated: 1
EndChar

StartChar: C
Encoding: 67 67 36
Width: 667
GlyphClass: 5
Flags: MW
HStem: -18 53<278.5 360> 650 35<375 473.5 322 511.5>
VStem: 32 154<167.5 286.5 167.5 353.5>
LayerCount: 2
Fore
SplineSet
677 685 m 1
 626 451 l 1
 594 457 l 1
 596 468 597 480 597 491 c 0
 597 577 559 650 464 650 c 0
 286 650 186 359 186 214 c 0
 186 121 227 35 330 35 c 0
 427 35 488 79 546 153 c 1
 576 131 l 1
 515 38 416 -18 304 -18 c 0
 149 -18 32 80 32 240 c 0
 32 467 203 685 441 685 c 0
 506 685 569 656 607 656 c 0
 626 656 639 669 647 685 c 1
 677 685 l 1
EndSplineSet
Validated: 1
EndChar

StartChar: D
Encoding: 68 68 37
Width: 744
Flags: HMW
HStem: 0 34<245.5 262> 638 31<383 406 406 459>
VStem: 560 147<361.5 484.5 267 507.5>
LayerCount: 2
Fore
SplineSet
707 391 m 0
 707 143 493 0 262 0 c 2
 -24 0 l 1
 -24 25 l 1
 26 30 43 50 56 97 c 2
 188 582 l 2
 189.766038833 588.593211643 190.575617097 594.451750676 190.575617097 599.662114454 c 0
 190.575617097 638.706415533 145.114714567 641.353207767 116 644 c 1
 116 669 l 1
 406 669 l 2
 585 669 707 578 707 391 c 0
560 453 m 0
 560 562 520 638 398 638 c 0
 368 638 349 633 340 600 c 2
 212 126 l 2
 207 107 199 88 199 69 c 0
 199 35 233 34 258 34 c 0
 475 34 560 270 560 453 c 0
EndSplineSet
Validated: 524289
EndChar

StartChar: E
Encoding: 69 69 38
Width: 670
GlyphClass: 5
Flags: HMW
HStem: 0 32<246 325.5 246 527> 338 32<275 295 275 304.5> 637 32<376 457>
LayerCount: 2
Fore
SplineSet
653 669 m 1
 610 479 l 1
 583 484 l 1
 583 615 520 637 394 637 c 0
 358 637 345 627 336 593 c 2
 275 370 l 1
 295 370 l 2
 298.607208159 369.966906347 302.123515561 369.949145352 305.552800294 369.949145352 c 0
 405.747154504 369.949145352 431.654682642 385.110803367 480 476 c 1
 508 472 l 1
 434 199 l 1
 406 204 l 1
 408 217 410 231 410 244 c 0
 410 337 343 338 266 338 c 1
 260 314 195 96 195 68 c 0
 195 32 232 32 260 32 c 0
 391 32 497 82 561 199 c 1
 586 194 l 1
 527 0 l 1
 -27 0 l 1
 -27 25 l 1
 24 34 39 45 53 97 c 2
 176 546 l 2
 181 563 186 584 186 602 c 0
 186 644 145 640 113 644 c 1
 113 669 l 1
 653 669 l 1
EndSplineSet
Validated: 524289
EndChar

StartChar: F
Encoding: 70 70 39
Width: 656
GlyphClass: 5
Flags: MW
HStem: 0 21G<-22 273 -22 -22> 338 32<280 309> 637 32<382 461.5>
LayerCount: 2
Fore
SplineSet
651 669 m 1
 608 479 l 1
 581 484 l 1
 581 609 523 637 400 637 c 0
 364 637 350 628 341 593 c 2
 280 370 l 1
 397 370 424 374 478 476 c 1
 506 472 l 1
 432 199 l 1
 404 204 l 1
 406 217 408 231 408 244 c 0
 408 334 347 338 271 338 c 1
 261 300 202 117 202 70 c 0
 202 29 240 27 273 25 c 1
 273 0 l 1
 -22 0 l 1
 -22 25 l 1
 29 34 44 45 58 97 c 2
 181 546 l 2
 186 563 191 584 191 602 c 0
 191 644 150 640 118 644 c 1
 118 669 l 1
 651 669 l 1
EndSplineSet
Validated: 1
EndChar

StartChar: G
Encoding: 71 71 40
Width: 722
GlyphClass: 5
Flags: MW
HStem: -18 38<284 355 284 366.5> 649 36<362.5 458 325.5 514>
VStem: 21 156<165 277 149 368>
LayerCount: 2
Fore
SplineSet
706 304 m 1
 645 301 641 276 627 222 c 2
 579 41 l 1
 499 3 411 -18 322 -18 c 0
 156 -18 21 77 21 253 c 0
 21 483 209 685 442 685 c 0
 474 685 507 682 538 674 c 0
 561 669 585 655 608 655 c 0
 628 655 643 667 650 685 c 1
 681 685 l 1
 630 464 l 1
 601 468 l 1
 601 566 570 649 458 649 c 0
 267 649 177 353 177 201 c 0
 177 97 230 20 338 20 c 0
 372 20 418 27 439 56 c 0
 449 70 493 240 493 262 c 0
 493 304 451 302 419 304 c 1
 419 330 l 1
 706 330 l 1
 706 304 l 1
EndSplineSet
Validated: 1
EndChar

StartChar: H
Encoding: 72 72 41
Width: 778
Flags: MW
HStem: 0 21G<-24 272 -24 -24 340 657 340 340> 329 44<278 505 266 517> 649 20G<116 433 433 433 501 799 799 799>
LayerCount: 2
Fore
SplineSet
574 607 m 0
 574 635 554 636 501 644 c 1
 501 669 l 1
 799 669 l 1
 799 644 l 1
 748 637 733 625 718 572 c 2
 603 153 l 2
 589 103 584 80 584 66 c 0
 584 37 602 27 657 25 c 1
 657 0 l 1
 340 0 l 1
 340 25 l 1
 407 29 427 43 441 97 c 2
 505 329 l 1
 266 329 l 1
 212 132 l 2
 203 100 199 82 199 68 c 0
 199 36 209 30 272 25 c 1
 272 0 l 1
 -24 0 l 1
 -24 25 l 1
 26 32 42 44 56 97 c 2
 178 546 l 2
 185 572 189 593 189 604 c 0
 189 635 168 637 116 644 c 1
 116 669 l 1
 433 669 l 1
 433 644 l 1
 368 642 348 627 332 572 c 2
 278 373 l 1
 517 373 l 1
 564 546 l 2
 569 564 574 595 574 607 c 0
EndSplineSet
Validated: 1
EndChar

StartChar: I
Encoding: 73 73 42
Width: 393
GlyphClass: 5
Flags: MW
HStem: 0 21G<-24 272 -24 -24> 649 20G<116 414 414 414>
LayerCount: 2
Fore
SplineSet
189 607 m 0
 189 635 169 636 116 644 c 1
 116 669 l 1
 414 669 l 1
 414 644 l 1
 363 638 347 625 332 572 c 2
 218 152 l 2
 205 103 200 80 200 65 c 0
 200 37 215 28 272 25 c 1
 272 0 l 1
 -24 0 l 1
 -24 25 l 1
 25 31 42 45 56 97 c 2
 179 546 l 2
 184 564 189 595 189 607 c 0
EndSplineSet
Validated: 1
EndChar

StartChar: J
Encoding: 74 74 43
Width: 500
GlyphClass: 5
Flags: MW
HStem: -99 36<76 103 76 160> 649 20G<227 524 524 524>
LayerCount: 2
Fore
SplineSet
300 607 m 2
 300 608 l 2
 300 630 286 636 227 644 c 1
 227 669 l 1
 524 669 l 1
 524 644 l 1
 475 638 457 626 443 572 c 2
 315 93 l 2
 280 -38 214 -99 106 -99 c 0
 18 -99 -46 -56 -46 2 c 0
 -46 41 -18 72 18 72 c 0
 53 72 81 44 81 9 c 0
 81 -23 58 -24 58 -45 c 0
 58 -57 67 -63 85 -63 c 0
 121 -63 136 -35 175 114 c 2
 289 546 l 2
 296 572 300 595 300 607 c 2
EndSplineSet
Validated: 1
EndChar

StartChar: K
Encoding: 75 75 44
Width: 688
GlyphClass: 5
Flags: MW
HStem: 0 21G<-24 265 -24 -24 329 609 329 329> 642 27<507.5 509>
LayerCount: 2
Fore
SplineSet
189 604 m 0
 189 635 168 637 116 644 c 1
 116 669 l 1
 426 669 l 1
 426 644 l 1
 367 639 346 624 332 572 c 2
 270 344 l 1
 476 520 544 588 544 617 c 0
 544 632 534 639 509 642 c 0
 506 642 497 643 488 644 c 1
 488 669 l 1
 699 669 l 1
 699 644 l 1
 656 638 648 635 605 596 c 2
 389 398 l 1
 546 60 l 2
 557 36 571 29 609 25 c 1
 609 0 l 1
 329 0 l 1
 329 25 l 1
 367 28 394 30 394 52 c 0
 394 63 390 75 381 95 c 2
 268 337 l 1
 201 88 l 2
 200 83 199 77 199 71 c 0
 199 38 213 29 265 25 c 1
 265 0 l 1
 -24 0 l 1
 -24 25 l 1
 25 31 41 44 56 97 c 2
 178 546 l 2
 185 572 189 593 189 604 c 0
EndSplineSet
Validated: 1
EndChar

StartChar: L
Encoding: 76 76 45
Width: 609
GlyphClass: 5
Flags: MW
HStem: 0 32<240 303 240 529> 649 20G<116 433 433 433>
LayerCount: 2
Fore
SplineSet
189 607 m 0
 189 635 169 636 116 644 c 1
 116 669 l 1
 433 669 l 1
 433 644 l 1
 367 640 348 627 332 572 c 2
 203 94 l 2
 200 83 198 70 198 62 c 0
 198 41 218 32 262 32 c 0
 344 32 415 52 469 90 c 0
 508 118 530 143 564 199 c 1
 588 194 l 1
 529 0 l 1
 -24 0 l 1
 -24 25 l 1
 25 32 42 45 56 97 c 2
 179 546 l 2
 184 564 189 595 189 607 c 0
EndSplineSet
Validated: 1
EndChar

StartChar: M
Encoding: 77 77 46
Width: 896
Flags: MW
HStem: 0 21G<-29 178 -29 -29 463 775 463 463> 649 20G<120 341 341 341 705 917 917 917>
LayerCount: 2
Fore
SplineSet
711 113 m 2
 705 92 703 78 703 68 c 0
 703 36 717 28 775 25 c 1
 775 0 l 1
 463 0 l 1
 463 25 l 1
 528 29 547 43 563 97 c 2
 688 561 l 1
 313 -12 l 1
 285 -12 l 1
 218 547 l 1
 117 178 l 2
 104 130 98 102 98 86 c 0
 98 45 114 33 178 25 c 1
 178 0 l 1
 -29 0 l 1
 -29 25 l 1
 25 37 34 47 72 178 c 2
 181 551 l 2
 188 576 192 596 192 609 c 0
 192 637 183 641 120 644 c 1
 120 669 l 1
 341 669 l 1
 395 189 l 1
 705 669 l 1
 917 669 l 1
 917 644 l 1
 866 638 850 624 836 572 c 2
 711 113 l 2
EndSplineSet
Validated: 1
EndChar

StartChar: N
Encoding: 78 78 47
Width: 722
GlyphClass: 5
Flags: MW
HStem: -15 21G<473 501 473 473> 649 20G<109 304 304 304 537 746 746 746>
LayerCount: 2
Fore
SplineSet
304 669 m 1
 519 204 l 1
 599 491 l 2
 610 531 617 567 617 585 c 0
 617 623 596 639 537 644 c 1
 537 669 l 1
 746 669 l 1
 746 644 l 1
 688 631 681 623 644 491 c 2
 501 -15 l 1
 473 -15 l 1
 216 534 l 1
 117 178 l 2
 106 137 99 102 99 84 c 0
 99 45 120 30 179 25 c 1
 179 0 l 1
 -29 0 l 1
 -29 25 l 1
 26 36 33 47 72 178 c 2
 192 589 l 1
 173 633 164 639 109 644 c 1
 109 669 l 1
 304 669 l 1
EndSplineSet
Validated: 1
EndChar

StartChar: O
Encoding: 79 79 48
Width: 722
GlyphClass: 5
Flags: MW
HStem: -18 34<235 360 235 379> 651 34<358 480>
VStem: 27 144<140 217 114.5 318.5> 547 144<458.5 516 334.5 559.5>
LayerCount: 2
Fore
SplineSet
691 444 m 0
 691 225 493 -18 265 -18 c 0
 135 -18 27 73 27 207 c 0
 27 430 211 685 449 685 c 0
 592 685 691 588 691 444 c 0
547 526 m 0
 547 593 518 651 442 651 c 0
 274 651 171 284 171 150 c 0
 171 79 195 16 275 16 c 0
 445 16 547 391 547 526 c 0
EndSplineSet
Validated: 1
EndChar

StartChar: P
Encoding: 80 80 49
Width: 614
Flags: MW
HStem: 0 21G<-27 267 -27 -27> 317 35<336.5 364.5 300.5 411> 637 32<365 400 400 413>
VStem: 467 146<487 569>
LayerCount: 2
Fore
SplineSet
613 512 m 0
 613 374 470 317 352 317 c 0
 321 317 290 319 259 322 c 1
 244 268 195 124 195 68 c 0
 195 26 235 26 267 25 c 1
 267 0 l 1
 -27 0 l 1
 -27 25 l 1
 24 34 39 45 53 97 c 2
 176 546 l 2
 181 563 186 584 186 602 c 0
 186 643 145 640 113 644 c 1
 113 669 l 1
 400 669 l 2
 506 669 613 638 613 512 c 0
467 541 m 0
 467 597 444 637 382 637 c 0
 348 637 341 622 333 593 c 2
 269 354 l 1
 282 353 294 352 307 352 c 0
 422 352 467 433 467 541 c 0
EndSplineSet
Validated: 1
EndChar

StartChar: Q
Encoding: 81 81 50
Width: 722
Flags: HMW
HStem: -208 90<457 458.5> -161 90<135 239> 651 34<358 480>
VStem: 27 144<116.5 217 114.5 318.5> 547 144<458 516 334.5 559.5>
LayerCount: 2
Fore
SplineSet
691 444 m 0x78
 691 231.504504423 497.055062615 -17.7087220175 272.684808796 -17.7087220175 c 0
 265.816817056 -17.7087220175 258.920317491 -17.475214935 252 -17 c 1
 246 -23 206 -59 206 -65 c 0
 206 -69 235 -71 239 -71 c 0x78
 278 -75 317 -79 354 -90 c 0
 395 -102 435 -118 479 -118 c 0
 547 -118 589 -88 634 -40 c 1
 655 -59 l 1
 590 -150 517 -208 400 -208 c 0xb8
 313 -208 239 -161 154 -161 c 0
 116 -161 77 -175 42 -189 c 1
 28 -165 l 1
 47 -149 199 -27 203 -16 c 1
 192 0 27 26 27 207 c 0
 27 430 211 685 449 685 c 0
 592 685 691 588 691 444 c 0x78
547 526 m 0
 547 593 518 651 442 651 c 0
 274 651 171 284 171 150 c 0
 171 79 195 17 275 17 c 0
 445 17 547 390 547 526 c 0
EndSplineSet
Validated: 524289
EndChar

StartChar: R
Encoding: 82 82 51
Width: 688
GlyphClass: 5
Flags: MW
HStem: 0 21G<-24 272 -24 -24 405 607 405 405> 331 32<278 298 269 339> 637 32<368 392 392 414>
VStem: 477 151<475.5 572.5>
LayerCount: 2
Fore
SplineSet
477 542 m 0
 477 603 445 637 383 637 c 0
 353 637 345 619 338 593 c 2
 278 363 l 1
 400 363 477 409 477 542 c 0
189 607 m 0
 189 635 169 636 116 644 c 1
 116 669 l 1
 392 669 l 2
 550 669 628 622 628 526 c 0
 628 394 496 352 436 343 c 1
 519 97 l 2
 539 37 551 30 607 25 c 1
 607 0 l 1
 405 0 l 1
 298 331 l 1
 269 331 l 1
 214 138 l 2
 205 107 200 81 200 67 c 0
 200 37 214 29 272 25 c 1
 272 0 l 1
 -24 0 l 1
 -24 25 l 1
 25 31 42 45 56 97 c 2
 179 546 l 2
 184 563 189 595 189 607 c 0
EndSplineSet
Validated: 1
EndChar

StartChar: S
Encoding: 83 83 52
Width: 556
GlyphClass: 5
Flags: MW
HStem: -18 21G<2 32 2 2 202.5 302> 16 1 650 35<293 332.5 249 376.5>
VStem: 102 121<484.5 547.5> 347 121<121 207.5>
LayerCount: 2
Fore
SplineSet
526 681 m 1
 486 480 l 1
 459 484 l 1
 450 567 427 650 326 650 c 0
 260 650 223 606 223 543 c 0
 223 426 468 375 468 194 c 0
 468 48 371 -18 233 -18 c 0
 172 -18 115 17 72 17 c 0
 47 17 40 3 32 -18 c 1
 2 -18 l 1
 38 206 l 1
 67 204 l 1
 70 106 113 16 222 16 c 0
 294 16 347 70 347 142 c 0
 347 273 102 326 102 488 c 0
 102 607 191 685 307 685 c 0
 358 685 404 655 452 655 c 0
 470 655 487 665 496 681 c 1
 526 681 l 1
EndSplineSet
Validated: 1
EndChar

StartChar: T
Encoding: 84 84 53
Width: 611
GlyphClass: 5
Flags: MW
HStem: 0 25<50 64 64 89.5 50 64> 634 35<303 303 449 449>
LayerCount: 2
Fore
SplineSet
650 669 m 1
 614 477 l 1
 587 479 l 1
 582 590 543 633 449 634 c 1
 309 128 l 2
 302 102 298 81 298 66 c 0
 298 34 311 28 381 25 c 1
 381 0 l 1
 50 0 l 1
 50 25 l 1
 64 25 l 2
 115 25 141 46 155 97 c 2
 303 634 l 1
 201 632 138 591 86 491 c 1
 61 498 l 1
 99 669 l 1
 650 669 l 1
EndSplineSet
Validated: 1
EndChar

StartChar: U
Encoding: 85 85 54
Width: 722
GlyphClass: 5
Flags: MW
HStem: -18 56<289 332.5> 640 29<127 129>
LayerCount: 2
Fore
SplineSet
744 669 m 1
 744 644 l 1
 689 633 680 623 642 491 c 2
 576 263 l 2
 545 155 521 101 487 62 c 0
 442 9 375 -18 290 -18 c 0
 159 -18 67 50 67 148 c 0
 67 181 79 243 100 323 c 2
 156 529 l 2
 165 562 171 593 171 605 c 0
 171 627 161 635 129 640 c 0
 125 640 112 642 98 644 c 1
 98 669 l 1
 409 669 l 1
 409 644 l 1
 347 641 332 629 315 572 c 2
 233 272 l 2
 208 181 205 166 205 139 c 0
 205 76 251 38 327 38 c 0
 382 38 426 58 460 98 c 0
 490 135 512 185 539 282 c 2
 597 491 l 2
 608 532 616 571 616 588 c 0
 616 623 593 639 536 644 c 1
 536 669 l 1
 744 669 l 1
EndSplineSet
Validated: 1
EndChar

StartChar: V
Encoding: 86 86 55
Width: 667
Flags: MW
HStem: -18 21G<231 263 231 231> 642 27<546 548>
LayerCount: 2
Fore
SplineSet
715 669 m 1
 715 644 l 1
 687 635 669 623 656 604 c 2
 263 -18 l 1
 231 -18 l 1
 155 491 l 2
 133 634 127 644 65 644 c 1
 65 669 l 1
 363 669 l 1
 363 644 l 1
 296 638 287 633 287 599 c 0
 287 593 287 589 288 583 c 2
 339 182 l 1
 529 484 l 2
 568 545 588 589 588 611 c 0
 588 630 576 639 548 642 c 0
 544 642 534 643 523 644 c 1
 523 669 l 1
 715 669 l 1
EndSplineSet
Validated: 1
EndChar

StartChar: W
Encoding: 87 87 56
Width: 889
Flags: HMW
HStem: -18 21G<220 249 220 220 541 570 541 541> 649 20G<65 342 342 342 400 669 669 669 753 940 940 940>
LayerCount: 2
Fore
SplineSet
940 669 m 1
 940 645 l 1
 898 639 881 624 856 572 c 2
 570 -18 l 1
 541 -18 l 1
 482 471 l 1
 249 -18 l 1
 220 -18 l 1
 142 561 l 2
 132 632 130 634 65 645 c 1
 65 669 l 1
 342 669 l 1
 342 644 l 1
 295 638 281 627 281 591 c 0
 281 587 282 575 282 575 c 2
 281.978552279 575.343163539 281.975964752 575.51106527 281.99143827 575.51106527 c 0
 282.697417505 575.51106527 321 226 321 226 c 1
 471 537 l 1
 470 623 460 637 400 645 c 1
 400 669 l 1
 669 669 l 1
 669 644 l 1
 616 639 606 630 606 586 c 0
 606 575 606 572 612 521 c 2
 645 226 l 1
 801 553 l 2
 813 579 816 587 816 599 c 0
 816 635 809 640 753 644 c 1
 753 669 l 1
 940 669 l 1
EndSplineSet
Validated: 524289
EndChar

StartChar: X
Encoding: 88 88 57
Width: 667
Flags: MW
HStem: 0 21G<-24 190 -24 -24 278 586 278 278> 649 20G<100 405 405 405 491 694 694 694>
LayerCount: 2
Fore
SplineSet
694 644 m 1
 650 637 625 614 595 583 c 2
 396 378 l 1
 470 141 l 2
 493 67 503 33 586 25 c 1
 586 0 l 1
 278 0 l 1
 278 25 l 1
 305 27 346 27 346 64 c 0
 346 112 302 211 289 264 c 1
 273 247 125 98 125 67 c 0
 125 33 164 27 190 25 c 1
 190 0 l 1
 -24 0 l 1
 -24 25 l 1
 61 49 208 239 275 309 c 1
 191 581 l 2
 175 632 149 639 100 644 c 1
 100 669 l 1
 405 669 l 1
 405 644 l 1
 372 641 331 645 331 602 c 0
 331 579 373 453 382 421 c 1
 392 432 546 582 546 615 c 0
 546 645 513 642 491 644 c 1
 491 669 l 1
 694 669 l 1
 694 644 l 1
EndSplineSet
Validated: 1
EndChar

StartChar: Y
Encoding: 89 89 58
Width: 611
Flags: HMW
HStem: 0 21G<73 395 73 73> 644 25<73 356 342.5 356 451 466>
LayerCount: 2
Fore
SplineSet
659 644 m 1
 616 636 592 609 568 575 c 2
 378 308 l 1
 363 251 318 127 318 69 c 0
 318 24 361 26 395 25 c 1
 395 0 l 1
 73 0 l 1
 73 25 l 1
 132 30 157 35 174 97 c 2
 234 313 l 1
 146 581 l 2
 129 632 125 637 73 644 c 1
 73 669 l 1
 356 669 l 1
 356 644 l 1
 354.615384615 644 353.18869165 644.002629849 351.727878083 644.002629849 c 0
 324.702827087 644.002629849 286 643.102564103 286 608 c 0
 286 568 350 392 363 352 c 1
 492 538 l 2
 508 562 518 574 518 603 c 0
 518 641 481 644 451 644 c 1
 451 669 l 1
 659 669 l 1
 659 644 l 1
EndSplineSet
Validated: 524289
EndChar

StartChar: Z
Encoding: 90 90 59
Width: 611
Flags: MW
HStem: 0 35<156 226 226 270> 634 35<290 345 345 423>
LayerCount: 2
Fore
SplineSet
554 194 m 1
 495 0 l 1
 -11 0 l 1
 -11 29 l 1
 423 634 l 1
 345 634 l 2
 235 634 172 597 93 487 c 1
 65 491 l 1
 122 669 l 1
 590 669 l 1
 590 640 l 1
 156 35 l 1
 226 35 l 2
 314 35 373 49 418 80 c 0
 458 107 496 149 527 199 c 1
 554 194 l 1
EndSplineSet
Validated: 1
EndChar

StartChar: bracketleft
Encoding: 91 91 60
Width: 333
Flags: MW
HStem: -159 35<111 182> 639 35<268 286 286 355>
LayerCount: 2
Fore
SplineSet
355 639 m 1
 286 639 l 2
 250 639 248 636 234 576 c 2
 76 -100 l 2
 75 -104 79 -113 83 -117 c 0
 88 -122 96 -124 111 -124 c 2
 189 -124 l 1
 182 -159 l 1
 -37 -159 l 1
 162 674 l 1
 362 674 l 1
 355 639 l 1
EndSplineSet
Validated: 1
EndChar

StartChar: backslash
Encoding: 92 92 61
Width: 278
Flags: MW
HStem: -18 21G<195 279 195 195> 665 20G<-1 84 84 84>
LayerCount: 2
Fore
SplineSet
-1 685 m 1
 84 685 l 1
 279 -18 l 1
 195 -18 l 1
 -1 685 l 1
EndSplineSet
Validated: 1
EndChar

StartChar: bracketright
Encoding: 93 93 62
Width: 333
Flags: HMW
HStem: -157 35<-49 19 19 37 -49 143 -56 19> 639 35<123 194 116 343>
LayerCount: 2
Fore
SplineSet
-49 -122 m 1
 19 -122 l 2
 55 -122 57 -119 71 -61 c 2
 229 616 l 2
 232 628 216 639 194 639 c 2
 116 639 l 1
 123 674 l 1
 343 674 l 1
 143 -157 l 1
 -56 -157 l 1
 -49 -122 l 1
EndSplineSet
Validated: 33
EndChar

StartChar: asciicircum
Encoding: 94 94 63
Width: 570
Flags: MW
HStem: 649 20G<245 325 325 325>
LayerCount: 2
Fore
SplineSet
156 304 m 1
 67 304 l 1
 245 669 l 1
 325 669 l 1
 503 304 l 1
 414 304 l 1
 285 576 l 1
 156 304 l 1
EndSplineSet
Validated: 1
EndChar

StartChar: underscore
Encoding: 95 95 64
Width: 500
Flags: MW
HStem: -125 50<0 500 0 500>
LayerCount: 2
Fore
SplineSet
500 -125 m 1
 0 -125 l 1
 0 -75 l 1
 500 -75 l 1
 500 -125 l 1
EndSplineSet
Validated: 1
EndChar

StartChar: a
Encoding: 97 97 65
Width: 500
GlyphClass: 5
Flags: MW
HStem: -14 71<285.5 374> 420 42<225 273 181 279>
VStem: -21 123<102 149.5 102 179.5> 237 113<33.5 110>
LayerCount: 2
Fore
SplineSet
455 112 m 1
 425 64 367 -14 304 -14 c 0
 267 -14 237 15 237 52 c 0
 237 73 244 95 250 115 c 1
 248 114 l 1
 213 55 164 -13 88 -13 c 0
 11 -13 -21 48 -21 117 c 0
 -21 242 112 462 250 462 c 0
 296 462 319 437 325 394 c 1
 327 394 l 1
 344 449 l 1
 455 456 l 1
 440 406 350 148 350 72 c 0
 350 65 355 57 363 57 c 0
 385 57 422 111 434 127 c 1
 455 112 l 1
303 371 m 0
 303 393 292 420 266 420 c 0
 184 420 102 184 102 115 c 0
 102 89 116 58 146 58 c 0
 234 58 303 300 303 371 c 0
EndSplineSet
Validated: 1
Substitution2: "'ordn' Ordinals in Latin lookup 43 subtable" ordfeminine
Substitution2: "'ordn' Ordinals in Cyrillic lookup 41 subtable" ordfeminine
Substitution2: "'ordn' Ordinals lookup 39 subtable" ordfeminine
EndChar

StartChar: b
Encoding: 98 98 66
Width: 500
Flags: MW
HStem: -13 33<131.5 196.5 131.5 205.5> 394 68<231 365>
VStem: 319 125<281.5 341.5>
LayerCount: 2
Fore
SplineSet
319 326 m 0
 319 357 312 394 273 394 c 0
 189 394 109 113 109 51 c 0
 109 30 122 20 141 20 c 0
 252 20 319 237 319 326 c 0
76 642 m 1
 76 669 l 1
 165 679 214 686 284 699 c 1
 194 371 l 1
 245 438 281 462 332 462 c 0
 398 462 444 411 444 338 c 0
 444 159 287 -13 124 -13 c 0
 59 -13 -14 19 -14 47 c 0
 -14 52 -3 96 6 128 c 2
 100 455 l 2
 126 546 139 599 139 612 c 0
 139 635 125 642 76 642 c 1
EndSplineSet
Validated: 1
EndChar

StartChar: c
Encoding: 99 99 67
Width: 444
GlyphClass: 5
Flags: MW
HStem: -13 64<168.5 194> 429 33<226 275>
VStem: -5 128<124.5 183 124.5 211> 293 99<405 405.5 354.5 418>
LayerCount: 2
Fore
SplineSet
392 374 m 0
 392 335 371 302 329 302 c 0
 299 302 272 323 272 354 c 0
 272 381 293 398 293 412 c 0
 293 424 280 429 270 429 c 0
 182 429 123 218 123 148 c 0
 123 101 141 51 196 51 c 0
 251 51 290 100 318 141 c 1
 346 123 l 1
 294 48 244 -13 144 -13 c 0
 54 -13 -5 52 -5 141 c 0
 -5 281 128 462 277 462 c 0
 331 462 392 437 392 374 c 0
EndSplineSet
Validated: 1
EndChar

StartChar: d
Encoding: 100 100 68
Width: 500
GlyphClass: 5
Flags: HMW
HStem: -13 72<50 185> 420 42<227 264 179 284>
VStem: -21 124<105.5 154 105.5 176> 240 109<31 85>
LayerCount: 2
Fore
SplineSet
517 699 m 1
 406 294 l 2
 396 258 349 97 349 73 c 0
 349 66 353 59 361 59 c 0
 381 59 417 114 427 131 c 1
 449 115 l 1
 418 64 366 -11 300 -11 c 0
 263 -11 240 12 240 50 c 0
 240 72 245 94 250 115 c 1
 248 114 l 1
 212 53 164 -13 85 -13 c 0
 15 -13 -21 51 -21 114 c 0
 -21 238 110 462 248 462 c 0
 280 462 301 452 323 429 c 1
 331 458 370 591 370 613 c 0
 370 640.523809524 345.097505669 643.145124717 322.878738797 643.145124717 c 0
 317.650793651 643.145124717 312.571428571 643 308 643 c 1
 308 670 l 1
 378 676 448 683 517 699 c 1
308 368 m 0
 308 391 298 420 270 420 c 0
 184 420 103 190 103 118 c 0
 103 93 114 59 145 59 c 0
 225 59 308 300 308 368 c 0
EndSplineSet
Validated: 524289
EndChar

StartChar: e
Encoding: 101 101 69
Width: 444
GlyphClass: 5
Flags: MW
HStem: -13 64<176.5 202.5> 429 33<243.5 288>
VStem: 5 130<109.5 141.5 109.5 214.5> 306 92<347.5 401.5 315 404.5>
LayerCount: 2
Fore
SplineSet
398 372 m 0
 398 258 230 196 141 182 c 1
 137 166 135 150 135 133 c 0
 135 86 151 51 202 51 c 0
 255 51 291 103 317 142 c 1
 346 125 l 1
 301 51 250 -13 155 -13 c 0
 65 -13 5 52 5 141 c 0
 5 288 141 462 295 462 c 0
 349 462 398 431 398 372 c 0
306 395 m 0
 306 414 299 429 277 429 c 0
 210 429 160 267 148 214 c 1
 235 237 306 300 306 395 c 0
EndSplineSet
Validated: 1
EndChar

StartChar: f
Encoding: 102 102 70
Width: 333
GlyphClass: 5
Flags: MW
HStem: -205 31<-71.5 -36 -71.5 13.5> 407 42<48 112 39 121 236 319> 669 29<312.5 349.5>
VStem: -169 85<-166.5 -109> 346 100<602.5 624>
LayerCount: 2
Fore
SplineSet
446 618 m 0
 446 587 425 565 394 565 c 0
 366 565 346 588 346 615 c 0
 346 633 362 649 362 655 c 0
 362 665 354 669 345 669 c 0
 280 669 248 495 236 449 c 1
 328 449 l 1
 319 407 l 1
 229 407 l 1
 212 326 195 245 176 165 c 0
 146 37 99 -205 -72 -205 c 0
 -126 -205 -169 -179 -169 -121 c 0
 -169 -97 -142 -72 -118 -72 c 0
 -92 -72 -68 -95 -68 -121 c 0
 -68 -140 -84 -157 -84 -162 c 0
 -84 -171 -75 -174 -68 -174 c 0
 -4 -174 14 -30 24 15 c 0
 53 146 80 277 112 407 c 1
 39 407 l 1
 48 449 l 1
 121 449 l 1
 150 563 211 698 348 698 c 0
 399 698 446 674 446 618 c 0
EndSplineSet
Validated: 1
EndChar

StartChar: g
Encoding: 103 103 71
Width: 500
GlyphClass: 5
Flags: MW
HStem: -203 34<120.5 167 120.5 176.5> -26 20G<98.5 117.5> 153 31<188.5 229 176 248.5> 373 56<411 478 411 411> 431 31<221 271>
VStem: -52 87<-118 -75.5 -118 -63> 35 116<256 274.5 233 340.5> 266 109<-113 -85.5> 300 117<272 383.5>
LayerCount: 2
Fore
SplineSet
478 373 m 1xfd
 411 373 l 1
 415 359 417 345 417 330 c 0xfa80
 417 214 300 153 197 153 c 0
 180 153 165 161 149 161 c 0
 136 161 122 139 122 127 c 0
 122 60 375 91 375 -55 c 0
 375 -171 221 -203 132 -203 c 0
 69 -203 -52 -183 -52 -100 c 0
 -52 -26 19 -8 78 6 c 1
 78 8 l 1
 48 18 19 37 19 72 c 0
 19 124 76 148 115 170 c 1
 65 189 35 229 35 283 c 0
 35 398 158 462 259 462 c 0
 297 462 337 453 367 429 c 1
 478 429 l 1
 478 373 l 1xfd
300 369 m 0
 300 398 288 431 254 431 c 0
 188 431 151 301 151 248 c 0
 151 218 157 184 195 184 c 0
 263 184 300 315 300 369 c 0
266 -99 m 0xfd
 266 -72 248 -54 225 -43 c 0
 214 -38 122 -6 113 -6 c 0
 84 -6 35 -61 35 -90 c 0
 35 -146 97 -169 144 -169 c 0
 190 -169 266 -160 266 -99 c 0xfd
EndSplineSet
Validated: 1
EndChar

StartChar: h
Encoding: 104 104 72
Width: 556
Flags: HMW
HStem: -9 68<311.5 411> 390 72<308 423.5>
VStem: 265 119<72 96.5 72 98>
LayerCount: 2
Fore
SplineSet
498 127 m 1
 459 65 412 -9 330 -9 c 0
 293 -9 265 14 265 52 c 0
 265 144 353 315 353 367 c 0
 353 381 344 390 330 390 c 0
 286 390 231 302 209 268 c 0
 164 199 131 80 108 0 c 1
 -13 0 l 1
 141 567 l 2
 145 581 149 595 149 609 c 0
 149 637.621149947 127.458635446 642.905821627 105.204913937 642.905821627 c 0
 98.6901304303 642.905821627 92.1142959844 642.452910814 86 642 c 1
 86 669 l 1
 156 675 225 685 294 699 c 1
 188 289 l 1
 190 288 l 1
 233 352 309 462 397 462 c 0
 450 462 475 435 475 381 c 0
 475 317 384 117 384 76 c 0
 384 68 393 59 401 59 c 0
 421 59 464 125 476 142 c 1
 498 127 l 1
EndSplineSet
Validated: 524289
EndChar

StartChar: i
Encoding: 105 105 73
Width: 278
GlyphClass: 3
Flags: HMW
HStem: -9 70<50 151> 550 135<176.5 212.5 176.5 213>
VStem: 2 121<72 96.5> 128 135<599.5 635.5 598.5 636.5>
LayerCount: 2
Fore
SplineSet
238 127 m 1
 199 67 152 -9 71 -9 c 0
 29 -9 2 16 2 58 c 0
 2 135 80 312 80 375 c 0
 80 403.107169771 54.6093161265 407.274551889 32.250781334 407.274551889 c 0
 28.3586600067 407.274551889 24.5584219849 407.148267583 21 407 c 1
 21 434 l 1
 88 439 157 447 223 462 c 1
 206 399 123 123 123 76 c 0
 123 68 130 61 138 61 c 0
 164 61 203 121 216 141 c 1
 238 127 l 1
194 685 m 0
 231 685 263 654 263 617 c 0
 263 580 232 550 194 550 c 0
 157 550 128 580 128 619 c 0
 128 654 159 685 194 685 c 0
EndSplineSet
Validated: 524289
Substitution2: "Single Substitution lookup 65 subtable" dotlessi
Ligature2: "'ccmp' Glyph Composition/Decomposition in Latin lookup 49 subtable" i dotabovecomb
EndChar

StartChar: j
Encoding: 106 106 74
Width: 278
GlyphClass: 5
Flags: HMW
HStem: -207 31<-86.5 -61 -86.5 -20> 550 135<192.5 229 192.5 229>
VStem: -189 98<-136.5 -116.5> 144 135<599.5 635.5 598.5 636.5>
LayerCount: 2
Fore
SplineSet
239 462 m 1
 125 24 l 2
 98 -80 43 -207 -83 -207 c 0
 -131 -207 -189 -186 -189 -130 c 0
 -189 -103 -168 -77 -140 -77 c 0
 -113 -77 -91 -99 -91 -126 c 0
 -91 -147 -106 -156 -106 -164 c 0
 -106 -171 -89 -176 -84 -176 c 0
 -38 -176 -20 -78 -11 -45 c 2
 81 310 l 2
 86 331 93 354 93 376 c 0
 93 402.862665288 71.7937140332 407.92998111 50.1781569 407.92998111 c 0
 43.6302949699 407.92998111 37.0448772147 407.464990555 31 407 c 1
 31 434 l 1
 101 440 170 447 239 462 c 1
210 685 m 0
 248 685 279 654 279 617 c 0
 279 580 248 550 210 550 c 0
 173 550 144 580 144 619 c 0
 144 654 175 685 210 685 c 0
EndSplineSet
Validated: 524289
Substitution2: "Single Substitution lookup 65 subtable" uniF6BE
EndChar

StartChar: k
Encoding: 107 107 75
Width: 500
GlyphClass: 5
Flags: MW
HStem: -8 71<280 372.5> 429 20G<276 483 483 483>
LayerCount: 2
Fore
SplineSet
149 188 m 1
 99 0 l 1
 -23 0 l 1
 133 567 l 2
 138 586 141 600 141 609 c 0
 141 632 127 643 99 643 c 0
 95 643 86 643 78 642 c 1
 78 669 l 1
 157 677 209 685 286 699 c 1
 163 239 l 1
 289 338 327 375 327 401 c 0
 327 417 315 422 276 424 c 1
 276 449 l 1
 483 449 l 1
 483 424 l 1
 437 418 416 406 348 348 c 2
 285 293 l 1
 323 98 335 63 363 63 c 0
 382 63 398 80 425 127 c 1
 447 116 l 1
 397 25 361 -8 311 -8 c 0
 249 -8 219 45 188 215 c 1
 149 188 l 1
EndSplineSet
Validated: 1
EndChar

StartChar: l
Encoding: 108 108 76
Width: 278
GlyphClass: 5
Flags: HMW
HStem: -9 70<47.5 151>
VStem: 2 121<72 86.5>
LayerCount: 2
Fore
SplineSet
290 699 m 1
 145 176 l 2
 138 152 123 99 123 76 c 0
 123 68 131 61 138 61 c 0
 164 61 203 121 216 141 c 1
 238 127 l 1
 198 66 152 -9 70 -9 c 0
 25 -9 2 14 2 58 c 0
 2 115 94 415 115 490 c 0
 121 513 144 591 144 613 c 0
 144 638.111491178 120.837943464 642.956182887 99.6298344576 642.956182887 c 0
 92.9675317773 642.956182887 86.4980516029 642.478091444 81 642 c 1
 81 669 l 1
 151 675 221 686 290 699 c 1
EndSplineSet
Validated: 524289
EndChar

StartChar: m
Encoding: 109 109 77
Width: 778
Flags: HMW
HStem: -9 68<543.5 642> 389 73<313 409>
VStem: 337 118<347.5 415.5> 495 120<69 100.5> 583 121<340 373>
LayerCount: 2
Fore
SplineSet
722 122 m 1xf0
 688 63 642 -9 565 -9 c 0
 522 -9 495 9 495 56 c 0xf0
 495 145 583 314 583 366 c 0
 583 380 573 389 559 389 c 0
 518 389 467 306 448 273 c 0
 400 189 375 92 347 0 c 1
 227 0 l 1
 240 43 337 330 337 365 c 0
 337 376 331 389 318 389 c 0
 308 389 290 376 283 371 c 0
 192 298 134 106 107 0 c 1
 -14 0 l 1
 1 56 88 338 88 381 c 0
 88 403.800530531 64.7917771207 407.371390676 45.9132390262 407.371390676 c 0
 41.6081469887 407.371390676 37.5282114254 407.185695338 34 407 c 1
 34 434 l 1
 102 440 168 446 234 461 c 1
 174 275 l 1
 177 273 l 1
 222 343 294 462 389 462 c 0
 429 462 455 436 455 395 c 0
 455 361 444 330 432 299 c 1
 433 297 l 1
 474 363 537 462 625 462 c 0
 674 462 704 432 704 383 c 0xe8
 704 295 615 143 615 74 c 0
 615 64 623 59 632 59 c 0
 652 59 689 119 700 135 c 1
 722 122 l 1xf0
EndSplineSet
Validated: 524289
EndChar

StartChar: n
Encoding: 110 110 78
Width: 556
GlyphClass: 5
Flags: HMW
HStem: -9 68<314.5 413.5> 390 72<278.5 424>
VStem: 354 120<343.5 374.5>
LayerCount: 2
Fore
SplineSet
493 122 m 1
 459 64 412 -9 336 -9 c 0
 293 -9 266 10 266 56 c 0
 266 143 354 319 354 368 c 0
 354 381 341 390 329 390 c 0
 228 390 132 65 115 0 c 1
 -6 0 l 1
 8 52 96 346 96 381 c 0
 96 403.800530531 72.7917771207 407.371390676 53.9132390262 407.371390676 c 0
 49.6081469887 407.371390676 45.5282114254 407.185695338 42 407 c 1
 42 434 l 1
 107 434 179 447 242 461 c 1
 182 275 l 1
 185 273 l 1
 233 344 301 462 398 462 c 0
 450 462 474 437 474 383 c 0
 474 298 387 137 387 77 c 0
 387 68 392 59 402 59 c 0
 425 59 460 118 471 135 c 1
 493 122 l 1
EndSplineSet
Validated: 524289
EndChar

StartChar: o
Encoding: 111 111 79
Width: 500
GlyphClass: 5
Flags: MW
HStem: -13 29<146 216 146 230.5> 433 29<222.5 293>
VStem: -3 119<92.5 126 68 219> 322 119<331.5 355 226.5 385.5>
LayerCount: 2
Fore
SplineSet
322 369 m 0
 322 402 312 433 274 433 c 0
 171 433 116 166 116 86 c 0
 116 50 124 16 168 16 c 0
 264 16 322 294 322 369 c 0
284 462 m 0
 375 462 441 399 441 311 c 0
 441 142 305 -13 156 -13 c 0
 64 -13 -3 50 -3 135 c 0
 -3 303 137 462 284 462 c 0
EndSplineSet
Validated: 1
Substitution2: "'ordn' Ordinals in Latin lookup 43 subtable" ordmasculine
Substitution2: "'ordn' Ordinals in Cyrillic lookup 41 subtable" ordmasculine
Substitution2: "'ordn' Ordinals lookup 39 subtable" ordmasculine
EndChar

StartChar: p
Encoding: 112 112 80
Width: 500
Flags: MW
HStem: -205 27<-120 -114 -114 -93.5 -120 129 -120 -114> -13 35<158.5 200.5 141.5 236.5> 391 71<216 295>
VStem: 321 125<301.5 352>
LayerCount: 2
Fore
SplineSet
23 407 m 1
 23 434 l 1
 75 440 114 446 216 462 c 1
 178 347 l 1
 237 430 281 462 338 462 c 0
 404 462 446 415 446 341 c 0
 446 168 304 -13 169 -13 c 0
 148 -13 136 -9 101 9 c 1
 90 -32 l 2
 72 -100 64 -133 64 -145 c 0
 64 -169 80 -177 129 -178 c 1
 129 -205 l 1
 -120 -205 l 1
 -120 -178 l 1
 -114 -178 l 2
 -73 -178 -61 -165 -45 -104 c 2
 55 284 l 2
 68 333 77 373 77 382 c 0
 77 401 68 405 23 407 c 1
321 340 m 0
 321 364 309 391 281 391 c 0
 239 391 203 342 186 308 c 0
 170 274 113 94 113 61 c 0
 113 37 130 22 153 22 c 0
 248 22 321 263 321 340 c 0
EndSplineSet
Validated: 1
EndChar

StartChar: q
Encoding: 113 113 81
Width: 500
Flags: HMW
HStem: -205 27<359 371 104 104> -13 72<63 210.5> 419 43<247 295 204.5 303>
VStem: 1 125<108 158 108 190>
LayerCount: 2
Fore
SplineSet
471 449 m 1
 317 -81 l 2
 307 -114 305 -130 305 -145 c 0
 305 -176.41025641 338.82642998 -178.02103879 363.112072017 -178.02103879 c 0
 365.887573964 -178.02103879 368.538461538 -178 371 -178 c 1
 371 -205 l 1
 104 -205 l 1
 104 -178 l 1
 158 -176 178 -170 194 -115 c 2
 254 89 l 1
 252 91 l 1
 220 38 173 -13 106 -13 c 0
 20 -13 1 59 1 130 c 0
 1 250 139 462 270 462 c 0
 320 462 340 441 346 394 c 1
 348 394 l 1
 362 449 l 1
 471 449 l 1
325 369 m 0
 325 392 317 419 289 419 c 0
 205 419 126 193 126 123 c 0
 126 93 128 59 167 59 c 0
 254 59 325 298 325 369 c 0
EndSplineSet
Validated: 524289
EndChar

StartChar: r
Encoding: 114 114 82
Width: 389
GlyphClass: 5
Flags: HMW
HStem: 0 21G<-21 100 -21 -21> 442 20G<227 227 297 349.5>
VStem: 270 119
LayerCount: 2
Fore
SplineSet
389 396 m 0
 389 361 369 323 330 323 c 0
 296 323 284 361 270 361 c 0
 204 361 120 58 100 0 c 1
 -21 0 l 1
 -4 59 81 331 81 380 c 0
 81 405.484848485 55.5151515152 407.029384757 35.0851490108 407.029384757 c 0
 32.2672176309 407.029384757 29.5454545455 407 27 407 c 1
 27 434 l 1
 95 440 161 445 227 462 c 1
 171 284 l 1
 176 282 l 1
 202 334 263 462 331 462 c 0
 368 462 389 431 389 396 c 0
EndSplineSet
Validated: 524289
EndChar

StartChar: s
Encoding: 115 115 83
Width: 389
GlyphClass: 5
Flags: MW
HStem: 7 10 429 33<178.5 198.5 143 225>
VStem: 47 95<343 376.5> 183 96<78.5 111.5>
LayerCount: 2
Fore
SplineSet
333 461 m 1
 310 308 l 1
 283 310 l 1
 275 358 255 429 195 429 c 0
 162 429 142 407 142 375 c 0
 142 311 279 225 279 121 c 0
 279 36 209 -13 129 -13 c 0
 96 -13 67 7 37 7 c 0
 26 7 12 -2 8 -13 c 1
 -19 -13 l 1
 3 153 l 1
 30 150 l 1
 36 97 60 17 126 17 c 0
 157 17 183 40 183 72 c 0
 183 151 47 217 47 337 c 0
 47 416 105 462 181 462 c 0
 216 462 243 440 276 440 c 0
 292 440 297 448 304 461 c 1
 333 461 l 1
EndSplineSet
Validated: 1
Substitution2: "'hist' Historical Forms lookup 44 subtable" longs
EndChar

StartChar: t
Encoding: 116 116 84
Width: 278
GlyphClass: 5
Flags: MW
HStem: -9 70<39.5 138.5> 407 42<209 281 209 281 198 281>
VStem: -11 122<72.5 84>
LayerCount: 2
Fore
SplineSet
281 407 m 1
 198 407 l 1
 182 349 111 120 111 76 c 0
 111 69 119 61 126 61 c 0
 151 61 191 121 203 141 c 1
 225 127 l 1
 188 69 139 -9 61 -9 c 0
 18 -9 -11 15 -11 58 c 0
 -11 110 64 345 81 407 c 1
 30 407 l 1
 30 442 l 1
 111 473 166 521 213 594 c 1
 248 594 l 1
 209 449 l 1
 281 449 l 1
 281 407 l 1
EndSplineSet
Validated: 1
EndChar

StartChar: u
Encoding: 117 117 85
Width: 556
GlyphClass: 5
Flags: MW
HStem: -9 68<314.5 411.5> 429 20G<370 488 488 488>
VStem: 15 119<79 98.5 79 118.5> 266 119<25.5 99.5>
LayerCount: 2
Fore
SplineSet
492 120 m 1
 460 62 407 -9 333 -9 c 0
 296 -9 266 4 266 47 c 0
 266 84 276 119 288 154 c 1
 286 155 l 1
 240 91 181 -9 92 -9 c 0
 37 -9 15 17 15 69 c 0
 15 168 90 283 90 378 c 0
 90 408 55 406 34 407 c 1
 34 434 l 1
 105 437 173 456 243 462 c 1
 149 154 l 2
 142 132 134 110 134 87 c 0
 134 71 141 63 157 63 c 0
 195 63 254 150 271 182 c 0
 317 266 344 358 370 449 c 1
 488 449 l 1
 470 386 385 121 385 78 c 0
 385 68 389 59 400 59 c 0
 423 59 459 114 471 133 c 1
 492 120 l 1
EndSplineSet
Validated: 1
EndChar

StartChar: v
Encoding: 118 118 86
Width: 444
Flags: HMW
HStem: -13 21G<85 111 85 85> 442 20G<323.5 356>
VStem: 90 112 284 117<382.5 411.5 329 419>
LayerCount: 2
Fore
SplineSet
401 394 m 0
 401 264 199 69 111 -13 c 1
 85 -13 l 1
 87 47 90 107 90 167 c 0
 90 228 88 293 75 352 c 0
 66.3151236254 393.494409345 62.2862396979 407.052864008 20.6794419119 407.052864008 c 0
 19.1697733345 407.052864008 17.6106318634 407.035013736 16 407 c 1
 16 434 l 1
 68 442 120 449 171 462 c 1
 201 354 200 239 202 128 c 1
 233 162 328 265 328 315 c 0
 328 348 284 360 284 405 c 0
 284 433 309 462 338 462 c 0
 374 462 401 429 401 394 c 0
EndSplineSet
Validated: 524289
EndChar

StartChar: w
Encoding: 119 119 87
Width: 667
Flags: HMW
HStem: -13 21G<95 122 95 95 315 342 315 315> 442 20G<360 387 387 387 537.5 571>
VStem: 497 117<383.5 414.5 339.5 418>
LayerCount: 2
Fore
SplineSet
614 397 m 0
 614 282 423 71 342 -13 c 1
 315 -13 l 1
 292 269 l 1
 290 269 l 1
 242 171 182 78 122 -13 c 1
 95 -13 l 1
 96 15 97 44 97 72 c 0
 97 163 96 263 76 352 c 0
 66.6445122137 393.16414626 63.4157850478 407.195495486 24.5529536187 407.195495486 c 0
 21.8756405714 407.195495486 19.0292074043 407.128902443 16 407 c 1
 16 434 l 1
 68 441 119 452 171 462 c 1
 195 373 203 282 204 190 c 1
 206 190 l 1
 257 281 305 374 360 462 c 1
 387 462 l 1
 419 130 l 1
 448 164 538 266 538 309 c 0
 538 344 497 364 497 403 c 0
 497 433 522 462 553 462 c 0
 589 462 614 432 614 397 c 0
EndSplineSet
Validated: 524289
EndChar

StartChar: x
Encoding: 120 120 88
Width: 500
Flags: HMW
HStem: -13 77<236 346.5> -13 115<-2 24 -6.5 56.5> 368 94
LayerCount: 2
Fore
SplineSet
469 400 m 0x60
 469 371 441 348 413 348 c 0
 387 348 377 368 354 368 c 0
 319 368 282 299 264 273 c 1
 296 117 l 2
 300 96 306 64 334 64 c 0xa0
 359 64 386 105 400 123 c 1
 421 109 l 1
 389 62 335 -13 272 -13 c 0
 200 -13 182 88 173 142 c 1
 137 83 97 -13 16 -13 c 0
 -20 -13 -46 11 -46 47 c 0
 -46 78 -22 102 9 102 c 0
 39 102 52 81 71 81 c 0
 105 81 149 172 162 192 c 1
 132 346 l 2
 121.561992979 399.795882337 107.900554285 412.976525589 71.8632302216 412.976525589 c 0
 63.0179237315 412.976525589 52.8245829814 412.182458298 41 411 c 1
 41 438 l 1
 208 462 l 1
 235 425 244 368 253 324 c 1
 289 375 343 462 414 462 c 0
 445 462 469 429 469 400 c 0x60
EndSplineSet
Validated: 524289
EndChar

StartChar: y
Encoding: 121 121 89
Width: 444
GlyphClass: 5
Flags: HMW
HStem: -205 115<-51 -23 -56 28.5> 442 20G<314.5 345.5>
VStem: 273 119<374.5 416.5 351.5 420.5>
LayerCount: 2
Fore
SplineSet
392 400 m 0
 392 303 306 145 254 60 c 0
 196 -34 92 -205 -35 -205 c 0
 -67 -205 -94 -177 -94 -145 c 0
 -94 -115 -71 -90 -41 -90 c 0
 -5 -90 25 -125 51 -125 c 0
 92 -125 142 -43 142 -6 c 0
 142 76 115 178 97 259 c 0
 86.0525723883 307.765813907 80.0574659052 411.007160229 14.9421985639 411.007160229 c 0
 14.6294981524 411.007160229 14.3154343298 411.004779308 14 411 c 1
 14 438 l 1
 64 442 114 449 163 462 c 1
 206 355 222 226 241 113 c 1
 243 113 l 1
 264 153 328 270 328 313 c 0
 328 357 273 343 273 406 c 0
 273 435 300 462 329 462 c 0
 362 462 392 433 392 400 c 0
EndSplineSet
Validated: 524289
EndChar

StartChar: z
Encoding: 122 122 90
Width: 389
Flags: MW
HStem: -78 29<216 246 216 264> 353 96<85.5 104 104 249>
VStem: 263 83<-39 26>
LayerCount: 2
Fore
SplineSet
368 439 m 1
 87 104 l 1
 196 61 190 -49 242 -49 c 0
 250 -49 263 -44 263 -34 c 0
 263 -20 243 -13 243 15 c 0
 243 41 266 65 292 65 c 0
 322 65 346 41 346 11 c 0
 346 -45 289 -78 239 -78 c 0
 143 -78 89 5 35 5 c 0
 14 5 -2 -11 -18 -23 c 1
 -43 -1 l 1
 249 353 l 1
 104 353 l 2
 67 353 52 322 41 292 c 1
 13 295 l 1
 56 449 l 1
 368 449 l 1
 368 439 l 1
EndSplineSet
Validated: 1
EndChar

StartChar: braceleft
Encoding: 123 123 91
Width: 348
Flags: MW
HStem: -187 12<210 213> 674 12<433 433>
VStem: 28 104<-109 -84 -120 -81.5> 89 102<167 194 161.5 196.5>
LayerCount: 2
Fore
SplineSet
436 686 m 1xe0
 433 674 l 1
 352 659 315 626 295 550 c 2
 250 379 l 2
 227 294 197 268 99 249 c 1
 174 229 191 215 191 173 c 0xd0
 191 150 181 103 162 43 c 0
 143 -20 132 -71 132 -97 c 0
 132 -143 154 -164 213 -175 c 1
 210 -187 l 1
 117 -185 78 -177 53 -156 c 0
 36 -141 28 -122 28 -96 c 0xe0
 28 -67 44 8 63 63 c 0
 79 111 89 155 89 179 c 0
 89 214 67 233 5 249 c 1
 94 268 122 293 142 365 c 2
 188 544 l 2xd0
 219 653 277 686 436 686 c 1xe0
EndSplineSet
Validated: 1
EndChar

StartChar: bar
Encoding: 124 124 92
Width: 220
Flags: MW
HStem: -18 21G<66 66 66 154> 665 20G<66 154 154 154>
VStem: 66 88<-18 685 -18 685>
LayerCount: 2
Fore
SplineSet
66 -18 m 1
 66 685 l 1
 154 685 l 1
 154 -18 l 1
 66 -18 l 1
EndSplineSet
Validated: 1
EndChar

StartChar: braceright
Encoding: 125 125 93
Width: 348
Flags: MW
HStem: -187 12<-126 -126 -126 -49.5> 674 12<94 97>
VStem: 116 102<305 332 302.5 337> 175 104<584.5 609.5 582.5 619>
LayerCount: 2
Fore
SplineSet
-129 -187 m 1xd0
 -126 -175 l 1
 -45 -160 -8 -127 12 -51 c 2
 57 120 l 2
 80 205 110 231 208 250 c 1
 133 270 116 284 116 326 c 0xe0
 116 348 125 390 144 456 c 0
 165 526 175 572 175 597 c 0
 175 641 151 663 94 674 c 1
 97 686 l 1
 190 684 229 676 254 655 c 0
 271 640 279 621 279 598 c 0xd0
 279 567 263 493 244 436 c 0
 228 388 218 344 218 320 c 0
 218 285 240 266 302 250 c 1
 213 230 185 206 165 134 c 2
 119 -45 l 2xe0
 88 -154 30 -187 -129 -187 c 1xd0
EndSplineSet
Validated: 1
EndChar

StartChar: asciitilde
Encoding: 126 126 94
Width: 570
Flags: MW
HStem: 175 88<384 404.5 384 416> 243 88<161.5 193.5>
LayerCount: 2
Fore
SplineSet
461 308 m 1x80
 516 260 l 1
 470 197 439 175 393 175 c 0x80
 360 175 334 183 288 208 c 0
 242 233 211 243 176 243 c 0
 147 243 131 233 107 201 c 1
 54 247 l 1
 87 305 125 331 175 331 c 0x40
 212 331 233 324 311 290 c 0
 360 268 375 263 393 263 c 0
 416 263 436 276 461 308 c 1x80
EndSplineSet
Validated: 1
EndChar

StartChar: exclamdown
Encoding: 161 161 95
Width: 389
Flags: MW
HStem: -205 21G<67.5 103> 348 146<228 267.5>
VStem: 174 146<403 443>
LayerCount: 2
Fore
SplineSet
193 275 m 1
 222 267 l 1
 192 114 173 -11 169 -86 c 0
 167 -128 165 -141 157 -159 c 0
 143 -188 118 -205 88 -205 c 0
 47 -205 19 -176 19 -131 c 0
 19 -105 24 -89 50 -43 c 0
 106 66 151 167 193 275 c 1
248 494 m 0
 290 494 320 464 320 423 c 0
 320 381 288 348 247 348 c 0
 209 348 174 383 174 423 c 0
 174 463 207 494 248 494 c 0
EndSplineSet
Validated: 1
EndChar

StartChar: cent
Encoding: 162 162 96
Width: 500
Flags: MW
HStem: 429 33<301.5 323.5>
VStem: 42 127<138.5 175.5 138.5 218.5>
LayerCount: 2
Fore
SplineSet
431 576 m 1
 386 449 l 1
 422 429 439 404 439 370 c 0
 439 331 411 302 374 302 c 0
 360 302 349 306 339 313 c 1
 247 52 l 1
 289 54 324 81 365 141 c 1
 392 123 l 1
 329 33 292 3 225 -10 c 1
 178 -143 l 1
 144 -143 l 1
 190 -13 l 1
 96 -7 42 48 42 138 c 0
 42 299 185 462 327 462 c 0
 336 462 343 461 355 459 c 1
 396 576 l 1
 431 576 l 1
214 57 m 1
 339 413 l 2
 342 421 330 429 317 429 c 0
 286 429 259 406 231 356 c 0
 195 293 169 204 169 147 c 0
 169 130 173 108 180 92 c 0
 187 76 194 68 214 57 c 1
EndSplineSet
Validated: 1
EndChar

StartChar: sterling
Encoding: 163 163 97
Width: 500
Flags: MW
HStem: -12 104<303 304> -11 30<37.5 69 37.5 79.5> 120 42<35.5 60> 310 60<45 144 35 150 280 384> 649 34<372.5 386>
VStem: -32 30<55 85 55 101>
LayerCount: 2
Fore
SplineSet
394 370 m 1x7c
 384 310 l 1
 269 310 l 1
 256 252 231 184 205 141 c 2
 194 124 l 1
 254 101 287 92 319 92 c 0
 367 92 387 106 409 155 c 1
 434 155 l 1
 422 98 411 71 390 43 c 0
 365 8 325 -12 283 -12 c 0xbc
 241 -12 208 4 156 49 c 1
 129 6 101 -11 58 -11 c 0
 5 -11 -32 25 -32 75 c 0
 -32 127 7 162 64 162 c 0
 85 162 100 159 125 148 c 1
 132 215 134 226 144 310 c 1
 35 310 l 1
 45 370 l 1
 150 370 l 1
 175 494 199 551 248 607 c 0
 290 656 344 683 401 683 c 0
 464 683 510 644 510 592 c 0
 510 554 483 524 449 524 c 0
 419 524 396 546 396 575 c 0
 396 585 398 597 400 609 c 0
 402 616 403 623 403 628 c 0
 403 640 393 649 379 649 c 0
 350 649 329 622 319 572 c 2
 280 370 l 1
 394 370 l 1x7c
113 90 m 1
 91 111 71 120 49 120 c 0
 18 120 -2 100 -2 70 c 0
 -2 40 21 19 54 19 c 0
 84 19 102 41 113 90 c 1
EndSplineSet
Validated: 1
EndChar

StartChar: currency
Encoding: 164 164 98
Width: 500
Flags: MW
HStem: 95 82<228 272> 443 82<227 273 227 285.5>
VStem: 35 88<286.5 333> 377 88<286.5 333 286.5 345.5>
LayerCount: 2
Fore
SplineSet
-26 92 m 1
 72 190 l 1
 46 228 35 263 35 310 c 0
 35 356 46 393 72 432 c 1
 -26 530 l 1
 32 586 l 1
 128 490 l 1
 168 515 204 525 250 525 c 0
 296 525 332 515 372 490 c 1
 468 586 l 1
 526 530 l 1
 428 432 l 1
 455 389 465 356 465 310 c 0
 465 263 454 226 428 190 c 1
 526 92 l 1
 468 34 l 1
 372 132 l 1
 331 106 294 95 250 95 c 0
 206 95 169 106 128 132 c 1
 32 34 l 1
 -26 92 l 1
250 443 m 0
 179 443 123 385 123 310 c 0
 123 236 179 177 250 177 c 0
 319 177 377 237 377 308 c 0
 377 383 321 443 250 443 c 0
EndSplineSet
Validated: 1
EndChar

StartChar: yen
Encoding: 165 165 99
Width: 500
Flags: MW
HStem: 0 21G<46 368 46 46> 164 50<47 174 33 188 320 458> 292 50<82 207 82 210 68 207 369 491> 649 20G<46 326 326 326 428 628 628 628>
LayerCount: 2
Fore
SplineSet
504 342 m 1
 491 292 l 1
 341 292 l 1
 320 214 l 1
 472 214 l 1
 458 164 l 1
 306 164 l 1
 303 153 l 2
 291 110 287 87 287 68 c 0
 287 36 301 28 368 25 c 1
 368 0 l 1
 46 0 l 1
 46 25 l 1
 123 30 137 40 155 97 c 2
 174 164 l 1
 33 164 l 1
 47 214 l 1
 188 214 l 1
 210 292 l 1
 68 292 l 1
 82 342 l 1
 207 342 l 1
 128 581 l 2
 108 632 101 638 46 644 c 1
 46 669 l 1
 326 669 l 1
 326 644 l 1
 269 642 251 635 251 612 c 0
 251 603 253 592 257 580 c 2
 337 344 l 1
 472 538 l 2
 492 567 498 580 498 598 c 0
 498 633 484 642 428 644 c 1
 428 669 l 1
 628 669 l 1
 628 644 l 1
 588 636 569 621 535 575 c 2
 369 342 l 1
 504 342 l 1
EndSplineSet
Validated: 1
EndChar

StartChar: brokenbar
Encoding: 166 166 100
Width: 220
Flags: MW
HStem: -18 21G<66 66 66 154> 665 20G<66 154 154 154>
VStem: 66 88<-18 241 -18 241 426 685>
LayerCount: 2
Fore
SplineSet
66 -18 m 1
 66 241 l 1
 154 241 l 1
 154 -18 l 1
 66 -18 l 1
66 426 m 1
 66 685 l 1
 154 685 l 1
 154 426 l 1
 66 426 l 1
EndSplineSet
Validated: 1
EndChar

StartChar: section
Encoding: 167 167 101
Width: 500
Flags: MW
HStem: -143 23<165 207 165 227> 121 27<286 320.5 313 320.5 294 350> 400 25<143.5 224> 663 22<298.5 338.5>
VStem: 36 79<-98.5 -20.5> 68 71<331.5 333.5> 168 70<574 590.5> 268 77<-46.5 -27.5> 364 71<210 239.5> 382 77<569.5 642.5>
LayerCount: 2
Fore
SplineSet
288 125 m 1xf380
 286 121 l 1
 329 67 345 33 345 -9 c 0
 345 -84 273 -143 181 -143 c 0
 99 -143 36 -97 36 -38 c 0
 36 -3 61 22 94 22 c 0
 126 22 150 1 150 -28 c 0
 150 -48 144 -59 128 -73 c 0
 118 -81 115 -86 115 -91 c 0xfb80
 115 -106 148 -120 182 -120 c 0
 232 -120 268 -88 268 -44 c 0
 268 -11 256 9 185 95 c 2
 119 175 l 2
 84 217 68 256 68 299 c 0
 68 368 115 425 172 425 c 0
 184 425 209 422 221 419 c 1
 223 422 l 1
 188 461 168 507 168 551 c 0
 168 630 232 685 323 685 c 0
 402 685 459 644 459 587 c 0
 459 552 434 526 401 526 c 0
 371 526 346 551 346 580 c 0
 346 595 352 605 368 618 c 0
 378 625 382 630 382 635 c 0xf740
 382 650 354 663 323 663 c 0
 274 663 238 633 238 590 c 0
 238 558 256 526 306 467 c 2
 375 386 l 2
 413 341 435 290 435 243 c 0
 435 177 382 121 318 121 c 0
 308 121 300 122 288 125 c 1xf380
195 400 m 0
 164 400 139 374 139 342 c 0xf780
 139 321 151 291 168 266 c 0
 192 233 220 200 243 179 c 0
 267 156 283 148 305 148 c 0
 336 148 364 175 364 206 c 0
 364 273 253 400 195 400 c 0
EndSplineSet
Validated: 1
EndChar

StartChar: dieresis
Encoding: 168 168 102
Width: 333
GlyphClass: 5
Flags: MW
HStem: 525 130<102 136.5 314 348.5>
VStem: 55 130<572 607> 267 130<572 607>
LayerCount: 2
Fore
SplineSet
119 655 m 0
 155 655 185 625 185 589 c 0
 185 555 154 525 119 525 c 0
 85 525 55 555 55 589 c 0
 55 625 84 655 119 655 c 0
331 655 m 0
 367 655 397 625 397 589 c 0
 397 555 366 525 331 525 c 0
 297 525 267 555 267 589 c 0
 267 625 296 655 331 655 c 0
EndSplineSet
Validated: 1
EndChar

StartChar: copyright
Encoding: 169 169 103
Width: 747
Flags: MW
HStem: -18 46<295 450 295 468.5> 140 23<359 412.5> 518 20<357 423 337 430.5> 639 46<296.5 451>
VStem: 30 61<250.5 417 250.5 430.5> 180 85<285 396> 657 61<249 417>
LayerCount: 2
Fore
SplineSet
526 250 m 1
 544 250 l 1
 527 178 l 2
 525 168 524 167 515 164 c 0
 487 152 429 140 396 140 c 0
 262 140 180 214 180 335 c 0
 180 457 269 538 405 538 c 0
 441 538 468 533 505 520 c 0
 520 514 527 508 527 499 c 2
 527 428 l 1
 510 428 l 1
 497 488 461 518 400 518 c 0
 314 518 265 454 265 342 c 0
 265 228 315 163 403 163 c 0
 461 163 497 189 526 250 c 1
374 685 m 0
 566 685 718 530 718 334 c 0
 718 134 568 -18 369 -18 c 0
 182 -18 30 139 30 332 c 0
 30 529 182 685 374 685 c 0
374 639 m 0
 219 639 91 501 91 333 c 0
 91 168 220 28 370 28 c 0
 530 28 657 164 657 334 c 0
 657 500 528 639 374 639 c 0
EndSplineSet
Validated: 1
EndChar

StartChar: ordfeminine
Encoding: 170 170 104
Width: 266
Flags: HMW
HStem: 399 43<217.5 270.5> 665 20G<155 209>
VStem: 16 78<465.5 505.5 465.5 524> 185 77<427 459>
LayerCount: 2
Fore
SplineSet
313 484 m 1
 326 475 l 1
 288 422 259 399 229 399 c 0
 206 399 185 417 185 437 c 0
 185 448 186 454 196 488 c 1
 159 423 130 400 86 400 c 0
 45 400 16 431 16 476 c 0
 16 572 114 685 196 685 c 0
 222 685 236 672 243 640 c 1
 254 676 l 1
 330 680 l 1
 284 540 l 2
 268 493 262 467 262 451 c 0
 262 446 264 442 267 442 c 0
 274 442 289 456 308 478 c 0
 310 481 310 481 313 484 c 1
198 658 m 0
 197.446736519 658.063230112 196.884977188 658.094475848 196.315128852 658.094475848 c 0
 160.83580271 658.094475848 94 536.972510678 94 473 c 0
 94 458 105 445 118 445 c 0
 137 445 160 466 179 502 c 0
 199 539 218 601 218 630 c 0
 218 645 209 657 198 658 c 0
EndSplineSet
Validated: 524289
EndChar

StartChar: guillemotleft
Encoding: 171 171 105
Width: 500
Flags: MW
HStem: 32 383<192.5 273.5 261.5 384.5>
VStem: 12 456<217 406 226 406>
LayerCount: 2
Fore
SplineSet
137 220 m 1
 177 137 l 2
 186 119 210 69 210 48 c 0
 210 38 203 32 196 32 c 0
 189 32 189 32 172 51 c 2
 12 217 l 1
 12 226 l 1
 193 358 l 2
 227 383 254 415 269 415 c 0
 278 415 283 409 283 403 c 0
 283 367 196 286 137 220 c 1
322 220 m 1
 362 137 l 2
 371 119 395 69 395 48 c 0
 395 38 388 32 381 32 c 0
 374 32 374 32 357 51 c 2
 197 217 l 1
 197 226 l 1
 378 358 l 2
 412 383 439 415 454 415 c 0
 463 415 468 409 468 403 c 0
 468 367 381 286 322 220 c 1
EndSplineSet
Validated: 1
Substitution2: "'locl' Localized Forms in Greek lookup 2 subtable" uniEB0E
Substitution2: "'aalt' Access All Alternates lookup 0 subtable" uniEB0E
EndChar

StartChar: logicalnot
Encoding: 172 172 106
Width: 606
Flags: MW
HStem: 311 88<51 467 51 555>
VStem: 467 88<108 311 311 311>
LayerCount: 2
Fore
SplineSet
467 108 m 1
 467 311 l 1
 51 311 l 1
 51 399 l 1
 555 399 l 1
 555 108 l 1
 467 108 l 1
EndSplineSet
Validated: 1
EndChar

StartChar: uni00AD
Encoding: 173 173 107
Width: 333
Flags: MW
HStem: 166 116<26 248 2 271>
LayerCount: 2
Fore
SplineSet
271 282 m 1
 248 166 l 1
 2 166 l 1
 26 282 l 1
 271 282 l 1
EndSplineSet
Validated: 1
EndChar

StartChar: registered
Encoding: 174 174 108
Width: 747
Flags: MW
HStem: -18 46<295 450 295 468.5> 317 20<328 369 369 372 328 369> 506 21<328 328 328 368> 639 46<296.5 451>
VStem: 30 61<250.5 417 250.5 430.5> 257 71<215 317 337 464 464 485> 437 73<408 454> 657 61<249 417>
LayerCount: 2
Fore
SplineSet
210 511 m 1
 210 527 l 1
 393 527 l 2
 465 527 510 490 510 432 c 0
 510 384 483 348 429 328 c 1
 488 246 l 2
 519 204 542 178 562 162 c 1
 562 151 l 1
 492 151 l 2
 474 151 458 171 424 232 c 0
 406 263 395 282 372 317 c 1
 328 317 l 1
 328 215 l 2
 328 172 328 172 376 167 c 1
 376 151 l 1
 210 151 l 1
 210 167 l 1
 257 172 257 172 257 215 c 2
 257 464 l 2
 257 506 257 506 210 511 c 1
328 506 m 1
 328 337 l 1
 369 337 l 2
 412 337 437 370 437 428 c 0
 437 480 414 506 368 506 c 2
 328 506 l 1
374 685 m 0
 566 685 718 530 718 334 c 0
 718 134 568 -18 369 -18 c 0
 182 -18 30 139 30 332 c 0
 30 529 182 685 374 685 c 0
374 639 m 0
 219 639 91 501 91 333 c 0
 91 168 220 28 370 28 c 0
 530 28 657 164 657 334 c 0
 657 500 528 639 374 639 c 0
EndSplineSet
Validated: 1
EndChar

StartChar: degree
Encoding: 176 176 109
Width: 400
GlyphClass: 5
Flags: MW
HStem: 397 36<197.5 253.5 197.5 265> 647 36<198 253.5>
VStem: 83 41<511 569 511 580> 328 41<510.5 569>
LayerCount: 2
Fore
SplineSet
226 683 m 0
 306 683 369 620 369 540 c 0
 369 459 306 397 224 397 c 0
 146 397 83 461 83 540 c 0
 83 620 146 683 226 683 c 0
226 647 m 0
 170 647 124 598 124 540 c 0
 124 482 170 433 225 433 c 0
 282 433 328 481 328 540 c 0
 328 598 281 647 226 647 c 0
EndSplineSet
Validated: 1
EndChar

StartChar: plusminus
Encoding: 177 177 110
Width: 570
Flags: MW
HStem: 0 88<33 537 33 537> 271 88<33 241 33 241 329 537>
VStem: 241 88<128 271 128 271 359 568>
LayerCount: 2
Fore
SplineSet
241 359 m 1
 241 568 l 1
 329 568 l 1
 329 359 l 1
 537 359 l 1
 537 271 l 1
 329 271 l 1
 329 128 l 1
 241 128 l 1
 241 271 l 1
 33 271 l 1
 33 359 l 1
 241 359 l 1
33 0 m 1
 33 88 l 1
 537 88 l 1
 537 0 l 1
 33 0 l 1
EndSplineSet
Validated: 1
EndChar

StartChar: two.superior
Encoding: 178 178 111
Width: 300
Flags: MW
HStem: 274 69<96 185 185 210 96 240> 622 61<174.5 179>
VStem: 220 93<560 576.5>
LayerCount: 2
Fore
SplineSet
291 388 m 1
 240 274 l 1
 2 274 l 1
 2 290 l 1
 106 389 121 403 150 435 c 0
 201 491 220 525 220 556 c 0
 220 597 197 622 161 622 c 0
 132 622 111 610 79 574 c 1
 61 585 l 1
 97 651 144 683 205 683 c 0
 265 683 313 639 313 584 c 0
 313 536 287 497 221 444 c 2
 96 343 l 1
 185 343 l 2
 235 343 250 351 275 388 c 1
 291 388 l 1
EndSplineSet
Validated: 1
EndChar

StartChar: three.superior
Encoding: 179 179 112
Width: 300
Flags: MW
HStem: 265 33<130.5 155> 632 51<164 250>
VStem: 210 84<379.5 419> 233 88<583.5 596>
LayerCount: 2
Fore
SplineSet
110 481 m 1xe0
 112 495 l 1
 194 510 233 537 233 580 c 0
 233 612 212 632 178 632 c 0
 150 632 131 622 103 590 c 1
 89 603 l 1
 129 659 169 683 222 683 c 0
 278 683 321 648 321 602 c 0xd0
 321 565 307 548 249 515 c 2
 242 511 l 1
 280 485 294 462 294 423 c 0
 294 336 208 265 102 265 c 0
 49 265 17 284 17 315 c 0
 17 339 33 356 54 356 c 0
 70 356 84 347 97 328 c 0
 118 300 121 298 140 298 c 0
 179 298 210 338 210 390 c 0
 210 448 177 478 110 481 c 1xe0
EndSplineSet
Validated: 1
EndChar

StartChar: mu
Encoding: 181 181 113
Width: 576
Flags: MW
HStem: -207 21G<-26 22> -13 85<318 426.5> 0 70<173 177> 429 20G<125 260 260 260 381 516 516 516>
LayerCount: 2
Fore
SplineSet
516 449 m 1xb0
 412 113 l 2
 409 103 407 93 407 86 c 0
 407 78 412 72 419 72 c 0
 434 72 452 90 482 134 c 1
 503 118 l 1
 460 59 446 43 421 21 c 0
 397 0 365 -13 336 -13 c 0xd0
 300 -13 273 14 273 50 c 0
 273 69 275 80 284 118 c 1
 231 28 200 0 154 0 c 0
 130 0 118 5 92 24 c 1
 70 -45 69 -82 69 -126 c 0
 69 -145 54 -207 -10 -207 c 0
 -42 -207 -60 -185 -60 -146 c 0
 -60 -117 -54 -95 -29 -37 c 0
 -10 7 -1 23 14 74 c 2
 125 449 l 1
 260 449 l 1
 167 137 l 2
 163 123 160 106 160 95 c 0
 160 79 167 70 179 70 c 0
 221 70 296 177 330 285 c 2
 381 449 l 1
 516 449 l 1xb0
EndSplineSet
Validated: 1
EndChar

StartChar: paragraph
Encoding: 182 182 114
Width: 500
Flags: HMW
HStem: -193 27<323 324.5 323 339> 644 25<330 330 330 385 556 556>
VStem: -4 79<368 421 368 426>
LayerCount: 2
Fore
SplineSet
330 644 m 1
 113 -193 l 1
 -57 -193 l 1
 -50 -168 l 1
 -1 -164 16 -160 27 -150 c 0
 35 -144 40 -130 56 -68 c 2
 141 258 l 1
 91 260 68 266 43 283 c 0
 13 304 -4 343 -4 388 c 0
 -4 464 29 557 72 603 c 0
 113 647 178 669 267 669 c 2
 562 669 l 1
 556 644 l 1
 475 637 472 635 458 581 c 2
 289 -68 l 2
 285.747603871 -81.0095845168 272.950292414 -104.442714006 272.950292414 -142.36498878 c 0
 272.950292414 -155.459315305 287.222561041 -162.132168761 323 -166 c 0
 326 -166 336 -167 346 -168 c 1
 339 -193 l 1
 168 -193 l 1
 385 644 l 1
 330 644 l 1
147 283 m 1
 241 644 l 1
 178 628 152 611 123 564 c 0
 95 518 75 448 75 394 c 0
 75 342 101 302 147 283 c 1
EndSplineSet
Validated: 524289
EndChar

StartChar: periodcentered
Encoding: 183 183 115
Width: 250
GlyphClass: 5
Flags: MW
HStem: 257 148<105 145>
VStem: 51 148<310 351 310 352>
LayerCount: 2
Fore
SplineSet
126 405 m 0
 166 405 199 371 199 331 c 0
 199 289 166 257 124 257 c 0
 83 257 51 289 51 331 c 0
 51 373 84 405 126 405 c 0
EndSplineSet
Validated: 1
Substitution2: "'locl' Localized Forms in Greek lookup 2 subtable" anoteleia
Substitution2: "'aalt' Access All Alternates lookup 0 subtable" anoteleia
EndChar

StartChar: cedilla
Encoding: 184 184 116
Width: 333
GlyphClass: 5
Flags: MW
HStem: -218 41<14 26 -2 67.5>
VStem: 65 91<-148.5 -125>
LayerCount: 2
Fore
SplineSet
-25 -92 m 1
 41 5 l 1
 85 5 l 1
 40 -62 l 1
 50 -60 56 -59 66 -59 c 0
 118 -59 156 -89 156 -131 c 0
 156 -181 103 -218 32 -218 c 0
 -4 -218 -36 -211 -80 -193 c 1
 -58 -160 l 1
 -30 -173 -13 -177 9 -177 c 0
 43 -177 65 -161 65 -136 c 0
 65 -114 47 -100 18 -100 c 0
 8 -100 0 -101 -12 -104 c 1
 -25 -92 l 1
EndSplineSet
Validated: 1
EndChar

StartChar: one.superior
Encoding: 185 185 117
Width: 300
Flags: HMW
HStem: 274 19<30 58 229.5 254 30 58>
LayerCount: 2
Fore
SplineSet
189 601 m 2
 190.121992259 604.526261385 190.627396781 607.769920057 190.627396781 610.730976017 c 0
 190.627396781 626.243658672 176.756015482 634 165 634 c 0
 159 634 148 633 133 632 c 2
 122 631 l 1
 124 652 l 1
 196 663 238 670 301 683 c 1
 201 353 l 2
 197 341 195 328 195 319 c 0
 195 297 205 293 254 293 c 1
 254 274 l 1
 30 274 l 1
 30 293 l 1
 86 293 99 312 109 344 c 2
 189 601 l 2
EndSplineSet
Validated: 524289
EndChar

StartChar: ordmasculine
Encoding: 186 186 118
Width: 300
Flags: HMW
HStem: 400 20<156.5 176.5 156.5 208> 665 20G<195.5 274.5>
VStem: 56 81<463.5 477 444 539>
LayerCount: 2
Fore
SplineSet
243 685 m 0
 303.969875145 685 347.144540456 646.59981036 347.144540456 592.459659186 c 0
 347.144540456 590.656944873 347.096672612 588.836779631 347 587 c 0
 342 488 254 400 162 400 c 0
 101 400 56 438 56 489 c 0
 56 589 148 685 243 685 c 0
241 665 m 0
 240.471478938 665.026426053 239.940862867 665.039583717 239.408317876 665.039583717 c 0
 219.788591575 665.039583717 197.550757097 647.180792354 181 617 c 0
 158 576 137 499 137 455 c 0
 137 433 148 420 165 420 c 0
 188 420 208 440 229 483 c 0
 248.192942538 523.406194817 266.075251894 585.831671481 266.075251894 630.398733515 c 0
 266.075251894 651.374241767 257.145706961 664.050252532 241 665 c 0
EndSplineSet
Validated: 524289
EndChar

StartChar: guillemotright
Encoding: 187 187 119
Width: 500
Flags: MW
HStem: 32 383<21.5 102.5 95.5 218.5>
VStem: 12 456<41 230>
LayerCount: 2
Fore
SplineSet
343 227 m 1
 303 310 l 2
 294 328 270 378 270 399 c 0
 270 409 277 415 284 415 c 0
 291 415 291 415 308 396 c 2
 468 230 l 1
 468 221 l 1
 287 89 l 2
 253 64 226 32 211 32 c 0
 202 32 197 38 197 44 c 0
 197 80 284 161 343 227 c 1
158 227 m 1
 118 310 l 2
 109 328 85 378 85 399 c 0
 85 409 92 415 99 415 c 0
 106 415 106 415 123 396 c 2
 283 230 l 1
 283 221 l 1
 102 89 l 2
 68 64 41 32 26 32 c 0
 17 32 12 38 12 44 c 0
 12 80 99 161 158 227 c 1
EndSplineSet
Validated: 1
Substitution2: "'locl' Localized Forms in Greek lookup 2 subtable" uniEB0F
Substitution2: "'aalt' Access All Alternates lookup 0 subtable" uniEB0F
EndChar

StartChar: onequarter
Encoding: 188 188 120
Width: 750
Flags: HMW
HStem: -14 21<136 194 136 136> 88 61<425 540 381 557 643 671> 274 19<8 36 207.5 232 8 36> 390 20<675 721 721 721> 663 20<279 279 571 629 629 629>
LayerCount: 2
Fore
SplineSet
629 683 m 1
 194 -14 l 1
 136 -14 l 1
 571 683 l 1
 629 683 l 1
688 149 m 1
 671 88 l 1
 627 88 l 1
 599 0 l 1
 513 0 l 1
 540 88 l 1
 381 88 l 1
 397 155 l 1
 675 410 l 1
 721 410 l 1
 643 149 l 1
 688 149 l 1
425 149 m 1
 557 149 l 1
 609 319 l 1
 425 149 l 1
167 601 m 2
 168.121992259 604.526261385 168.627396781 607.769920057 168.627396781 610.730976017 c 0
 168.627396781 626.243658672 154.756015482 634 143 634 c 0
 137 634 126 633 111 632 c 2
 100 631 l 1
 102 652 l 1
 174 663 216 670 279 683 c 1
 179 353 l 2
 175 341 173 328 173 319 c 0
 173 297 183 293 232 293 c 1
 232 274 l 1
 8 274 l 1
 8 293 l 1
 64 293 77 312 87 344 c 2
 167 601 l 2
EndSplineSet
Validated: 524289
EndChar

StartChar: onehalf
Encoding: 189 189 121
Width: 750
Flags: HW
LayerCount: 2
Fore
SplineSet
614 683 m 1
 179 -14 l 1
 121 -14 l 1
 556 683 l 1
 614 683 l 1
167 601 m 2
 168.121992259 604.526261385 168.627396781 607.769920057 168.627396781 610.730976017 c 0
 168.627396781 626.243658672 154.756015482 634 143 634 c 0
 137 634 126 633 111 632 c 2
 100 631 l 1
 102 652 l 1
 174 663 216 670 279 683 c 1
 179 353 l 2
 175 341 173 328 173 319 c 0
 173 297 183 293 232 293 c 1
 232 274 l 1
 8 274 l 1
 8 293 l 1
 64 293 77 312 87 344 c 2
 167 601 l 2
701 114 m 1
 650 0 l 1
 412 0 l 1
 412 16 l 1
 516 115 531 129 560 161 c 0
 611 217 630 251 630 282 c 0
 630 323 607 348 571 348 c 0
 542 348 521 336 489 300 c 1
 471 311 l 1
 507 377 554 409 615 409 c 0
 675 409 723 365 723 310 c 0
 723 262 697 223 631 170 c 2
 506 69 l 1
 595 69 l 2
 645 69 660 77 685 114 c 1
 701 114 l 1
EndSplineSet
Validated: 524289
EndChar

StartChar: threequarters
Encoding: 190 190 122
Width: 750
Flags: MW
HStem: 265 33<120.5 145> 632 51<154 240>
LayerCount: 2
Fore
SplineSet
634 683 m 1
 199 -14 l 1
 141 -14 l 1
 576 683 l 1
 634 683 l 1
693 149 m 1
 676 88 l 1
 632 88 l 1
 604 0 l 1
 518 0 l 1
 545 88 l 1
 386 88 l 1
 402 155 l 1
 680 410 l 1
 726 410 l 1
 648 149 l 1
 693 149 l 1
430 149 m 1
 562 149 l 1
 614 319 l 1
 430 149 l 1
100 481 m 1xc0
 102 495 l 1
 184 510 223 537 223 580 c 0
 223 612 202 632 168 632 c 0
 140 632 121 622 93 590 c 1
 79 603 l 1
 119 659 159 683 212 683 c 0
 268 683 311 648 311 602 c 0
 311 565 297 548 239 515 c 2
 232 511 l 1
 270 485 284 462 284 423 c 0
 284 336 198 265 92 265 c 0
 39 265 7 284 7 315 c 0
 7 339 23 356 44 356 c 0
 60 356 74 347 87 328 c 0
 108 300 111 298 130 298 c 0
 169 298 200 338 200 390 c 0
 200 448 167 478 100 481 c 1xc0
EndSplineSet
Validated: 1
EndChar

StartChar: questiondown
Encoding: 191 191 123
Width: 500
Flags: MW
HStem: -205 31<205 242 205 256.5> -29 20G<303 337> 344 148<327 367>
VStem: 30 127<-103.5 -70.5 -118.5 -29> 288 93<-145.5 -57>
LayerCount: 2
Fore
SplineSet
304 271 m 1
 333 264 l 1
 328 209 308 163 262 105 c 2
 221 54 l 2
 177 -1 157 -47 157 -94 c 0
 157 -143 184 -174 226 -174 c 0
 258 -174 288 -155 288 -136 c 0
 288 -130 285 -124 277 -113 c 0
 264 -97 259 -83 259 -69 c 0
 259 -36 286 -9 320 -9 c 0
 354 -9 381 -38 381 -76 c 0
 381 -151 307 -205 206 -205 c 0
 101 -205 30 -147 30 -60 c 0
 30 2 67 52 156 110 c 2
 222 153 l 2
 260 178 276 201 304 271 c 1
348 492 m 0
 388 492 421 458 421 418 c 0
 421 376 388 344 346 344 c 0
 305 344 273 376 273 418 c 0
 273 460 306 492 348 492 c 0
EndSplineSet
Validated: 1
EndChar

StartChar: Agrave
Encoding: 192 192 124
Width: 691
Flags: MW
HStem: 0 25<141 153 -43 -43> 208 40<185 370 185 377 162 370> 663 20<412 437 437 437> 884 20<330 351.5>
LayerCount: 2
Fore
SplineSet
617 0 m 1
 313 0 l 1
 313 25 l 1
 353 28 392 30 392 81 c 0
 392 123 383 167 377 208 c 1
 162 208 l 1
 146 180 88 97 88 60 c 0
 88 27 129 25 153 25 c 1
 153 0 l 1
 -43 0 l 1
 -43 25 l 1
 1 36 16 57 40 95 c 2
 412 683 l 1
 437 683 l 1
 533 111 l 2
 545 41 547 32 617 25 c 1
 617 0 l 1
185 248 m 1
 370 248 l 1
 333 491 l 1
 185 248 l 1
509 723 m 1
 464 723 l 1
 331 812 l 2
 309 827 297 844 297 859 c 0
 297 883 318 904 342 904 c 0
 361 904 382 891 398 870 c 2
 509 723 l 1
EndSplineSet
Validated: 1
EndChar

StartChar: Aacute
Encoding: 193 193 125
Width: 691
Flags: MW
HStem: 0 25<141 153 -43 -43> 208 40<185 370 185 377 162 370> 663 20<412 437 437 437> 884 20<534 556>
LayerCount: 2
Fore
SplineSet
617 0 m 1
 313 0 l 1
 313 25 l 1
 353 28 392 30 392 81 c 0
 392 123 383 167 377 208 c 1
 162 208 l 1
 146 180 88 97 88 60 c 0
 88 27 129 25 153 25 c 1
 153 0 l 1
 -43 0 l 1
 -43 25 l 1
 1 36 16 57 40 95 c 2
 412 683 l 1
 437 683 l 1
 533 111 l 2
 545 41 547 32 617 25 c 1
 617 0 l 1
185 248 m 1
 370 248 l 1
 333 491 l 1
 185 248 l 1
400 723 m 1
 351 723 l 1
 473 854 l 2
 508 892 525 904 543 904 c 0
 569 904 591 882 591 857 c 0
 591 838 582 827 552 810 c 2
 400 723 l 1
EndSplineSet
Validated: 1
EndChar

StartChar: Acircumflex
Encoding: 194 194 126
Width: 691
Flags: MW
HStem: 0 25<141 153 -43 -43> 208 40<185 370 185 377 162 370> 663 20<412 437 437 437> 877 20<412 493 493 493>
LayerCount: 2
Fore
SplineSet
617 0 m 1
 313 0 l 1
 313 25 l 1
 353 28 392 30 392 81 c 0
 392 123 383 167 377 208 c 1
 162 208 l 1
 146 180 88 97 88 60 c 0
 88 27 129 25 153 25 c 1
 153 0 l 1
 -43 0 l 1
 -43 25 l 1
 1 36 16 57 40 95 c 2
 412 683 l 1
 437 683 l 1
 533 111 l 2
 545 41 547 32 617 25 c 1
 617 0 l 1
185 248 m 1
 370 248 l 1
 333 491 l 1
 185 248 l 1
528 723 m 1
 440 818 l 1
 309 723 l 1
 252 723 l 1
 412 897 l 1
 493 897 l 1
 579 723 l 1
 528 723 l 1
EndSplineSet
Validated: 1
EndChar

StartChar: Atilde
Encoding: 195 195 127
Width: 691
Flags: MW
HStem: 0 25<141 153 -43 -43> 208 40<185 370 185 377 162 370> 663 20<412 437 437 437> 743 77<521.5 532> 787 75<347.5 353.5>
LayerCount: 2
Fore
SplineSet
617 0 m 1xe0
 313 0 l 1
 313 25 l 1
 353 28 392 30 392 81 c 0
 392 123 383 167 377 208 c 1
 162 208 l 1
 146 180 88 97 88 60 c 0
 88 27 129 25 153 25 c 1
 153 0 l 1
 -43 0 l 1
 -43 25 l 1
 1 36 16 57 40 95 c 2
 412 683 l 1
 437 683 l 1
 533 111 l 2
 545 41 547 32 617 25 c 1
 617 0 l 1xe0
185 248 m 1
 370 248 l 1
 333 491 l 1
 185 248 l 1
578 862 m 1x08
 619 862 l 1x08
 597 779 562 743 502 743 c 0x10
 483 743 471 746 445 756 c 2
 386 779 l 2
 373 784 359 787 348 787 c 0
 326 787 313 776 300 744 c 1
 260 744 l 1
 273 816 319 862 376 862 c 0x08
 400 862 432 854 473 836 c 0
 499 825 516 820 527 820 c 0x10
 550 820 563 831 578 862 c 1x08
EndSplineSet
Validated: 1
EndChar

StartChar: Adieresis
Encoding: 196 196 128
Width: 691
Flags: MW
HStem: 0 25<141 153 -43 -43> 208 40<185 370 185 377 162 370> 663 20<412 437 437 437> 732 130<314 348.5 526 560.5>
VStem: 267 130<779 814> 479 130<779 814>
LayerCount: 2
Fore
SplineSet
617 0 m 1
 313 0 l 1
 313 25 l 1
 353 28 392 30 392 81 c 0
 392 123 383 167 377 208 c 1
 162 208 l 1
 146 180 88 97 88 60 c 0
 88 27 129 25 153 25 c 1
 153 0 l 1
 -43 0 l 1
 -43 25 l 1
 1 36 16 57 40 95 c 2
 412 683 l 1
 437 683 l 1
 533 111 l 2
 545 41 547 32 617 25 c 1
 617 0 l 1
185 248 m 1
 370 248 l 1
 333 491 l 1
 185 248 l 1
331 862 m 0
 367 862 397 832 397 796 c 0
 397 762 366 732 331 732 c 0
 297 732 267 762 267 796 c 0
 267 832 296 862 331 862 c 0
543 862 m 0
 579 862 609 832 609 796 c 0
 609 762 578 732 543 732 c 0
 509 732 479 762 479 796 c 0
 479 832 508 862 543 862 c 0
EndSplineSet
Validated: 1
EndChar

StartChar: Aring
Encoding: 197 197 129
Width: 691
Flags: MW
HStem: 0 25<141 153 -43 -43> 208 40<185 370 185 377 162 370> 663 20<412 437 437 437> 736 48<428.5 460.5 428.5 474.5> 902 48<429 460.5>
VStem: 339 48<827 858.5 827 873.5> 504 48<826 858.5>
LayerCount: 2
Fore
SplineSet
617 0 m 1
 313 0 l 1
 313 25 l 1
 353 28 392 30 392 81 c 0
 392 123 383 167 377 208 c 1
 162 208 l 1
 146 180 88 97 88 60 c 0
 88 27 129 25 153 25 c 1
 153 0 l 1
 -43 0 l 1
 -43 25 l 1
 1 36 16 57 40 95 c 2
 412 683 l 1
 437 683 l 1
 533 111 l 2
 545 41 547 32 617 25 c 1
 617 0 l 1
185 248 m 1
 370 248 l 1
 333 491 l 1
 185 248 l 1
446 950 m 0
 504 950 552 902 552 843 c 0
 552 784 504 736 445 736 c 0
 386 736 339 785 339 845 c 0
 339 902 388 950 446 950 c 0
444 902 m 0
 414 902 387 874 387 843 c 0
 387 811 413 784 444 784 c 0
 477 784 504 810 504 842 c 0
 504 875 477 902 444 902 c 0
EndSplineSet
Validated: 1
EndChar

StartChar: AE
Encoding: 198 198 130
Width: 944
GlyphClass: 3
Flags: HMW
HStem: 0 32<521 606 521 791> 255 39<225 388 196 398> 627 42<478 490 478 478> 637 32<672 746.5>
LayerCount: 2
Fore
SplineSet
918 669 m 1xd0
 873 479 l 1
 849 484 l 1
 844 599 805 637 688 637 c 0
 684.631578947 637 681.385041551 637.022160665 678.261554162 637.022160665 c 0
 651.711911357 637.022160665 634.052631579 635.421052632 626 605 c 2
 561 370 l 1
 579 370 l 2
 581.233572433 369.975722039 583.440031574 369.963232466 585.619921199 369.963232466 c 0
 673.228857078 369.963232466 717.922562527 390.136460589 755 476 c 1
 781 472 l 1
 708 199 l 1
 683 204 l 1
 684 219 686 234 686 249 c 0
 686 336 623 334 553 338 c 1
 539 285 485 113 485 69 c 0
 485 41 509 32 533 32 c 0
 679 32 750 75 824 199 c 1
 850 196 l 1
 791 0 l 1
 264 0 l 1
 264 25 l 1
 317 34 327 43 342 96 c 2
 388 255 l 1
 196 255 l 1
 174 224 67 95 67 60 c 0
 67 28 108 26 131 25 c 1
 131 0 l 1
 -64 0 l 1
 -64 25 l 1
 -20 31 -2 69 24 102 c 2
 390 574 l 2
 398 585 410 603 410 617 c 0
 410 647 348 645 329 646 c 1
 329 669 l 1
 918 669 l 1xd0
225 294 m 1
 398 294 l 1
 490 627 l 1
 478 627 l 1xe0
 225 294 l 1
EndSplineSet
Validated: 524289
Ligature2: "'dlig' Discretionary Ligatures in Cyrillic lookup 37 subtable" A E
Ligature2: "'dlig' Discretionary Ligatures in Latin lookup 36 subtable" A E
Ligature2: "'dlig' Discretionary Ligatures lookup 35 subtable" A E
EndChar

StartChar: Ccedilla
Encoding: 199 199 131
Width: 667
GlyphClass: 3
Flags: MW
HStem: -218 41<180.5 193 165 234.5> -18 53<293.5 339.5> 650 35<445.5 460.5 328.5 506.5>
VStem: 32 154<181.5 282 154.5 362> 232 91<-148.5 -125>
LayerCount: 2
Fore
SplineSet
241 -12 m 1
 207 -62 l 1
 217 -60 223 -59 233 -59 c 0
 285 -59 323 -89 323 -131 c 0
 323 -181 270 -218 199 -218 c 0
 162 -218 130 -211 87 -193 c 1
 109 -160 l 1
 137 -173 154 -177 176 -177 c 0
 210 -177 232 -161 232 -136 c 0
 232 -114 214 -100 185 -100 c 0
 175 -100 167 -101 155 -104 c 1
 142 -92 l 1
 203 -2 l 1
 94 34 32 122 32 241 c 0
 32 483 217 685 440 685 c 0
 481 685 528 677 571 664 c 0
 586 659 601 656 609 656 c 0
 624 656 633 663 647 685 c 1
 677 685 l 1
 626 451 l 1
 594 457 l 1
 596 470 597 479 597 492 c 0
 597 590 547 650 466 650 c 0
 425 650 386 634 349 604 c 0
 258 528 186 355 186 209 c 0
 186 100 242 35 336 35 c 0
 367 35 398 41 426 53 c 0
 468 71 496 94 546 153 c 1
 576 131 l 1
 544 87 528 70 498 47 c 0
 441 4 375 -18 304 -18 c 0
 283 -18 263 -16 241 -12 c 1
EndSplineSet
Validated: 1
Ligature2: "'ccmp' Glyph Composition/Decomposition in Latin lookup 49 subtable" C cedilla
EndChar

StartChar: Egrave
Encoding: 200 200 132
Width: 670
Flags: HMW
HStem: 0 32<246 325.5 246 527> 338 32<275 295 275 304.5> 637 32<376 457> 884 20<338 359.5>
LayerCount: 2
Fore
SplineSet
653 669 m 1
 610 479 l 1
 583 484 l 1
 583 615 520 637 394 637 c 0
 358 637 345 627 336 593 c 2
 275 370 l 1
 295 370 l 2
 298.607208159 369.966906347 302.123515561 369.949145352 305.552800294 369.949145352 c 0
 405.747154504 369.949145352 431.654682642 385.110803367 480 476 c 1
 508 472 l 1
 434 199 l 1
 406 204 l 1
 408 217 410 231 410 244 c 0
 410 337 343 338 266 338 c 1
 260 314 195 96 195 68 c 0
 195 32 232 32 260 32 c 0
 391 32 497 82 561 199 c 1
 586 194 l 1
 527 0 l 1
 -27 0 l 1
 -27 25 l 1
 24 34 39 45 53 97 c 2
 176 546 l 2
 181 563 186 584 186 602 c 0
 186 644 145 640 113 644 c 1
 113 669 l 1
 653 669 l 1
517 723 m 1
 472 723 l 1
 339 812 l 2
 317 827 305 844 305 859 c 0
 305 883 326 904 350 904 c 0
 369 904 390 891 406 870 c 2
 517 723 l 1
EndSplineSet
Validated: 524289
EndChar

StartChar: Eacute
Encoding: 201 201 133
Width: 670
Flags: HMW
HStem: 0 32<246 325.5 246 527> 338 32<275 295 275 304.5> 637 32<376 457> 884 20<542 564>
LayerCount: 2
Fore
SplineSet
653 669 m 1
 610 479 l 1
 583 484 l 1
 583 615 520 637 394 637 c 0
 358 637 345 627 336 593 c 2
 275 370 l 1
 295 370 l 2
 298.607208159 369.966906347 302.123515561 369.949145352 305.552800294 369.949145352 c 0
 405.747154504 369.949145352 431.654682642 385.110803367 480 476 c 1
 508 472 l 1
 434 199 l 1
 406 204 l 1
 408 217 410 231 410 244 c 0
 410 337 343 338 266 338 c 1
 260 314 195 96 195 68 c 0
 195 32 232 32 260 32 c 0
 391 32 497 82 561 199 c 1
 586 194 l 1
 527 0 l 1
 -27 0 l 1
 -27 25 l 1
 24 34 39 45 53 97 c 2
 176 546 l 2
 181 563 186 584 186 602 c 0
 186 644 145 640 113 644 c 1
 113 669 l 1
 653 669 l 1
408 723 m 1
 359 723 l 1
 481 854 l 2
 516 892 533 904 551 904 c 0
 577 904 599 882 599 857 c 0
 599 838 590 827 560 810 c 2
 408 723 l 1
EndSplineSet
Validated: 524289
EndChar

StartChar: Ecircumflex
Encoding: 202 202 134
Width: 670
Flags: HMW
HStem: 0 32<246 325.5 246 527> 338 32<275 295 275 304.5> 637 32<376 457> 877 20<420 501 501 501>
LayerCount: 2
Fore
SplineSet
653 669 m 1
 610 479 l 1
 583 484 l 1
 583 615 520 637 394 637 c 0
 358 637 345 627 336 593 c 2
 275 370 l 1
 295 370 l 2
 298.607208159 369.966906347 302.123515561 369.949145352 305.552800294 369.949145352 c 0
 405.747154504 369.949145352 431.654682642 385.110803367 480 476 c 1
 508 472 l 1
 434 199 l 1
 406 204 l 1
 408 217 410 231 410 244 c 0
 410 337 343 338 266 338 c 1
 260 314 195 96 195 68 c 0
 195 32 232 32 260 32 c 0
 391 32 497 82 561 199 c 1
 586 194 l 1
 527 0 l 1
 -27 0 l 1
 -27 25 l 1
 24 34 39 45 53 97 c 2
 176 546 l 2
 181 563 186 584 186 602 c 0
 186 644 145 640 113 644 c 1
 113 669 l 1
 653 669 l 1
536 723 m 1
 448 818 l 1
 317 723 l 1
 260 723 l 1
 420 897 l 1
 501 897 l 1
 587 723 l 1
 536 723 l 1
EndSplineSet
Validated: 524289
EndChar

StartChar: Edieresis
Encoding: 203 203 135
Width: 670
Flags: HMW
HStem: 0 32<246 325.5 246 527> 338 32<275 295 275 304.5> 637 32<376 457> 732 130<322 356.5 534 568.5>
VStem: 275 130<779 814> 487 130<779 814>
LayerCount: 2
Fore
SplineSet
653 669 m 1
 610 479 l 1
 583 484 l 1
 583 615 520 637 394 637 c 0
 358 637 345 627 336 593 c 2
 275 370 l 1
 295 370 l 2
 298.607208159 369.966906347 302.123515561 369.949145352 305.552800294 369.949145352 c 0
 405.747154504 369.949145352 431.654682642 385.110803367 480 476 c 1
 508 472 l 1
 434 199 l 1
 406 204 l 1
 408 217 410 231 410 244 c 0
 410 337 343 338 266 338 c 1
 260 314 195 96 195 68 c 0
 195 32 232 32 260 32 c 0
 391 32 497 82 561 199 c 1
 586 194 l 1
 527 0 l 1
 -27 0 l 1
 -27 25 l 1
 24 34 39 45 53 97 c 2
 176 546 l 2
 181 563 186 584 186 602 c 0
 186 644 145 640 113 644 c 1
 113 669 l 1
 653 669 l 1
339 862 m 0
 375 862 405 832 405 796 c 0
 405 762 374 732 339 732 c 0
 305 732 275 762 275 796 c 0
 275 832 304 862 339 862 c 0
551 862 m 0
 587 862 617 832 617 796 c 0
 617 762 586 732 551 732 c 0
 517 732 487 762 487 796 c 0
 487 832 516 862 551 862 c 0
EndSplineSet
Validated: 524289
EndChar

StartChar: Igrave
Encoding: 204 204 136
Width: 393
Flags: MW
HStem: 0 21<-24 272 -24 -24> 649 20<116 414 414 414> 884 20<202 223.5>
LayerCount: 2
Fore
SplineSet
189 607 m 0
 189 635 169 636 116 644 c 1
 116 669 l 1
 414 669 l 1
 414 644 l 1
 363 638 347 625 332 572 c 2
 218 152 l 2
 205 103 200 80 200 65 c 0
 200 37 215 28 272 25 c 1
 272 0 l 1
 -24 0 l 1
 -24 25 l 1
 25 31 42 45 56 97 c 2
 179 546 l 2
 184 564 189 595 189 607 c 0
381 723 m 1
 336 723 l 1
 203 812 l 2
 181 827 169 844 169 859 c 0
 169 883 190 904 214 904 c 0
 233 904 254 891 270 870 c 2
 381 723 l 1
EndSplineSet
Validated: 1
EndChar

StartChar: Iacute
Encoding: 205 205 137
Width: 393
Flags: MW
HStem: 0 21<-24 272 -24 -24> 649 20<116 414 414 414> 884 20<406 428>
LayerCount: 2
Fore
SplineSet
189 607 m 0
 189 635 169 636 116 644 c 1
 116 669 l 1
 414 669 l 1
 414 644 l 1
 363 638 347 625 332 572 c 2
 218 152 l 2
 205 103 200 80 200 65 c 0
 200 37 215 28 272 25 c 1
 272 0 l 1
 -24 0 l 1
 -24 25 l 1
 25 31 42 45 56 97 c 2
 179 546 l 2
 184 564 189 595 189 607 c 0
272 723 m 1
 223 723 l 1
 345 854 l 2
 380 892 397 904 415 904 c 0
 441 904 463 882 463 857 c 0
 463 838 454 827 424 810 c 2
 272 723 l 1
EndSplineSet
Validated: 1
EndChar

StartChar: Icircumflex
Encoding: 206 206 138
Width: 393
Flags: MW
HStem: 0 21<-24 272 -24 -24> 649 20<116 414 414 414> 877 20<284 365 365 365>
LayerCount: 2
Fore
SplineSet
189 607 m 0
 189 635 169 636 116 644 c 1
 116 669 l 1
 414 669 l 1
 414 644 l 1
 363 638 347 625 332 572 c 2
 218 152 l 2
 205 103 200 80 200 65 c 0
 200 37 215 28 272 25 c 1
 272 0 l 1
 -24 0 l 1
 -24 25 l 1
 25 31 42 45 56 97 c 2
 179 546 l 2
 184 564 189 595 189 607 c 0
400 723 m 1
 312 818 l 1
 181 723 l 1
 124 723 l 1
 284 897 l 1
 365 897 l 1
 451 723 l 1
 400 723 l 1
EndSplineSet
Validated: 1
EndChar

StartChar: Idieresis
Encoding: 207 207 139
Width: 393
Flags: MW
HStem: 0 21<-24 272 -24 -24> 649 20<116 414 414 414> 732 130<186 220.5 398 432.5>
VStem: 139 130<779 814> 351 130<779 814>
LayerCount: 2
Fore
SplineSet
189 607 m 0
 189 635 169 636 116 644 c 1
 116 669 l 1
 414 669 l 1
 414 644 l 1
 363 638 347 625 332 572 c 2
 218 152 l 2
 205 103 200 80 200 65 c 0
 200 37 215 28 272 25 c 1
 272 0 l 1
 -24 0 l 1
 -24 25 l 1
 25 31 42 45 56 97 c 2
 179 546 l 2
 184 564 189 595 189 607 c 0
203 862 m 0
 239 862 269 832 269 796 c 0
 269 762 238 732 203 732 c 0
 169 732 139 762 139 796 c 0
 139 832 168 862 203 862 c 0
415 862 m 0
 451 862 481 832 481 796 c 0
 481 762 450 732 415 732 c 0
 381 732 351 762 351 796 c 0
 351 832 380 862 415 862 c 0
EndSplineSet
Validated: 1
EndChar

StartChar: Ntilde
Encoding: 209 209 140
Width: 722
Flags: MW
HStem: -15 21<473 501 473 473> 649 20<109 304 304 304 537 746 746 746> 743 77<565.5 576> 787 75<391.5 397.5>
LayerCount: 2
Fore
SplineSet
304 669 m 1xc0
 519 204 l 1
 599 491 l 2
 610 531 617 567 617 585 c 0
 617 623 596 639 537 644 c 1
 537 669 l 1
 746 669 l 1
 746 644 l 1
 688 631 681 623 644 491 c 2
 501 -15 l 1
 473 -15 l 1
 216 534 l 1
 117 178 l 2
 106 137 99 102 99 84 c 0
 99 45 120 30 179 25 c 1
 179 0 l 1
 -29 0 l 1
 -29 25 l 1
 26 36 33 47 72 178 c 2
 192 589 l 1
 173 633 164 639 109 644 c 1
 109 669 l 1
 304 669 l 1xc0
622 862 m 1x10
 663 862 l 1x10
 641 779 606 743 546 743 c 0x20
 527 743 515 746 489 756 c 2
 430 779 l 2
 417 784 403 787 392 787 c 0
 370 787 357 776 344 744 c 1
 304 744 l 1
 317 816 363 862 420 862 c 0x10
 444 862 476 854 517 836 c 0
 543 825 560 820 571 820 c 0x20
 594 820 607 831 622 862 c 1x10
EndSplineSet
Validated: 1
EndChar

StartChar: Ograve
Encoding: 210 210 141
Width: 722
Flags: MW
HStem: -18 34<235 360 235 379> 651 34<358 480> 884 20<388 409.5>
VStem: 27 144<140 217 114.5 318.5> 547 144<458.5 516 334.5 559.5>
LayerCount: 2
Fore
SplineSet
691 444 m 0
 691 225 493 -18 265 -18 c 0
 135 -18 27 73 27 207 c 0
 27 430 211 685 449 685 c 0
 592 685 691 588 691 444 c 0
547 526 m 0
 547 593 518 651 442 651 c 0
 274 651 171 284 171 150 c 0
 171 79 195 16 275 16 c 0
 445 16 547 391 547 526 c 0
567 723 m 1
 522 723 l 1
 389 812 l 2
 367 827 355 844 355 859 c 0
 355 883 376 904 400 904 c 0
 419 904 440 891 456 870 c 2
 567 723 l 1
EndSplineSet
Validated: 1
EndChar

StartChar: Oacute
Encoding: 211 211 142
Width: 722
Flags: MW
HStem: -18 34<235 360 235 379> 651 34<358 480> 884 20<592 614>
VStem: 27 144<140 217 114.5 318.5> 547 144<458.5 516 334.5 559.5>
LayerCount: 2
Fore
SplineSet
691 444 m 0
 691 225 493 -18 265 -18 c 0
 135 -18 27 73 27 207 c 0
 27 430 211 685 449 685 c 0
 592 685 691 588 691 444 c 0
547 526 m 0
 547 593 518 651 442 651 c 0
 274 651 171 284 171 150 c 0
 171 79 195 16 275 16 c 0
 445 16 547 391 547 526 c 0
458 723 m 1
 409 723 l 1
 531 854 l 2
 566 892 583 904 601 904 c 0
 627 904 649 882 649 857 c 0
 649 838 640 827 610 810 c 2
 458 723 l 1
EndSplineSet
Validated: 1
EndChar

StartChar: Ocircumflex
Encoding: 212 212 143
Width: 722
Flags: MW
HStem: -18 34<235 360 235 379> 651 34<358 480> 877 20<470 551 551 551>
VStem: 27 144<140 217 114.5 318.5> 547 144<458.5 516 334.5 559.5>
LayerCount: 2
Fore
SplineSet
691 444 m 0
 691 225 493 -18 265 -18 c 0
 135 -18 27 73 27 207 c 0
 27 430 211 685 449 685 c 0
 592 685 691 588 691 444 c 0
547 526 m 0
 547 593 518 651 442 651 c 0
 274 651 171 284 171 150 c 0
 171 79 195 16 275 16 c 0
 445 16 547 391 547 526 c 0
586 723 m 1
 498 818 l 1
 367 723 l 1
 310 723 l 1
 470 897 l 1
 551 897 l 1
 637 723 l 1
 586 723 l 1
EndSplineSet
Validated: 1
EndChar

StartChar: Otilde
Encoding: 213 213 144
Width: 722
Flags: MW
HStem: -18 34<235 360 235 379> 651 34<358 480> 743 77<579.5 590> 787 75<405.5 411.5>
VStem: 27 144<140 217 114.5 318.5> 547 144<458.5 516 334.5 559.5>
LayerCount: 2
Fore
SplineSet
691 444 m 0xcc
 691 225 493 -18 265 -18 c 0
 135 -18 27 73 27 207 c 0
 27 430 211 685 449 685 c 0
 592 685 691 588 691 444 c 0xcc
547 526 m 0
 547 593 518 651 442 651 c 0
 274 651 171 284 171 150 c 0
 171 79 195 16 275 16 c 0
 445 16 547 391 547 526 c 0
636 862 m 1x10
 677 862 l 1x10
 655 779 620 743 560 743 c 0x20
 541 743 529 746 503 756 c 2
 444 779 l 2
 431 784 417 787 406 787 c 0
 384 787 371 776 358 744 c 1
 318 744 l 1
 331 816 377 862 434 862 c 0x10
 458 862 490 854 531 836 c 0
 557 825 574 820 585 820 c 0x20
 608 820 621 831 636 862 c 1x10
EndSplineSet
Validated: 1
EndChar

StartChar: Odieresis
Encoding: 214 214 145
Width: 722
Flags: MW
HStem: -18 34<235 360 235 379> 651 34<358 480>
VStem: 27 144<140 217 114.5 318.5> 547 144<458.5 516 334.5 559.5>
LayerCount: 2
Fore
SplineSet
691 444 m 0
 691 225 493 -18 265 -18 c 0
 135 -18 27 73 27 207 c 0
 27 430 211 685 449 685 c 0
 592 685 691 588 691 444 c 0
547 526 m 0
 547 593 518 651 442 651 c 0
 274 651 171 284 171 150 c 0
 171 79 195 16 275 16 c 0
 445 16 547 391 547 526 c 0
389 862 m 0x00
 425 862 455 832 455 796 c 0
 455 762 424 732 389 732 c 0
 355 732 325 762 325 796 c 0
 325 832 354 862 389 862 c 0x00
601 862 m 0
 637 862 667 832 667 796 c 0
 667 762 636 732 601 732 c 0
 567 732 537 762 537 796 c 0
 537 832 566 862 601 862 c 0
EndSplineSet
Validated: 1
EndChar

StartChar: multiply
Encoding: 215 215 146
Width: 570
Flags: MW
HStem: 16 474<110 110 110 460>
VStem: 48 474<78 78 78 428>
LayerCount: 2
Fore
SplineSet
223 253 m 1
 48 428 l 1
 110 490 l 1
 285 314 l 1
 460 490 l 1
 522 428 l 1
 346 253 l 1
 522 78 l 1
 460 16 l 1
 285 192 l 1
 110 16 l 1
 48 78 l 1
 223 253 l 1
EndSplineSet
Validated: 1
EndChar

StartChar: Oslash
Encoding: 216 216 147
Width: 722
Flags: MW
HStem: -18 34<263 359.5 263 379> 651 34<357.5 452.5>
VStem: 27 144<167 216.5 137.5 318.5> 547 144<456.5 489.5 334.5 536>
LayerCount: 2
Fore
SplineSet
691 444 m 0
 691 225 493 -18 265 -18 c 0
 237 -18 209 -14 183 -5 c 1
 113 -125 l 1
 65 -125 l 1
 144 11 l 1
 72 48 27 127 27 207 c 0
 27 430 211 685 449 685 c 0
 477 685 505 681 531 672 c 1
 584 764 l 1
 633 764 l 1
 570 656 l 1
 653 614 691 535 691 444 c 0
506 630 m 1
 488 646 464 651 441 651 c 0
 274 651 171 283 171 150 c 0
 171 125 173 100 182 77 c 1
 506 630 l 1
547 524 m 0
 547 548 543 572 533 593 c 1
 208 38 l 1
 227 22 251 16 275 16 c 0
 444 16 547 389 547 524 c 0
EndSplineSet
Validated: 1
EndChar

StartChar: Ugrave
Encoding: 217 217 148
Width: 722
Flags: MW
HStem: -18 56<289 332.5> 640 29<127 129> 884 20<373 394.5>
LayerCount: 2
Fore
SplineSet
744 669 m 1
 744 644 l 1
 689 633 680 623 642 491 c 2
 576 263 l 2
 545 155 521 101 487 62 c 0
 442 9 375 -18 290 -18 c 0
 159 -18 67 50 67 148 c 0
 67 181 79 243 100 323 c 2
 156 529 l 2
 165 562 171 593 171 605 c 0
 171 627 161 635 129 640 c 0
 125 640 112 642 98 644 c 1
 98 669 l 1
 409 669 l 1
 409 644 l 1
 347 641 332 629 315 572 c 2
 233 272 l 2
 208 181 205 166 205 139 c 0
 205 76 251 38 327 38 c 0
 382 38 426 58 460 98 c 0
 490 135 512 185 539 282 c 2
 597 491 l 2
 608 532 616 571 616 588 c 0
 616 623 593 639 536 644 c 1
 536 669 l 1
 744 669 l 1
552 723 m 1
 507 723 l 1
 374 812 l 2
 352 827 340 844 340 859 c 0
 340 883 361 904 385 904 c 0
 404 904 425 891 441 870 c 2
 552 723 l 1
EndSplineSet
Validated: 1
EndChar

StartChar: Uacute
Encoding: 218 218 149
Width: 722
Flags: MW
HStem: -18 56<289 332.5> 640 29<127 129> 884 20<577 599>
LayerCount: 2
Fore
SplineSet
744 669 m 1
 744 644 l 1
 689 633 680 623 642 491 c 2
 576 263 l 2
 545 155 521 101 487 62 c 0
 442 9 375 -18 290 -18 c 0
 159 -18 67 50 67 148 c 0
 67 181 79 243 100 323 c 2
 156 529 l 2
 165 562 171 593 171 605 c 0
 171 627 161 635 129 640 c 0
 125 640 112 642 98 644 c 1
 98 669 l 1
 409 669 l 1
 409 644 l 1
 347 641 332 629 315 572 c 2
 233 272 l 2
 208 181 205 166 205 139 c 0
 205 76 251 38 327 38 c 0
 382 38 426 58 460 98 c 0
 490 135 512 185 539 282 c 2
 597 491 l 2
 608 532 616 571 616 588 c 0
 616 623 593 639 536 644 c 1
 536 669 l 1
 744 669 l 1
443 723 m 1
 394 723 l 1
 516 854 l 2
 551 892 568 904 586 904 c 0
 612 904 634 882 634 857 c 0
 634 838 625 827 595 810 c 2
 443 723 l 1
EndSplineSet
Validated: 1
EndChar

StartChar: Ucircumflex
Encoding: 219 219 150
Width: 722
Flags: MW
HStem: -18 56<289 332.5> 640 29<127 129> 877 20<455 536 536 536>
LayerCount: 2
Fore
SplineSet
744 669 m 1
 744 644 l 1
 689 633 680 623 642 491 c 2
 576 263 l 2
 545 155 521 101 487 62 c 0
 442 9 375 -18 290 -18 c 0
 159 -18 67 50 67 148 c 0
 67 181 79 243 100 323 c 2
 156 529 l 2
 165 562 171 593 171 605 c 0
 171 627 161 635 129 640 c 0
 125 640 112 642 98 644 c 1
 98 669 l 1
 409 669 l 1
 409 644 l 1
 347 641 332 629 315 572 c 2
 233 272 l 2
 208 181 205 166 205 139 c 0
 205 76 251 38 327 38 c 0
 382 38 426 58 460 98 c 0
 490 135 512 185 539 282 c 2
 597 491 l 2
 608 532 616 571 616 588 c 0
 616 623 593 639 536 644 c 1
 536 669 l 1
 744 669 l 1
571 723 m 1
 483 818 l 1
 352 723 l 1
 295 723 l 1
 455 897 l 1
 536 897 l 1
 622 723 l 1
 571 723 l 1
EndSplineSet
Validated: 1
EndChar

StartChar: Udieresis
Encoding: 220 220 151
Width: 722
Flags: MW
HStem: -18 56<289 332.5> 640 29<127 129> 732 130<357 391.5 569 603.5>
VStem: 310 130<779 814> 522 130<779 814>
LayerCount: 2
Fore
SplineSet
744 669 m 1
 744 644 l 1
 689 633 680 623 642 491 c 2
 576 263 l 2
 545 155 521 101 487 62 c 0
 442 9 375 -18 290 -18 c 0
 159 -18 67 50 67 148 c 0
 67 181 79 243 100 323 c 2
 156 529 l 2
 165 562 171 593 171 605 c 0
 171 627 161 635 129 640 c 0
 125 640 112 642 98 644 c 1
 98 669 l 1
 409 669 l 1
 409 644 l 1
 347 641 332 629 315 572 c 2
 233 272 l 2
 208 181 205 166 205 139 c 0
 205 76 251 38 327 38 c 0
 382 38 426 58 460 98 c 0
 490 135 512 185 539 282 c 2
 597 491 l 2
 608 532 616 571 616 588 c 0
 616 623 593 639 536 644 c 1
 536 669 l 1
 744 669 l 1
374 862 m 0
 410 862 440 832 440 796 c 0
 440 762 409 732 374 732 c 0
 340 732 310 762 310 796 c 0
 310 832 339 862 374 862 c 0
586 862 m 0
 622 862 652 832 652 796 c 0
 652 762 621 732 586 732 c 0
 552 732 522 762 522 796 c 0
 522 832 551 862 586 862 c 0
EndSplineSet
Validated: 1
EndChar

StartChar: Yacute
Encoding: 221 221 152
Width: 611
Flags: HMW
HStem: 0 21<73 395 73 73> 644 25<73 356 342.5 356 451 466> 884 20<520 542>
LayerCount: 2
Fore
SplineSet
659 644 m 1
 616 636 592 609 568 575 c 2
 378 308 l 1
 363 251 318 127 318 69 c 0
 318 24 361 26 395 25 c 1
 395 0 l 1
 73 0 l 1
 73 25 l 1
 132 30 157 35 174 97 c 2
 234 313 l 1
 146 581 l 2
 129 632 125 637 73 644 c 1
 73 669 l 1
 356 669 l 1
 356 644 l 1
 354.615384615 644 353.18869165 644.002629849 351.727878083 644.002629849 c 0
 324.702827087 644.002629849 286 643.102564103 286 608 c 0
 286 568 350 392 363 352 c 1
 492 538 l 2
 508 562 518 574 518 603 c 0
 518 641 481 644 451 644 c 1
 451 669 l 1
 659 669 l 1
 659 644 l 1
386 723 m 1
 337 723 l 1
 459 854 l 2
 494 892 511 904 529 904 c 0
 555 904 577 882 577 857 c 0
 577 838 568 827 538 810 c 2
 386 723 l 1
EndSplineSet
Validated: 524289
EndChar

StartChar: Thorn
Encoding: 222 222 153
Width: 611
Flags: MW
HStem: 0 21G<-27 267 -27 -27> 182 35<296.5 324.5 260.5 371> 502 32<325 369 312 373> 649 20G<113 407 407 407>
VStem: 427 146<352 434>
LayerCount: 2
Fore
SplineSet
573 377 m 0
 573 239 430 182 312 182 c 0
 281 182 250 184 219 187 c 1
 211 152 195 105 195 68 c 0
 195 26 235 26 267 25 c 1
 267 0 l 1
 -27 0 l 1
 -27 25 l 1
 24 34 39 45 53 97 c 2
 176 546 l 2
 181 563 186 584 186 602 c 0
 186 643 145 640 113 644 c 1
 113 669 l 1
 407 669 l 1
 406 644 l 1
 336 634 333 596 312 534 c 1
 426 534 573 530 573 377 c 0
427 406 m 0
 427 462 404 502 342 502 c 0
 308 502 301 487 293 458 c 2
 229 219 l 1
 242 218 254 217 267 217 c 0
 382 217 427 298 427 406 c 0
EndSplineSet
Validated: 1
EndChar

StartChar: germandbls
Encoding: 223 223 154
Width: 500
Flags: HMW
HStem: -200 31<-107 -73.5 -107 -31> -7 34<203 246 200.5 280.5> 675 30<282 334>
VStem: -200 99<-130.5 -108> 315 120<265 298 195 324.5> 362 111<584 615.5 524 630>
LayerCount: 2
Fore
SplineSet
473 575 m 0xf4
 473 473 376 430 294 400 c 1
 294 398 l 1
 377 384 435 343 435 253 c 0
 435 137 344 -7 217 -7 c 0
 189 -7 165 -1 142 15 c 1
 162 50 l 1
 172 35 192 27 209 27 c 0
 283 27 315 237 315 293 c 0xf8
 315 356 302 376 241 384 c 1
 248 421 l 1
 264 420 l 2
 265.346003662 419.912597165 266.674895391 419.869502012 267.986862142 419.869502012 c 0
 341.727766841 419.869502012 362 556.013872888 362 613 c 0
 362 647 354 675 314 675 c 0
 250 675 224 556 214 509 c 2
 123 102 l 2
 98 -12 42 -200 -104 -200 c 0
 -149 -200 -200 -176 -200 -125 c 0
 -200 -91 -181 -70 -146 -70 c 0
 -120 -70 -101 -88 -101 -114 c 0
 -101 -147 -118 -143 -118 -158 c 0
 -118 -168 -111 -169 -103 -169 c 0
 -44 -169 -26 -66 -16 -20 c 2
 76 403 l 2
 104 533 169 705 328 705 c 0
 404 705 473 656 473 575 c 0xf4
EndSplineSet
Validated: 524289
EndChar

StartChar: agrave
Encoding: 224 224 155
Width: 500
Flags: MW
HStem: -14 71<285.5 374> 420 42<225 273 181 279> 677 20<202 223.5>
VStem: -21 123<102 149.5 102 179.5> 237 113<33.5 110>
LayerCount: 2
Fore
SplineSet
455 112 m 1
 425 64 367 -14 304 -14 c 0
 267 -14 237 15 237 52 c 0
 237 73 244 95 250 115 c 1
 248 114 l 1
 213 55 164 -13 88 -13 c 0
 11 -13 -21 48 -21 117 c 0
 -21 242 112 462 250 462 c 0
 296 462 319 437 325 394 c 1
 327 394 l 1
 344 449 l 1
 455 456 l 1
 440 406 350 148 350 72 c 0
 350 65 355 57 363 57 c 0
 385 57 422 111 434 127 c 1
 455 112 l 1
303 371 m 0
 303 393 292 420 266 420 c 0
 184 420 102 184 102 115 c 0
 102 89 116 58 146 58 c 0
 234 58 303 300 303 371 c 0
381 516 m 1
 336 516 l 1
 203 605 l 2
 181 620 169 637 169 652 c 0
 169 676 190 697 214 697 c 0
 233 697 254 684 270 663 c 2
 381 516 l 1
EndSplineSet
Validated: 1
EndChar

StartChar: aacute
Encoding: 225 225 156
Width: 500
Flags: MW
HStem: -14 71<285.5 374> 420 42<225 273 181 279> 677 20<406 428>
VStem: -21 123<102 149.5 102 179.5> 237 113<33.5 110>
LayerCount: 2
Fore
SplineSet
455 112 m 1
 425 64 367 -14 304 -14 c 0
 267 -14 237 15 237 52 c 0
 237 73 244 95 250 115 c 1
 248 114 l 1
 213 55 164 -13 88 -13 c 0
 11 -13 -21 48 -21 117 c 0
 -21 242 112 462 250 462 c 0
 296 462 319 437 325 394 c 1
 327 394 l 1
 344 449 l 1
 455 456 l 1
 440 406 350 148 350 72 c 0
 350 65 355 57 363 57 c 0
 385 57 422 111 434 127 c 1
 455 112 l 1
303 371 m 0
 303 393 292 420 266 420 c 0
 184 420 102 184 102 115 c 0
 102 89 116 58 146 58 c 0
 234 58 303 300 303 371 c 0
272 516 m 1
 223 516 l 1
 345 647 l 2
 380 685 397 697 415 697 c 0
 441 697 463 675 463 650 c 0
 463 631 454 620 424 603 c 2
 272 516 l 1
EndSplineSet
Validated: 1
EndChar

StartChar: acircumflex
Encoding: 226 226 157
Width: 500
Flags: MW
HStem: -14 71<285.5 374> 420 42<225 273 181 279> 670 20<284 365 365 365>
VStem: -21 123<102 149.5 102 179.5> 237 113<33.5 110>
LayerCount: 2
Fore
SplineSet
455 112 m 1
 425 64 367 -14 304 -14 c 0
 267 -14 237 15 237 52 c 0
 237 73 244 95 250 115 c 1
 248 114 l 1
 213 55 164 -13 88 -13 c 0
 11 -13 -21 48 -21 117 c 0
 -21 242 112 462 250 462 c 0
 296 462 319 437 325 394 c 1
 327 394 l 1
 344 449 l 1
 455 456 l 1
 440 406 350 148 350 72 c 0
 350 65 355 57 363 57 c 0
 385 57 422 111 434 127 c 1
 455 112 l 1
303 371 m 0
 303 393 292 420 266 420 c 0
 184 420 102 184 102 115 c 0
 102 89 116 58 146 58 c 0
 234 58 303 300 303 371 c 0
400 516 m 1
 312 611 l 1
 181 516 l 1
 124 516 l 1
 284 690 l 1
 365 690 l 1
 451 516 l 1
 400 516 l 1
EndSplineSet
Validated: 1
EndChar

StartChar: atilde
Encoding: 227 227 158
Width: 500
Flags: MW
HStem: -14 71<285.5 374> 420 42<225 273 181 279> 536 77<393.5 404> 580 75<219.5 225.5>
VStem: -21 123<102 149.5 102 179.5> 237 113<33.5 110>
LayerCount: 2
Fore
SplineSet
455 112 m 1xcc
 425 64 367 -14 304 -14 c 0
 267 -14 237 15 237 52 c 0
 237 73 244 95 250 115 c 1
 248 114 l 1
 213 55 164 -13 88 -13 c 0
 11 -13 -21 48 -21 117 c 0
 -21 242 112 462 250 462 c 0
 296 462 319 437 325 394 c 1
 327 394 l 1
 344 449 l 1
 455 456 l 1
 440 406 350 148 350 72 c 0
 350 65 355 57 363 57 c 0
 385 57 422 111 434 127 c 1
 455 112 l 1xcc
303 371 m 0
 303 393 292 420 266 420 c 0
 184 420 102 184 102 115 c 0
 102 89 116 58 146 58 c 0
 234 58 303 300 303 371 c 0
450 655 m 1x10
 491 655 l 1x10
 469 572 434 536 374 536 c 0x20
 355 536 343 539 317 549 c 2
 258 572 l 2
 245 577 231 580 220 580 c 0
 198 580 185 569 172 537 c 1
 132 537 l 1
 145 609 191 655 248 655 c 0x10
 272 655 304 647 345 629 c 0
 371 618 388 613 399 613 c 0x20
 422 613 435 624 450 655 c 1x10
EndSplineSet
Validated: 1
EndChar

StartChar: adieresis
Encoding: 228 228 159
Width: 500
Flags: MW
HStem: -14 71<285.5 374> 420 42<225 273 181 279>
VStem: -21 123<102 149.5 102 179.5> 237 113<33.5 110>
LayerCount: 2
Fore
SplineSet
455 112 m 1
 425 64 367 -14 304 -14 c 0
 267 -14 237 15 237 52 c 0
 237 73 244 95 250 115 c 1
 248 114 l 1
 213 55 164 -13 88 -13 c 0
 11 -13 -21 48 -21 117 c 0
 -21 242 112 462 250 462 c 0
 296 462 319 437 325 394 c 1
 327 394 l 1
 344 449 l 1
 455 456 l 1
 440 406 350 148 350 72 c 0
 350 65 355 57 363 57 c 0
 385 57 422 111 434 127 c 1
 455 112 l 1
303 371 m 0
 303 393 292 420 266 420 c 0
 184 420 102 184 102 115 c 0
 102 89 116 58 146 58 c 0
 234 58 303 300 303 371 c 0
203 655 m 0x00
 239 655 269 625 269 589 c 0
 269 555 238 525 203 525 c 0
 169 525 139 555 139 589 c 0
 139 625 168 655 203 655 c 0x00
415 655 m 0
 451 655 481 625 481 589 c 0
 481 555 450 525 415 525 c 0
 381 525 351 555 351 589 c 0
 351 625 380 655 415 655 c 0
EndSplineSet
Validated: 1
EndChar

StartChar: aring
Encoding: 229 229 160
Width: 500
Flags: MW
HStem: -14 71<285.5 374> 420 42<225 273 181 279>
VStem: -21 123<102 149.5 102 179.5> 237 113<33.5 110>
LayerCount: 2
Fore
SplineSet
455 112 m 1
 425 64 367 -14 304 -14 c 0
 267 -14 237 15 237 52 c 0
 237 73 244 95 250 115 c 1
 248 114 l 1
 213 55 164 -13 88 -13 c 0
 11 -13 -21 48 -21 117 c 0
 -21 242 112 462 250 462 c 0
 296 462 319 437 325 394 c 1
 327 394 l 1
 344 449 l 1
 455 456 l 1
 440 406 350 148 350 72 c 0
 350 65 355 57 363 57 c 0
 385 57 422 111 434 127 c 1
 455 112 l 1
303 371 m 0
 303 393 292 420 266 420 c 0
 184 420 102 184 102 115 c 0
 102 89 116 58 146 58 c 0
 234 58 303 300 303 371 c 0
318 754 m 0x00
 376 754 424 706 424 647 c 0
 424 588 376 540 317 540 c 0
 258 540 211 589 211 649 c 0
 211 706 260 754 318 754 c 0x00
316 706 m 0
 286 706 259 678 259 647 c 0
 259 615 285 588 316 588 c 0
 349 588 376 614 376 646 c 0
 376 679 349 706 316 706 c 0
EndSplineSet
Validated: 1
EndChar

StartChar: ae
Encoding: 230 230 161
Width: 722
GlyphClass: 3
Flags: MW
HStem: -13 63<444 471> -12 70<69.5 214.5> 419 43<239 291 198.5 301.5> 429 30<548.5 561.5>
VStem: -5 126<102.5 153 102.5 181> 583 90<359.5 401 309 402>
LayerCount: 2
Fore
SplineSet
673 371 m 0x9c
 673 247 499 202 406 181 c 1
 403 165 401 149 401 133 c 0
 401 91 420 50 468 50 c 0
 522 50 567 94 591 139 c 1
 619 122 l 1
 587 48 512 -13 430 -13 c 0xac
 335 -13 298 29 282 116 c 1
 280 116 l 1
 242 51 191 -12 108 -12 c 0
 31 -12 -5 47 -5 119 c 0
 -5 243 130 462 267 462 c 0x6c
 315 462 336 443 350 400 c 1
 353 400 l 1
 370 454 l 1
 473 459 l 1
 455 400 l 1
 457 398 l 1
 488 438 523 459 574 459 c 0
 630 459 673 431 673 371 c 0x9c
333 356 m 0
 333 390 321 419 282 419 c 0
 196 419 121 188 121 118 c 0
 121 87 136 58 171 58 c 0x6c
 258 58 333 284 333 356 c 0
418 231 m 2
 413 214 l 1
 441 218 463 227 494 246 c 0
 552 282 583 331 583 388 c 0
 583 416 573 429 550 429 c 0x9c
 500 429 458 365 418 231 c 2
EndSplineSet
Validated: 1
Ligature2: "'dlig' Discretionary Ligatures in Cyrillic lookup 37 subtable" a e
Ligature2: "'dlig' Discretionary Ligatures in Latin lookup 36 subtable" a e
Ligature2: "'dlig' Discretionary Ligatures lookup 35 subtable" a e
EndChar

StartChar: ccedilla
Encoding: 231 231 162
Width: 444
GlyphClass: 3
Flags: HMW
HStem: -218 41 -13 64 429 33
VStem: -5 128<114 172 114 219> 121 91<-147.5 -124> 293 99<352.5 417>
LayerCount: 2
Fore
SplineSet
346 123 m 1
 346 124.037479303 346 124.052402156 346 123 c 1
346 123 m 1
 316 82 258 -12 148 -12 c 0
 142 -12 137 -12 130 -11 c 1
 96 -61 l 1
 106 -59 112 -58 122 -58 c 0
 174 -58 212 -88 212 -130 c 0
 212 -180 159 -217 88 -217 c 0
 52 -217 20 -210 -24 -192 c 1
 -2 -159 l 1
 26 -172 43 -176 65 -176 c 0
 99 -176 121 -160 121 -135 c 0
 121 -113 103 -99 74 -99 c 0
 64 -99 56 -100 44 -103 c 1
 31 -91 l 1
 91 -3 l 1
 30 19 -5 71 -5 139 c 0
 -5 299 139 463 280 463 c 0
 347 463 392 426 392 373 c 0
 392 332 366 303 330 303 c 0
 297 303 272 325 272 355 c 0
 272 381 293 400 293 412 c 0
 293 422 283 429 271 429 c 0
 241 429 212 405 185 358 c 0
 149 293 123 203 123 141 c 0
 123 87 153 51 196 51 c 0
 239 51 270 74 318 141 c 1
 346 123 l 1
EndSplineSet
Validated: 8912897
LCarets2: 1 0
Ligature2: "'ccmp' Glyph Composition/Decomposition in Latin lookup 49 subtable" c uni0327
EndChar

StartChar: egrave
Encoding: 232 232 163
Width: 444
Flags: MW
HStem: -12 64<176.5 202.5> 430 33<243.5 288> 677 20<214 235.5>
VStem: 5 130<110.5 142.5 110.5 215.5> 306 92<348.5 402.5 316 405.5>
LayerCount: 2
Fore
SplineSet
398 373 m 0
 398 259 230 197 141 183 c 1
 137 167 135 151 135 134 c 0
 135 87 151 52 202 52 c 0
 255 52 291 104 317 143 c 1
 346 126 l 1
 301 52 250 -12 155 -12 c 0
 65 -12 5 53 5 142 c 0
 5 289 141 463 295 463 c 0
 349 463 398 432 398 373 c 0
306 396 m 0
 306 415 299 430 277 430 c 0
 210 430 160 268 148 215 c 1
 235 238 306 301 306 396 c 0
393 516 m 1
 348 516 l 1
 215 605 l 2
 193 620 181 637 181 652 c 0
 181 676 202 697 226 697 c 0
 245 697 266 684 282 663 c 2
 393 516 l 1
EndSplineSet
Validated: 1
EndChar

StartChar: eacute
Encoding: 233 233 164
Width: 444
Flags: MW
HStem: -13 64<176.5 202.5> 429 33<243.5 288> 677 20<418 440>
VStem: 5 130<109.5 141.5 109.5 214.5> 306 92<347.5 401.5 315 404.5>
LayerCount: 2
Fore
SplineSet
398 372 m 0
 398 258 230 196 141 182 c 1
 137 166 135 150 135 133 c 0
 135 86 151 51 202 51 c 0
 255 51 291 103 317 142 c 1
 346 125 l 1
 301 51 250 -13 155 -13 c 0
 65 -13 5 52 5 141 c 0
 5 288 141 462 295 462 c 0
 349 462 398 431 398 372 c 0
306 395 m 0
 306 414 299 429 277 429 c 0
 210 429 160 267 148 214 c 1
 235 237 306 300 306 395 c 0
284 516 m 1
 235 516 l 1
 357 647 l 2
 392 685 409 697 427 697 c 0
 453 697 475 675 475 650 c 0
 475 631 466 620 436 603 c 2
 284 516 l 1
EndSplineSet
Validated: 1
EndChar

StartChar: ecircumflex
Encoding: 234 234 165
Width: 444
Flags: MW
HStem: -13 64<176.5 202.5> 429 33<243.5 288> 670 20<296 377 377 377>
VStem: 5 130<109.5 141.5 109.5 214.5> 306 92<347.5 401.5 315 404.5>
LayerCount: 2
Fore
SplineSet
398 372 m 0
 398 258 230 196 141 182 c 1
 137 166 135 150 135 133 c 0
 135 86 151 51 202 51 c 0
 255 51 291 103 317 142 c 1
 346 125 l 1
 301 51 250 -13 155 -13 c 0
 65 -13 5 52 5 141 c 0
 5 288 141 462 295 462 c 0
 349 462 398 431 398 372 c 0
306 395 m 0
 306 414 299 429 277 429 c 0
 210 429 160 267 148 214 c 1
 235 237 306 300 306 395 c 0
412 516 m 1
 324 611 l 1
 193 516 l 1
 136 516 l 1
 296 690 l 1
 377 690 l 1
 463 516 l 1
 412 516 l 1
EndSplineSet
Validated: 1
EndChar

StartChar: edieresis
Encoding: 235 235 166
Width: 444
Flags: MW
HStem: -13 64<176.5 202.5> 429 33<243.5 288>
VStem: 5 130<109.5 141.5 109.5 214.5> 306 92<347.5 401.5 315 404.5>
LayerCount: 2
Fore
SplineSet
398 372 m 0
 398 258 230 196 141 182 c 1
 137 166 135 150 135 133 c 0
 135 86 151 51 202 51 c 0
 255 51 291 103 317 142 c 1
 346 125 l 1
 301 51 250 -13 155 -13 c 0
 65 -13 5 52 5 141 c 0
 5 288 141 462 295 462 c 0
 349 462 398 431 398 372 c 0
306 395 m 0
 306 414 299 429 277 429 c 0
 210 429 160 267 148 214 c 1
 235 237 306 300 306 395 c 0
215 655 m 0x00
 251 655 281 625 281 589 c 0
 281 555 250 525 215 525 c 0
 181 525 151 555 151 589 c 0
 151 625 180 655 215 655 c 0x00
427 655 m 0
 463 655 493 625 493 589 c 0
 493 555 462 525 427 525 c 0
 393 525 363 555 363 589 c 0
 363 625 392 655 427 655 c 0
EndSplineSet
Validated: 1
EndChar

StartChar: igrave
Encoding: 236 236 167
Width: 278
Flags: HMW
HStem: -9 70<50 151> 677 20<82 103.5>
VStem: 2 121<72 96.5>
LayerCount: 2
Fore
SplineSet
238 127 m 1
 199 67 152 -9 71 -9 c 0
 29 -9 2 16 2 58 c 0
 2 135 80 312 80 375 c 0
 80 403.107169771 54.6093161265 407.274551889 32.250781334 407.274551889 c 0
 28.3586600067 407.274551889 24.5584219849 407.148267583 21 407 c 1
 21 434 l 1
 88 439 157 447 223 462 c 1
 206 399 123 123 123 76 c 0
 123 68 130 61 138 61 c 0
 164 61 203 121 216 141 c 1
 238 127 l 1
261 516 m 1
 216 516 l 1
 83 605 l 2
 61 620 49 637 49 652 c 0
 49 676 70 697 94 697 c 0
 113 697 134 684 150 663 c 2
 261 516 l 1
EndSplineSet
Validated: 524289
EndChar

StartChar: iacute
Encoding: 237 237 168
Width: 278
Flags: HMW
HStem: -9 70<50 151> 677 20<286 308>
VStem: 2 121<72 96.5>
LayerCount: 2
Fore
SplineSet
238 127 m 1
 199 67 152 -9 71 -9 c 0
 29 -9 2 16 2 58 c 0
 2 135 80 312 80 375 c 0
 80 403.107169771 54.6093161265 407.274551889 32.250781334 407.274551889 c 0
 28.3586600067 407.274551889 24.5584219849 407.148267583 21 407 c 1
 21 434 l 1
 88 439 157 447 223 462 c 1
 206 399 123 123 123 76 c 0
 123 68 130 61 138 61 c 0
 164 61 203 121 216 141 c 1
 238 127 l 1
152 516 m 1
 103 516 l 1
 225 647 l 2
 260 685 277 697 295 697 c 0
 321 697 343 675 343 650 c 0
 343 631 334 620 304 603 c 2
 152 516 l 1
EndSplineSet
Validated: 524289
EndChar

StartChar: icircumflex
Encoding: 238 238 169
Width: 278
Flags: HMW
HStem: -9 70<50 151> 670 20<164 245 245 245>
VStem: 2 121<72 96.5>
LayerCount: 2
Fore
SplineSet
238 127 m 1
 199 67 152 -9 71 -9 c 0
 29 -9 2 16 2 58 c 0
 2 135 80 312 80 375 c 0
 80 403.107169771 54.6093161265 407.274551889 32.250781334 407.274551889 c 0
 28.3586600067 407.274551889 24.5584219849 407.148267583 21 407 c 1
 21 434 l 1
 88 439 157 447 223 462 c 1
 206 399 123 123 123 76 c 0
 123 68 130 61 138 61 c 0
 164 61 203 121 216 141 c 1
 238 127 l 1
280 516 m 1
 192 611 l 1
 61 516 l 1
 4 516 l 1
 164 690 l 1
 245 690 l 1
 331 516 l 1
 280 516 l 1
EndSplineSet
Validated: 524289
EndChar

StartChar: idieresis
Encoding: 239 239 170
Width: 278
Flags: HMW
HStem: -9 70<50 151>
VStem: 2 121<72 96.5>
LayerCount: 2
Fore
SplineSet
238 127 m 1
 199 67 152 -9 71 -9 c 0
 29 -9 2 16 2 58 c 0
 2 135 80 312 80 375 c 0
 80 403.107169771 54.6093161265 407.274551889 32.250781334 407.274551889 c 0
 28.3586600067 407.274551889 24.5584219849 407.148267583 21 407 c 1
 21 434 l 1
 88 439 157 447 223 462 c 1
 206 399 123 123 123 76 c 0
 123 68 130 61 138 61 c 0
 164 61 203 121 216 141 c 1
 238 127 l 1
83 655 m 0x00
 119 655 149 625 149 589 c 0
 149 555 118 525 83 525 c 0
 49 525 19 555 19 589 c 0
 19 625 48 655 83 655 c 0x00
295 655 m 0
 331 655 361 625 361 589 c 0
 361 555 330 525 295 525 c 0
 261 525 231 555 231 589 c 0
 231 625 260 655 295 655 c 0
EndSplineSet
Validated: 524289
EndChar

StartChar: eth
Encoding: 240 240 171
Width: 500
Flags: MW
HStem: -13 29<146 216 146 252.5> 433 29<222.5 288.5 196 293>
VStem: -3 119<90.5 126 68 208> 322 119<331.5 385.5>
LayerCount: 2
Fore
SplineSet
454 664 m 1
 347 608 l 1
 404 547 441 465 441 380 c 0
 441 219 348 -13 157 -13 c 0
 70 -13 -3 45 -3 136 c 0
 -3 280 118 462 274 462 c 0
 303 462 329 445 343 420 c 1
 345 424 l 1
 342 479 317 531 283 574 c 1
 164 512 l 1
 131 543 l 1
 253 607 l 1
 221 638 181 665 137 672 c 1
 181 699 l 1
 230 693 275 670 313 639 c 1
 420 696 l 1
 454 664 l 1
322 369 m 0
 322 402 312 433 274 433 c 0
 171 433 116 166 116 86 c 0
 116 50 124 16 168 16 c 0
 264 16 322 294 322 369 c 0
EndSplineSet
Validated: 1
EndChar

StartChar: ntilde
Encoding: 241 241 172
Width: 556
Flags: HMW
HStem: -9 68<314.5 413.5> 390 72<278.5 424> 536 77<421.5 432> 580 75<247.5 253.5>
VStem: 354 120<343.5 374.5>
LayerCount: 2
Fore
SplineSet
493 122 m 1xc8
 459 64 412 -9 336 -9 c 0
 293 -9 266 10 266 56 c 0
 266 143 354 319 354 368 c 0
 354 381 341 390 329 390 c 0
 228 390 132 65 115 0 c 1
 -6 0 l 1
 8 52 96 346 96 381 c 0
 96 403.800530531 72.7917771207 407.371390676 53.9132390262 407.371390676 c 0
 49.6081469887 407.371390676 45.5282114254 407.185695338 42 407 c 1
 42 434 l 1
 107 434 179 447 242 461 c 1
 182 275 l 1
 185 273 l 1
 233 344 301 462 398 462 c 0
 450 462 474 437 474 383 c 0
 474 298 387 137 387 77 c 0
 387 68 392 59 402 59 c 0
 425 59 460 118 471 135 c 1
 493 122 l 1xc8
478 655 m 1x10
 519 655 l 1x10
 497 572 462 536 402 536 c 0x20
 383 536 371 539 345 549 c 2
 286 572 l 2
 273 577 259 580 248 580 c 0
 226 580 213 569 200 537 c 1
 160 537 l 1
 173 609 219 655 276 655 c 0x10
 300 655 332 647 373 629 c 0
 399 618 416 613 427 613 c 0x20
 450 613 463 624 478 655 c 1x10
EndSplineSet
Validated: 524289
EndChar

StartChar: ograve
Encoding: 242 242 173
Width: 500
Flags: MW
HStem: -13 29<146 216 146 230.5> 433 29<222.5 293> 677 20<222 243.5>
VStem: -3 119<92.5 126 68 219> 322 119<331.5 355 226.5 385.5>
LayerCount: 2
Fore
SplineSet
322 369 m 0
 322 402 312 433 274 433 c 0
 171 433 116 166 116 86 c 0
 116 50 124 16 168 16 c 0
 264 16 322 294 322 369 c 0
284 462 m 0
 375 462 441 399 441 311 c 0
 441 142 305 -13 156 -13 c 0
 64 -13 -3 50 -3 135 c 0
 -3 303 137 462 284 462 c 0
401 516 m 1
 356 516 l 1
 223 605 l 2
 201 620 189 637 189 652 c 0
 189 676 210 697 234 697 c 0
 253 697 274 684 290 663 c 2
 401 516 l 1
EndSplineSet
Validated: 1
EndChar

StartChar: oacute
Encoding: 243 243 174
Width: 500
Flags: MW
HStem: -13 29<146 216 146 230.5> 433 29<222.5 293> 677 20<426 448>
VStem: -3 119<92.5 126 68 219> 322 119<331.5 355 226.5 385.5>
LayerCount: 2
Fore
SplineSet
322 369 m 0
 322 402 312 433 274 433 c 0
 171 433 116 166 116 86 c 0
 116 50 124 16 168 16 c 0
 264 16 322 294 322 369 c 0
284 462 m 0
 375 462 441 399 441 311 c 0
 441 142 305 -13 156 -13 c 0
 64 -13 -3 50 -3 135 c 0
 -3 303 137 462 284 462 c 0
292 516 m 1
 243 516 l 1
 365 647 l 2
 400 685 417 697 435 697 c 0
 461 697 483 675 483 650 c 0
 483 631 474 620 444 603 c 2
 292 516 l 1
EndSplineSet
Validated: 1
EndChar

StartChar: ocircumflex
Encoding: 244 244 175
Width: 500
Flags: MW
HStem: -13 29<146 216 146 230.5> 433 29<222.5 293> 670 20<304 385 385 385>
VStem: -3 119<92.5 126 68 219> 322 119<331.5 355 226.5 385.5>
LayerCount: 2
Fore
SplineSet
322 369 m 0
 322 402 312 433 274 433 c 0
 171 433 116 166 116 86 c 0
 116 50 124 16 168 16 c 0
 264 16 322 294 322 369 c 0
284 462 m 0
 375 462 441 399 441 311 c 0
 441 142 305 -13 156 -13 c 0
 64 -13 -3 50 -3 135 c 0
 -3 303 137 462 284 462 c 0
420 516 m 1
 332 611 l 1
 201 516 l 1
 144 516 l 1
 304 690 l 1
 385 690 l 1
 471 516 l 1
 420 516 l 1
EndSplineSet
Validated: 1
EndChar

StartChar: otilde
Encoding: 245 245 176
Width: 500
Flags: MW
HStem: -13 29<146 216 146 230.5> 433 29<222.5 293> 536 77<413.5 424> 580 75<239.5 245.5>
VStem: -3 119<92.5 126 68 219> 322 119<331.5 355 226.5 385.5>
LayerCount: 2
Fore
SplineSet
322 369 m 0xcc
 322 402 312 433 274 433 c 0
 171 433 116 166 116 86 c 0
 116 50 124 16 168 16 c 0
 264 16 322 294 322 369 c 0xcc
284 462 m 0
 375 462 441 399 441 311 c 0
 441 142 305 -13 156 -13 c 0
 64 -13 -3 50 -3 135 c 0
 -3 303 137 462 284 462 c 0
470 655 m 1x10
 511 655 l 1x10
 489 572 454 536 394 536 c 0x20
 375 536 363 539 337 549 c 2
 278 572 l 2
 265 577 251 580 240 580 c 0
 218 580 205 569 192 537 c 1
 152 537 l 1
 165 609 211 655 268 655 c 0x10
 292 655 324 647 365 629 c 0
 391 618 408 613 419 613 c 0x20
 442 613 455 624 470 655 c 1x10
EndSplineSet
Validated: 1
EndChar

StartChar: odieresis
Encoding: 246 246 177
Width: 500
Flags: MW
HStem: -13 29<146 216 146 230.5> 433 29<222.5 293>
VStem: -3 119<92.5 126 68 219> 322 119<331.5 355 226.5 385.5>
LayerCount: 2
Fore
SplineSet
322 369 m 0
 322 402 312 433 274 433 c 0
 171 433 116 166 116 86 c 0
 116 50 124 16 168 16 c 0
 264 16 322 294 322 369 c 0
284 462 m 0
 375 462 441 399 441 311 c 0
 441 142 305 -13 156 -13 c 0
 64 -13 -3 50 -3 135 c 0
 -3 303 137 462 284 462 c 0
223 655 m 0x00
 259 655 289 625 289 589 c 0
 289 555 258 525 223 525 c 0
 189 525 159 555 159 589 c 0
 159 625 188 655 223 655 c 0x00
435 655 m 0
 471 655 501 625 501 589 c 0
 501 555 470 525 435 525 c 0
 401 525 371 555 371 589 c 0
 371 625 400 655 435 655 c 0
EndSplineSet
Validated: 1
EndChar

StartChar: divide
Encoding: 247 247 178
Width: 570
Flags: MW
HStem: -29 148<265 305> 209 88<33 537 33 537> 387 148<265 305>
VStem: 211 148<24.5 65 24.5 66 440 481>
CounterMasks: 1 e0
LayerCount: 2
Fore
SplineSet
537 209 m 1
 33 209 l 1
 33 297 l 1
 537 297 l 1
 537 209 l 1
286 119 m 0
 326 119 359 85 359 45 c 0
 359 4 326 -29 284 -29 c 0
 243 -29 211 3 211 45 c 0
 211 87 244 119 286 119 c 0
286 535 m 0
 326 535 359 501 359 461 c 0
 359 419 326 387 284 387 c 0
 243 387 211 419 211 461 c 0
 211 503 244 535 286 535 c 0
EndSplineSet
Validated: 1
EndChar

StartChar: oslash
Encoding: 248 248 179
Width: 500
Flags: MW
HStem: -13 29<160.5 216 160.5 237> 433 29<222 280.5>
VStem: -3 119<108.5 122.5 82 211.5> 322 119<331.5 338 233 369>
LayerCount: 2
Fore
SplineSet
441 308 m 0
 441 158 317 -13 157 -13 c 0
 140 -13 122 -10 106 -5 c 1
 42 -119 l 1
 2 -119 l 1
 74 7 l 1
 24 32 -3 81 -3 136 c 0
 -3 287 123 462 284 462 c 0
 299 462 314 460 328 456 c 1
 387 560 l 1
 424 560 l 1
 359 444 l 1
 416 419 441 368 441 308 c 0
307 419 m 1
 298 429 287 433 274 433 c 0
 170 433 116 163 116 82 c 1
 118 82 l 1
 307 419 l 1
322 369 m 1
 321 377 l 1
 128 34 l 1
 137 21 153 16 168 16 c 0
 264 16 322 294 322 369 c 1
EndSplineSet
Validated: 1
EndChar

StartChar: ugrave
Encoding: 249 249 180
Width: 556
Flags: MW
HStem: -9 68<314.5 411.5> 429 20<370 488 488 488> 677 20<226 247.5>
VStem: 15 119<79 98.5 79 118.5> 266 119<25.5 99.5>
LayerCount: 2
Fore
SplineSet
492 120 m 1
 460 62 407 -9 333 -9 c 0
 296 -9 266 4 266 47 c 0
 266 84 276 119 288 154 c 1
 286 155 l 1
 240 91 181 -9 92 -9 c 0
 37 -9 15 17 15 69 c 0
 15 168 90 283 90 378 c 0
 90 408 55 406 34 407 c 1
 34 434 l 1
 105 437 173 456 243 462 c 1
 149 154 l 2
 142 132 134 110 134 87 c 0
 134 71 141 63 157 63 c 0
 195 63 254 150 271 182 c 0
 317 266 344 358 370 449 c 1
 488 449 l 1
 470 386 385 121 385 78 c 0
 385 68 389 59 400 59 c 0
 423 59 459 114 471 133 c 1
 492 120 l 1
405 516 m 1
 360 516 l 1
 227 605 l 2
 205 620 193 637 193 652 c 0
 193 676 214 697 238 697 c 0
 257 697 278 684 294 663 c 2
 405 516 l 1
EndSplineSet
Validated: 1
EndChar

StartChar: uacute
Encoding: 250 250 181
Width: 556
Flags: MW
HStem: -9 68<314.5 411.5> 429 20<370 488 488 488> 677 20<430 452>
VStem: 15 119<79 98.5 79 118.5> 266 119<25.5 99.5>
LayerCount: 2
Fore
SplineSet
492 120 m 1
 460 62 407 -9 333 -9 c 0
 296 -9 266 4 266 47 c 0
 266 84 276 119 288 154 c 1
 286 155 l 1
 240 91 181 -9 92 -9 c 0
 37 -9 15 17 15 69 c 0
 15 168 90 283 90 378 c 0
 90 408 55 406 34 407 c 1
 34 434 l 1
 105 437 173 456 243 462 c 1
 149 154 l 2
 142 132 134 110 134 87 c 0
 134 71 141 63 157 63 c 0
 195 63 254 150 271 182 c 0
 317 266 344 358 370 449 c 1
 488 449 l 1
 470 386 385 121 385 78 c 0
 385 68 389 59 400 59 c 0
 423 59 459 114 471 133 c 1
 492 120 l 1
296 516 m 1
 247 516 l 1
 369 647 l 2
 404 685 421 697 439 697 c 0
 465 697 487 675 487 650 c 0
 487 631 478 620 448 603 c 2
 296 516 l 1
EndSplineSet
Validated: 1
EndChar

StartChar: ucircumflex
Encoding: 251 251 182
Width: 556
Flags: MW
HStem: -9 68<314.5 411.5> 429 20<370 488 488 488> 670 20<308 389 389 389>
VStem: 15 119<79 98.5 79 118.5> 266 119<25.5 99.5>
LayerCount: 2
Fore
SplineSet
492 120 m 1
 460 62 407 -9 333 -9 c 0
 296 -9 266 4 266 47 c 0
 266 84 276 119 288 154 c 1
 286 155 l 1
 240 91 181 -9 92 -9 c 0
 37 -9 15 17 15 69 c 0
 15 168 90 283 90 378 c 0
 90 408 55 406 34 407 c 1
 34 434 l 1
 105 437 173 456 243 462 c 1
 149 154 l 2
 142 132 134 110 134 87 c 0
 134 71 141 63 157 63 c 0
 195 63 254 150 271 182 c 0
 317 266 344 358 370 449 c 1
 488 449 l 1
 470 386 385 121 385 78 c 0
 385 68 389 59 400 59 c 0
 423 59 459 114 471 133 c 1
 492 120 l 1
424 516 m 1
 336 611 l 1
 205 516 l 1
 148 516 l 1
 308 690 l 1
 389 690 l 1
 475 516 l 1
 424 516 l 1
EndSplineSet
Validated: 1
EndChar

StartChar: udieresis
Encoding: 252 252 183
Width: 556
Flags: MW
HStem: -9 68<314.5 411.5> 429 20<370 488 488 488>
VStem: 15 119<79 98.5 79 118.5> 266 119<25.5 99.5>
LayerCount: 2
Fore
SplineSet
492 120 m 1
 460 62 407 -9 333 -9 c 0
 296 -9 266 4 266 47 c 0
 266 84 276 119 288 154 c 1
 286 155 l 1
 240 91 181 -9 92 -9 c 0
 37 -9 15 17 15 69 c 0
 15 168 90 283 90 378 c 0
 90 408 55 406 34 407 c 1
 34 434 l 1
 105 437 173 456 243 462 c 1
 149 154 l 2
 142 132 134 110 134 87 c 0
 134 71 141 63 157 63 c 0
 195 63 254 150 271 182 c 0
 317 266 344 358 370 449 c 1
 488 449 l 1
 470 386 385 121 385 78 c 0
 385 68 389 59 400 59 c 0
 423 59 459 114 471 133 c 1
 492 120 l 1
216 655 m 0x00
 252 655 282 625 282 589 c 0
 282 555 251 525 216 525 c 0
 182 525 152 555 152 589 c 0
 152 625 181 655 216 655 c 0x00
428 655 m 0
 464 655 494 625 494 589 c 0
 494 555 463 525 428 525 c 0
 394 525 364 555 364 589 c 0
 364 625 393 655 428 655 c 0
EndSplineSet
Validated: 1
EndChar

StartChar: yacute
Encoding: 253 253 184
Width: 444
Flags: HMW
HStem: -205 115<-51 -23 -56 28.5> 442 20<314.5 345.5> 677 20<362 384>
VStem: 273 119<374.5 416.5 351.5 420.5>
LayerCount: 2
Fore
SplineSet
392 400 m 0
 392 303 306 145 254 60 c 0
 196 -34 92 -205 -35 -205 c 0
 -67 -205 -94 -177 -94 -145 c 0
 -94 -115 -71 -90 -41 -90 c 0
 -5 -90 25 -125 51 -125 c 0
 92 -125 142 -43 142 -6 c 0
 142 76 115 178 97 259 c 0
 86.0525723883 307.765813907 80.0574659052 411.007160229 14.9421985639 411.007160229 c 0
 14.6294981524 411.007160229 14.3154343298 411.004779308 14 411 c 1
 14 438 l 1
 64 442 114 449 163 462 c 1
 206 355 222 226 241 113 c 1
 243 113 l 1
 264 153 328 270 328 313 c 0
 328 357 273 343 273 406 c 0
 273 435 300 462 329 462 c 0
 362 462 392 433 392 400 c 0
228 516 m 1
 179 516 l 1
 301 647 l 2
 336 685 353 697 371 697 c 0
 397 697 419 675 419 650 c 0
 419 631 410 620 380 603 c 2
 228 516 l 1
EndSplineSet
Validated: 524289
EndChar

StartChar: thorn
Encoding: 254 254 185
Width: 500
Flags: HMW
HStem: -205 21G<-120 129 -120 -120> -13 35<158.5 205.5 141 236.5> 442 20G<310.5 371.5>
VStem: 321 125<312.5 350>
LayerCount: 2
Fore
SplineSet
69 -114 m 2
 66.0809924355 -125.286829249 64.6767591219 -134.566582616 64.6767591219 -142.200360496 c 0
 64.6767591219 -173.794527618 88.7300252151 -177.194600504 129 -178 c 1
 129 -205 l 1
 -120 -205 l 1
 -120 -178 l 1
 -118.23517694 -178.036016797 -116.519647847 -178.055169868 -114.851310262 -178.055169868 c 0
 -70.198549995 -178.055169868 -59.3516976513 -164.334757011 -42 -93 c 2
 120 537 l 2
 132 583 137 606 137 612 c 0
 137 635 123 642 74 642 c 1
 74 669 l 1
 163 679 212 686 280 699 c 1
 185 359 l 1
 188 356 l 1
 238 431 282 462 339 462 c 0
 404 462 446 414 446 341 c 0
 446 168 304 -13 169 -13 c 0
 148 -13 136 -9 101 9 c 1
 69 -114 l 2
282 391 m 1
 282 390 l 1
 281.028294334 390.07474659 280.046811326 390.111780574 279.056334001 390.111780574 c 0
 253.544536646 390.111780574 222.065667629 365.542441501 198 328 c 0
 167 282 113 79 113 58 c 0
 113 38 130 22 152 22 c 0
 259 22 321 291 321 334 c 0
 321 366 308 389 282 391 c 1
EndSplineSet
Validated: 524289
EndChar

StartChar: ydieresis
Encoding: 255 255 186
Width: 444
GlyphClass: 3
Flags: HMW
HStem: -205 115<-51 -23 -56 28.5> 442 20<314.5 345.5>
VStem: 273 119<374.5 416.5 351.5 420.5>
LayerCount: 2
Fore
SplineSet
392 400 m 0
 392 303 306 145 254 60 c 0
 196 -34 92 -205 -35 -205 c 0
 -67 -205 -94 -177 -94 -145 c 0
 -94 -115 -71 -90 -41 -90 c 0
 -5 -90 25 -125 51 -125 c 0
 92 -125 142 -43 142 -6 c 0
 142 76 115 178 97 259 c 0
 86.0525723883 307.765813907 80.0574659052 411.007160229 14.9421985639 411.007160229 c 0
 14.6294981524 411.007160229 14.3154343298 411.004779308 14 411 c 1
 14 438 l 1
 64 442 114 449 163 462 c 1
 206 355 222 226 241 113 c 1
 243 113 l 1
 264 153 328 270 328 313 c 0
 328 357 273 343 273 406 c 0
 273 435 300 462 329 462 c 0
 362 462 392 433 392 400 c 0
159 655 m 0x00
 195 655 225 625 225 589 c 0
 225 555 194 525 159 525 c 0
 125 525 95 555 95 589 c 0
 95 625 124 655 159 655 c 0x00
371 655 m 0
 407 655 437 625 437 589 c 0
 437 555 406 525 371 525 c 0
 337 525 307 555 307 589 c 0
 307 625 336 655 371 655 c 0
EndSplineSet
Validated: 524289
Ligature2: "'ccmp' Glyph Composition/Decomposition in Latin lookup 49 subtable" y diaeresiscomb
EndChar

StartChar: Amacron
Encoding: 256 256 187
Width: 691
Flags: MW
HStem: 0 25<141 153 -43 -43> 208 40<185 370 185 377 162 370> 663 20<412 437 437 437> 760 70<280 589 263 605>
LayerCount: 2
Fore
SplineSet
617 0 m 1
 313 0 l 1
 313 25 l 1
 353 28 392 30 392 81 c 0
 392 123 383 167 377 208 c 1
 162 208 l 1
 146 180 88 97 88 60 c 0
 88 27 129 25 153 25 c 1
 153 0 l 1
 -43 0 l 1
 -43 25 l 1
 1 36 16 57 40 95 c 2
 412 683 l 1
 437 683 l 1
 533 111 l 2
 545 41 547 32 617 25 c 1
 617 0 l 1
185 248 m 1
 370 248 l 1
 333 491 l 1
 185 248 l 1
605 830 m 1
 589 760 l 1
 263 760 l 1
 280 830 l 1
 605 830 l 1
EndSplineSet
Validated: 1
EndChar

StartChar: amacron
Encoding: 257 257 188
Width: 500
Flags: MW
HStem: -14 71<285.5 374> 420 42<225 273 181 279> 553 70<152 461 135 477>
VStem: -21 123<102 149.5 102 179.5> 237 113<33.5 110>
LayerCount: 2
Fore
SplineSet
455 112 m 1
 425 64 367 -14 304 -14 c 0
 267 -14 237 15 237 52 c 0
 237 73 244 95 250 115 c 1
 248 114 l 1
 213 55 164 -13 88 -13 c 0
 11 -13 -21 48 -21 117 c 0
 -21 242 112 462 250 462 c 0
 296 462 319 437 325 394 c 1
 327 394 l 1
 344 449 l 1
 455 456 l 1
 440 406 350 148 350 72 c 0
 350 65 355 57 363 57 c 0
 385 57 422 111 434 127 c 1
 455 112 l 1
303 371 m 0
 303 393 292 420 266 420 c 0
 184 420 102 184 102 115 c 0
 102 89 116 58 146 58 c 0
 234 58 303 300 303 371 c 0
477 623 m 1
 461 553 l 1
 135 553 l 1
 152 623 l 1
 477 623 l 1
EndSplineSet
Validated: 1
EndChar

StartChar: Abreve
Encoding: 258 258 189
Width: 691
Flags: HMW
HStem: 0 25<141 153 -43 -43> 208 40<185 370 185 377 162 370> 663 20<412 437 437 437> 721 76<400 456> 864 20<295 339 339 339 554 598 598 598>
LayerCount: 2
Fore
SplineSet
617 0 m 1
 313 0 l 1
 313 25 l 1
 353 28 392 30 392 81 c 0
 392 123 383 167 377 208 c 1
 162 208 l 1
 146 180 88 97 88 60 c 0
 88 27 129 25 153 25 c 1
 153 0 l 1
 -43 0 l 1
 -43 25 l 1
 1 36 16 57 40 95 c 2
 412 683 l 1
 437 683 l 1
 533 111 l 2
 545 41 547 32 617 25 c 1
 617 0 l 1
185 248 m 1
 370 248 l 1
 333 491 l 1
 185 248 l 1
598 884 m 1
 569 793 507 721 405 721 c 0
 334 721 288 754 288 828 c 0
 288 847 290 866 295 884 c 1
 339 884 l 1
 338 869 l 2
 337.893909212 867.055002211 337.841593532 865.157526612 337.841593532 863.306644474 c 0
 337.841593532 812.818897657 376.768179808 797 425 797 c 0
 489 797 526 828 554 884 c 1
 598 884 l 1
EndSplineSet
Validated: 524289
EndChar

StartChar: abreve
Encoding: 259 259 190
Width: 500
Flags: HMW
HStem: -14 71<285.5 374> 420 42<225 273 181 279> 514 76<272 328> 657 20<167 211 211 211 426 470 470 470>
VStem: -21 123<102 149.5 102 179.5> 237 113<33.5 110>
LayerCount: 2
Fore
SplineSet
455 112 m 1
 425 64 367 -14 304 -14 c 0
 267 -14 237 15 237 52 c 0
 237 73 244 95 250 115 c 1
 248 114 l 1
 213 55 164 -13 88 -13 c 0
 11 -13 -21 48 -21 117 c 0
 -21 242 112 462 250 462 c 0
 296 462 319 437 325 394 c 1
 327 394 l 1
 344 449 l 1
 455 456 l 1
 440 406 350 148 350 72 c 0
 350 65 355 57 363 57 c 0
 385 57 422 111 434 127 c 1
 455 112 l 1
303 371 m 0
 303 393 292 420 266 420 c 0
 184 420 102 184 102 115 c 0
 102 89 116 58 146 58 c 0
 234 58 303 300 303 371 c 0
470 677 m 1
 441 586 379 514 277 514 c 0
 206 514 160 547 160 621 c 0
 160 640 162 659 167 677 c 1
 211 677 l 1
 210 662 l 2
 209.893909212 660.055002211 209.841593532 658.157526612 209.841593532 656.306644474 c 0
 209.841593532 605.818897657 248.768179808 590 297 590 c 0
 361 590 398 621 426 677 c 1
 470 677 l 1
EndSplineSet
Validated: 524289
EndChar

StartChar: Aogonek
Encoding: 260 260 191
Width: 691
GlyphClass: 3
Flags: MW
HStem: -173 69<651.5 656> 0 25<131 154 -42 -42> 208 40<186 371 186 378 163 371> 663 20G<413 438 438 438>
VStem: 524 84
LayerCount: 2
Fore
SplineSet
731 -84 m 1
 754 -98 l 1
 729 -144 681 -173 631 -173 c 0
 570 -173 525 -139 525 -92 c 0
 525 -65 534 -45 568 0 c 1
 314 0 l 1
 314 25 l 1
 378 31 393 42 393 84 c 0
 393 97 381 184 378 208 c 1
 163 208 l 1
 104 106 l 2
 94 89 89 73 89 60 c 0
 89 36 108 25 154 25 c 1
 154 0 l 1
 -42 0 l 1
 -42 25 l 1
 -6 33 9 46 41 95 c 2
 413 683 l 1
 438 683 l 1
 534 111 l 2
 547 35 552 30 618 25 c 1
 618 0 l 1
 612 -14 609 -25 609 -39 c 0
 609 -81 631 -104 672 -104 c 0
 700 -104 719 -89 731 -84 c 1
186 248 m 1
 371 248 l 1
 334 491 l 1
 186 248 l 1
EndSplineSet
Validated: 1
Ligature2: "'ccmp' Glyph Composition/Decomposition in Latin lookup 49 subtable" A uni0328
EndChar

StartChar: aogonek
Encoding: 261 261 192
Width: 500
GlyphClass: 3
Flags: MW
HStem: -173 69<398 402> -13 71<54.5 190> 442 20G<190.5 273.5>
VStem: -21 123<102 149.5 102 192> 271 84<-115.5 -29.5>
LayerCount: 2
Fore
SplineSet
303 371 m 0
 303 393 292 420 266 420 c 0
 184 420 102 184 102 115 c 0
 102 89 116 58 146 58 c 0
 234 58 303 300 303 371 c 0
434 127 m 1
 455 112 l 1
 430 74 419 60 390 27 c 0
 362 -3 355 -18 355 -41 c 0
 355 -82 378 -104 418 -104 c 0
 433 -104 444 -101 464 -91 c 0
 472 -87 473 -86 478 -84 c 1
 500 -98 l 1
 475 -144 427 -173 377 -173 c 0
 316 -173 271 -139 271 -92 c 0
 271 -67 278 -50 303 -14 c 1
 262 -10 237 15 237 52 c 0
 237 66 240 79 251 119 c 1
 194 24 148 -13 87 -13 c 0
 22 -13 -21 38 -21 114 c 0
 -21 270 129 462 252 462 c 0
 295 462 317 441 326 390 c 1
 344 449 l 1
 455 456 l 1
 384 220 l 2
 360 139 350 97 350 72 c 0
 350 63 355 57 362 57 c 0
 378 57 393 72 434 127 c 1
EndSplineSet
Validated: 1
Ligature2: "'ccmp' Glyph Composition/Decomposition in Latin lookup 49 subtable" a uni0328
EndChar

StartChar: Cacute
Encoding: 262 262 193
Width: 667
Flags: MW
HStem: -18 53<278.5 360> 650 35<375 473.5 322 511.5> 884 20<566 588>
VStem: 32 154<167.5 286.5 167.5 353.5>
LayerCount: 2
Fore
SplineSet
677 685 m 1
 626 451 l 1
 594 457 l 1
 596 468 597 480 597 491 c 0
 597 577 559 650 464 650 c 0
 286 650 186 359 186 214 c 0
 186 121 227 35 330 35 c 0
 427 35 488 79 546 153 c 1
 576 131 l 1
 515 38 416 -18 304 -18 c 0
 149 -18 32 80 32 240 c 0
 32 467 203 685 441 685 c 0
 506 685 569 656 607 656 c 0
 626 656 639 669 647 685 c 1
 677 685 l 1
432 723 m 1
 383 723 l 1
 505 854 l 2
 540 892 557 904 575 904 c 0
 601 904 623 882 623 857 c 0
 623 838 614 827 584 810 c 2
 432 723 l 1
EndSplineSet
Validated: 1
EndChar

StartChar: cacute
Encoding: 263 263 194
Width: 444
Flags: MW
HStem: -13 64<168.5 194> 429 33<226 275> 677 20<387 409>
VStem: -5 128<124.5 183 124.5 211> 293 99<405 405.5 354.5 418>
LayerCount: 2
Fore
SplineSet
392 374 m 0
 392 335 371 302 329 302 c 0
 299 302 272 323 272 354 c 0
 272 381 293 398 293 412 c 0
 293 424 280 429 270 429 c 0
 182 429 123 218 123 148 c 0
 123 101 141 51 196 51 c 0
 251 51 290 100 318 141 c 1
 346 123 l 1
 294 48 244 -13 144 -13 c 0
 54 -13 -5 52 -5 141 c 0
 -5 281 128 462 277 462 c 0
 331 462 392 437 392 374 c 0
253 516 m 1
 204 516 l 1
 326 647 l 2
 361 685 378 697 396 697 c 0
 422 697 444 675 444 650 c 0
 444 631 435 620 405 603 c 2
 253 516 l 1
EndSplineSet
Validated: 1
EndChar

StartChar: Ccircumflex
Encoding: 264 264 195
Width: 667
Flags: MW
HStem: -18 53<278.5 360> 650 35<375 473.5 322 511.5> 877 20<444 525 525 525>
VStem: 32 154<167.5 286.5 167.5 353.5>
LayerCount: 2
Fore
SplineSet
677 685 m 1
 626 451 l 1
 594 457 l 1
 596 468 597 480 597 491 c 0
 597 577 559 650 464 650 c 0
 286 650 186 359 186 214 c 0
 186 121 227 35 330 35 c 0
 427 35 488 79 546 153 c 1
 576 131 l 1
 515 38 416 -18 304 -18 c 0
 149 -18 32 80 32 240 c 0
 32 467 203 685 441 685 c 0
 506 685 569 656 607 656 c 0
 626 656 639 669 647 685 c 1
 677 685 l 1
560 723 m 1
 472 818 l 1
 341 723 l 1
 284 723 l 1
 444 897 l 1
 525 897 l 1
 611 723 l 1
 560 723 l 1
EndSplineSet
Validated: 1
EndChar

StartChar: ccircumflex
Encoding: 265 265 196
Width: 444
Flags: MW
HStem: -13 64<168.5 194> 429 33<226 275> 666 20<272 353 353 353>
VStem: -5 128<124.5 183 124.5 211> 293 99<405 405.5 354.5 418>
LayerCount: 2
Fore
SplineSet
392 374 m 0
 392 335 371 302 329 302 c 0
 299 302 272 323 272 354 c 0
 272 381 293 398 293 412 c 0
 293 424 280 429 270 429 c 0
 182 429 123 218 123 148 c 0
 123 101 141 51 196 51 c 0
 251 51 290 100 318 141 c 1
 346 123 l 1
 294 48 244 -13 144 -13 c 0
 54 -13 -5 52 -5 141 c 0
 -5 281 128 462 277 462 c 0
 331 462 392 437 392 374 c 0
388 512 m 1
 300 607 l 1
 169 512 l 1
 112 512 l 1
 272 686 l 1
 353 686 l 1
 439 512 l 1
 388 512 l 1
EndSplineSet
Validated: 1
EndChar

StartChar: Cdotaccent
Encoding: 266 266 197
Width: 667
Flags: MW
HStem: -18 53<278.5 360> 650 35<375 473.5 322 511.5> 732 130<454 488.5>
VStem: 32 154<167.5 286.5 167.5 353.5> 407 130<779 814>
LayerCount: 2
Fore
SplineSet
677 685 m 1
 626 451 l 1
 594 457 l 1
 596 468 597 480 597 491 c 0
 597 577 559 650 464 650 c 0
 286 650 186 359 186 214 c 0
 186 121 227 35 330 35 c 0
 427 35 488 79 546 153 c 1
 576 131 l 1
 515 38 416 -18 304 -18 c 0
 149 -18 32 80 32 240 c 0
 32 467 203 685 441 685 c 0
 506 685 569 656 607 656 c 0
 626 656 639 669 647 685 c 1
 677 685 l 1
471 862 m 0
 507 862 537 832 537 796 c 0
 537 762 506 732 471 732 c 0
 437 732 407 762 407 796 c 0
 407 832 436 862 471 862 c 0
EndSplineSet
Validated: 1
EndChar

StartChar: cdotaccent
Encoding: 267 267 198
Width: 444
Flags: MW
HStem: -13 64<168.5 194> 429 33<226 275>
VStem: -5 128<124.5 183 124.5 211> 293 99<405 405.5 354.5 418>
LayerCount: 2
Fore
SplineSet
392 374 m 0
 392 335 371 302 329 302 c 0
 299 302 272 323 272 354 c 0
 272 381 293 398 293 412 c 0
 293 424 280 429 270 429 c 0
 182 429 123 218 123 148 c 0
 123 101 141 51 196 51 c 0
 251 51 290 100 318 141 c 1
 346 123 l 1
 294 48 244 -13 144 -13 c 0
 54 -13 -5 52 -5 141 c 0
 -5 281 128 462 277 462 c 0
 331 462 392 437 392 374 c 0
292 642 m 0x00
 328 642 358 612 358 576 c 0
 358 542 327 512 292 512 c 0
 258 512 228 542 228 576 c 0
 228 612 257 642 292 642 c 0x00
EndSplineSet
Validated: 1
EndChar

StartChar: Ccaron
Encoding: 268 268 199
Width: 667
Flags: MW
HStem: -18 53<278.5 360> 650 35<375 473.5 322 511.5> 877 20<323 373 373 373 599 655 655 655>
VStem: 32 154<167.5 286.5 167.5 353.5>
LayerCount: 2
Fore
SplineSet
677 685 m 1
 626 451 l 1
 594 457 l 1
 596 468 597 480 597 491 c 0
 597 577 559 650 464 650 c 0
 286 650 186 359 186 214 c 0
 186 121 227 35 330 35 c 0
 427 35 488 79 546 153 c 1
 576 131 l 1
 515 38 416 -18 304 -18 c 0
 149 -18 32 80 32 240 c 0
 32 467 203 685 441 685 c 0
 506 685 569 656 607 656 c 0
 626 656 639 669 647 685 c 1
 677 685 l 1
655 897 m 1
 493 723 l 1
 411 723 l 1
 323 897 l 1
 373 897 l 1
 464 800 l 1
 599 897 l 1
 655 897 l 1
EndSplineSet
Validated: 1
EndChar

StartChar: ccaron
Encoding: 269 269 200
Width: 444
Flags: MW
HStem: -13 64<168.5 194> 429 33<226 275> 670 20<136 186 186 186 412 468 468 468>
VStem: -5 128<124.5 183 124.5 211> 293 99<405 405.5 354.5 418>
LayerCount: 2
Fore
SplineSet
392 374 m 0
 392 335 371 302 329 302 c 0
 299 302 272 323 272 354 c 0
 272 381 293 398 293 412 c 0
 293 424 280 429 270 429 c 0
 182 429 123 218 123 148 c 0
 123 101 141 51 196 51 c 0
 251 51 290 100 318 141 c 1
 346 123 l 1
 294 48 244 -13 144 -13 c 0
 54 -13 -5 52 -5 141 c 0
 -5 281 128 462 277 462 c 0
 331 462 392 437 392 374 c 0
468 690 m 1
 306 516 l 1
 224 516 l 1
 136 690 l 1
 186 690 l 1
 277 593 l 1
 412 690 l 1
 468 690 l 1
EndSplineSet
Validated: 1
EndChar

StartChar: Dcaron
Encoding: 270 270 201
Width: 744
Flags: HMW
HStem: 0 34<245.5 262> 638 31<383 406 406 459> 877 20<291 341 341 341 567 623 623 623>
VStem: 560 147<361.5 484.5 267 507.5>
LayerCount: 2
Fore
SplineSet
707 391 m 0
 707 143 493 0 262 0 c 2
 -24 0 l 1
 -24 25 l 1
 26 30 43 50 56 97 c 2
 188 582 l 2
 189.766038833 588.593211643 190.575617097 594.451750676 190.575617097 599.662114454 c 0
 190.575617097 638.706415533 145.114714567 641.353207767 116 644 c 1
 116 669 l 1
 406 669 l 2
 585 669 707 578 707 391 c 0
560 453 m 0
 560 562 520 638 398 638 c 0
 368 638 349 633 340 600 c 2
 212 126 l 2
 207 107 199 88 199 69 c 0
 199 35 233 34 258 34 c 0
 475 34 560 270 560 453 c 0
623 897 m 1
 461 723 l 1
 379 723 l 1
 291 897 l 1
 341 897 l 1
 432 800 l 1
 567 897 l 1
 623 897 l 1
EndSplineSet
Validated: 524289
EndChar

StartChar: dcaron
Encoding: 271 271 202
Width: 642
GlyphClass: 3
Flags: HMW
HStem: -13 72<50 185> 420 42<227 264 179 284>
VStem: -21 124<105.5 154 105.5 176> 240 109<31 85> 586 78<511 623.5>
LayerCount: 2
Fore
SplineSet
492 401 m 1
 480 422 l 1
 551 460 586 495 586 527 c 0
 586 540 579 549 559 562 c 0
 532 581 523 595 523 619 c 0
 523 657 550 685 587 685 c 0
 633 685 664 650 664 597 c 0
 664 524 596 447 492 401 c 1
517 699 m 1
 406 294 l 2
 396 258 349 97 349 73 c 0
 349 66 353 59 361 59 c 0
 381 59 417 114 427 131 c 1
 449 115 l 1
 418 64 366 -11 300 -11 c 0
 263 -11 240 12 240 50 c 0
 240 72 245 94 250 115 c 1
 248 114 l 1
 212 53 164 -13 85 -13 c 0
 15 -13 -21 51 -21 114 c 0
 -21 238 110 462 248 462 c 0
 280 462 301 452 323 429 c 1
 331 458 370 591 370 613 c 0
 370 640.523809524 345.097505669 643.145124717 322.878738797 643.145124717 c 0
 317.650793651 643.145124717 312.571428571 643 308 643 c 1
 308 670 l 1
 378 676 448 683 517 699 c 1
308 368 m 0
 308 391 298 420 270 420 c 0
 184 420 103 190 103 118 c 0
 103 93 114 59 145 59 c 0
 225 59 308 300 308 368 c 0
EndSplineSet
Validated: 524289
Ligature2: "'ccmp' Glyph Composition/Decomposition in Latin lookup 49 subtable" d caroncomb
EndChar

StartChar: Dcroat
Encoding: 272 272 203
Width: 722
Flags: HMW
HStem: 0 34<223 255> 329 44<22 112 10 124 272 382> 638 31<372 399 399 443.5>
VStem: 553 147<400 481.5 282.5 518>
LayerCount: 2
Fore
SplineSet
109 644 m 1
 109 669 l 1
 399 669 l 2
 588 669 700 567 700 396 c 0
 700 169 510 0 255 0 c 2
 -31 0 l 1
 -31 25 l 1
 18 31 34 46 49 97 c 2
 112 329 l 1
 10 329 l 1
 22 373 l 1
 124 373 l 1
 180 582 l 2
 181.788384014 588.482892051 182.602280701 594.266152174 182.602280701 599.42798103 c 0
 182.602280701 640.447096003 131.205649978 642.223548002 109 644 c 1
192 76 m 2
 191.137219509 72.8364715323 190.687989115 69.7142980743 190.687989115 66.6870000696 c 0
 190.687989115 48.6616801564 206.614650433 34 246 34 c 0
 341 34 412 71 465 147 c 0
 519 224 553 343 553 457 c 0
 553 579 499 638 388 638 c 0
 356 638 340 627 333 600 c 2
 272 373 l 1
 394 373 l 1
 382 329 l 1
 260 329 l 1
 192 76 l 2
EndSplineSet
Validated: 524289
EndChar

StartChar: dcroat
Encoding: 273 273 204
Width: 500
Flags: HMW
HStem: -13 72<53.5 185> 420 42<227 264.5 189 284> 513 31<214 344 205 352 473 531>
VStem: -21 124
LayerCount: 2
Fore
SplineSet
308 368 m 0
 308 391 298 420 270 420 c 0
 184 420 103 190 103 118 c 0
 103 93 114 59 145 59 c 0
 225 59 308 300 308 368 c 0
359.50732358 59.0101289946 m 0
 374.559781459 59.606545686 399.302146701 86.5035759508 426 131 c 1
 448 115 l 1
 393 27 348 -11 299 -11 c 0
 261 -11 239 12 239 51 c 0
 239 66 242 81 250 118 c 1
 193 23 147 -13 84 -13 c 0
 23 -13 -22 40 -22 112 c 0
 -22 269 128 462 250 462 c 0
 279 462 298 453 322 429 c 1
 344 513 l 1
 205 513 l 1
 214 544 l 1
 352 544 l 1
 356 557 369 608 369 615 c 0
 369 633 354 643 328 643 c 2
 307 643 l 1
 307 670 l 1
 407 678 456 685 516 699 c 1
 473 544 l 1
 539 544 l 1
 531 513 l 1
 465 513 l 1
 351 91 l 2
 349.32455532 84.8567028412 348.584815599 79.6491106407 348.584815599 75.3336755679 c 0
 348.584815599 64.4787038038 353.265260768 59.2685452054 359.50732358 59.0101289946 c 0
EndSplineSet
Validated: 524289
EndChar

StartChar: Emacron
Encoding: 274 274 205
Width: 670
Flags: HMW
HStem: 0 32<246 325.5 246 527> 338 32<275 295 275 304.5> 637 32<376 457> 760 70<288 597 271 613>
LayerCount: 2
Fore
SplineSet
653 669 m 1
 610 479 l 1
 583 484 l 1
 583 615 520 637 394 637 c 0
 358 637 345 627 336 593 c 2
 275 370 l 1
 295 370 l 2
 298.607208159 369.966906347 302.123515561 369.949145352 305.552800294 369.949145352 c 0
 405.747154504 369.949145352 431.654682642 385.110803367 480 476 c 1
 508 472 l 1
 434 199 l 1
 406 204 l 1
 408 217 410 231 410 244 c 0
 410 337 343 338 266 338 c 1
 260 314 195 96 195 68 c 0
 195 32 232 32 260 32 c 0
 391 32 497 82 561 199 c 1
 586 194 l 1
 527 0 l 1
 -27 0 l 1
 -27 25 l 1
 24 34 39 45 53 97 c 2
 176 546 l 2
 181 563 186 584 186 602 c 0
 186 644 145 640 113 644 c 1
 113 669 l 1
 653 669 l 1
613 830 m 1
 597 760 l 1
 271 760 l 1
 288 830 l 1
 613 830 l 1
EndSplineSet
Validated: 524289
EndChar

StartChar: emacron
Encoding: 275 275 206
Width: 444
Flags: MW
HStem: -13 64<176.5 202.5> 429 33<243.5 288> 553 70<164 473 147 489>
VStem: 5 130<109.5 141.5 109.5 214.5> 306 92<347.5 401.5 315 404.5>
LayerCount: 2
Fore
SplineSet
398 372 m 0
 398 258 230 196 141 182 c 1
 137 166 135 150 135 133 c 0
 135 86 151 51 202 51 c 0
 255 51 291 103 317 142 c 1
 346 125 l 1
 301 51 250 -13 155 -13 c 0
 65 -13 5 52 5 141 c 0
 5 288 141 462 295 462 c 0
 349 462 398 431 398 372 c 0
306 395 m 0
 306 414 299 429 277 429 c 0
 210 429 160 267 148 214 c 1
 235 237 306 300 306 395 c 0
489 623 m 1
 473 553 l 1
 147 553 l 1
 164 623 l 1
 489 623 l 1
EndSplineSet
Validated: 1
EndChar

StartChar: Ebreve
Encoding: 276 276 207
Width: 670
Flags: HMW
HStem: 0 32<246 325.5 246 527> 338 32<275 295 275 304.5> 637 32<376 457> 721 76<408 464> 864 20<303 347 347 347 562 606 606 606>
LayerCount: 2
Fore
SplineSet
653 669 m 1
 610 479 l 1
 583 484 l 1
 583 615 520 637 394 637 c 0
 358 637 345 627 336 593 c 2
 275 370 l 1
 295 370 l 2
 298.607208159 369.966906347 302.123515561 369.949145352 305.552800294 369.949145352 c 0
 405.747154504 369.949145352 431.654682642 385.110803367 480 476 c 1
 508 472 l 1
 434 199 l 1
 406 204 l 1
 408 217 410 231 410 244 c 0
 410 337 343 338 266 338 c 1
 260 314 195 96 195 68 c 0
 195 32 232 32 260 32 c 0
 391 32 497 82 561 199 c 1
 586 194 l 1
 527 0 l 1
 -27 0 l 1
 -27 25 l 1
 24 34 39 45 53 97 c 2
 176 546 l 2
 181 563 186 584 186 602 c 0
 186 644 145 640 113 644 c 1
 113 669 l 1
 653 669 l 1
606 884 m 1
 577 793 515 721 413 721 c 0
 342 721 296 754 296 828 c 0
 296 847 298 866 303 884 c 1
 347 884 l 1
 346 869 l 2
 345.893909212 867.055002211 345.841593532 865.157526612 345.841593532 863.306644474 c 0
 345.841593532 812.818897657 384.768179808 797 433 797 c 0
 497 797 534 828 562 884 c 1
 606 884 l 1
EndSplineSet
Validated: 524289
EndChar

StartChar: ebreve
Encoding: 277 277 208
Width: 444
Flags: HMW
HStem: -13 64<176.5 202.5> 429 33<243.5 288> 510 76<284 340> 653 20<179 223 223 223 438 482 482 482>
VStem: 5 130<109.5 141.5 109.5 214.5> 306 92<347.5 401.5 315 404.5>
LayerCount: 2
Fore
SplineSet
398 372 m 0
 398 258 230 196 141 182 c 1
 137 166 135 150 135 133 c 0
 135 86 151 51 202 51 c 0
 255 51 291 103 317 142 c 1
 346 125 l 1
 301 51 250 -13 155 -13 c 0
 65 -13 5 52 5 141 c 0
 5 288 141 462 295 462 c 0
 349 462 398 431 398 372 c 0
306 395 m 0
 306 414 299 429 277 429 c 0
 210 429 160 267 148 214 c 1
 235 237 306 300 306 395 c 0
482 673 m 1
 453 582 391 510 289 510 c 0
 218 510 172 543 172 617 c 0
 172 636 174 655 179 673 c 1
 223 673 l 1
 222 658 l 2
 221.893909212 656.055002211 221.841593532 654.157526612 221.841593532 652.306644474 c 0
 221.841593532 601.818897657 260.768179808 586 309 586 c 0
 373 586 410 617 438 673 c 1
 482 673 l 1
EndSplineSet
Validated: 524289
EndChar

StartChar: Edotaccent
Encoding: 278 278 209
Width: 670
Flags: HMW
HStem: 0 32<246 325.5 246 527> 338 32<275 295 275 304.5> 637 32<376 457> 732 130<430 464.5>
VStem: 383 130<779 814>
LayerCount: 2
Fore
SplineSet
653 669 m 1
 610 479 l 1
 583 484 l 1
 583 615 520 637 394 637 c 0
 358 637 345 627 336 593 c 2
 275 370 l 1
 295 370 l 2
 298.607208159 369.966906347 302.123515561 369.949145352 305.552800294 369.949145352 c 0
 405.747154504 369.949145352 431.654682642 385.110803367 480 476 c 1
 508 472 l 1
 434 199 l 1
 406 204 l 1
 408 217 410 231 410 244 c 0
 410 337 343 338 266 338 c 1
 260 314 195 96 195 68 c 0
 195 32 232 32 260 32 c 0
 391 32 497 82 561 199 c 1
 586 194 l 1
 527 0 l 1
 -27 0 l 1
 -27 25 l 1
 24 34 39 45 53 97 c 2
 176 546 l 2
 181 563 186 584 186 602 c 0
 186 644 145 640 113 644 c 1
 113 669 l 1
 653 669 l 1
447 862 m 0
 483 862 513 832 513 796 c 0
 513 762 482 732 447 732 c 0
 413 732 383 762 383 796 c 0
 383 832 412 862 447 862 c 0
EndSplineSet
Validated: 524289
EndChar

StartChar: edotaccent
Encoding: 279 279 210
Width: 444
Flags: MW
HStem: -13 64<176.5 202.5> 429 33<243.5 288>
VStem: 5 130<109.5 141.5 109.5 214.5> 306 92<347.5 401.5 315 404.5>
LayerCount: 2
Fore
SplineSet
398 372 m 0
 398 258 230 196 141 182 c 1
 137 166 135 150 135 133 c 0
 135 86 151 51 202 51 c 0
 255 51 291 103 317 142 c 1
 346 125 l 1
 301 51 250 -13 155 -13 c 0
 65 -13 5 52 5 141 c 0
 5 288 141 462 295 462 c 0
 349 462 398 431 398 372 c 0
306 395 m 0
 306 414 299 429 277 429 c 0
 210 429 160 267 148 214 c 1
 235 237 306 300 306 395 c 0
323 655 m 0x00
 359 655 389 625 389 589 c 0
 389 555 358 525 323 525 c 0
 289 525 259 555 259 589 c 0
 259 625 288 655 323 655 c 0x00
EndSplineSet
Validated: 1
EndChar

StartChar: Eogonek
Encoding: 280 280 211
Width: 667
GlyphClass: 3
Flags: HMW
HStem: -173 69<566 569> 0 32<235.5 300 235.5 481> 637 32<379.5 436.5>
VStem: 438 84
LayerCount: 2
Fore
SplineSet
186 606 m 1
 187 606 l 1
 187 635 162 637 114 644 c 1
 114 669 l 1
 654 669 l 1
 611 479 l 1
 584 484 l 1
 584 546 577 571 554 595 c 0
 527 622 473 637 400 637 c 0
 359 637 347 628 337 593 c 2
 276 370 l 1
 280.368362175 369.966906347 284.620634225 369.949145352 288.761419116 369.949145352 c 0
 409.743868935 369.949145352 435.555401683 385.110803367 481 476 c 1
 509 472 l 1
 435 199 l 1
 407 204 l 1
 410 223 411 234 411 248 c 0
 411 317 381 336 267 338 c 1
 211 129 l 2
 210 125 196 75 196 66 c 0
 196 42 214 32 257 32 c 0
 343 32 411 51 467 90 c 0
 506 117 527 142 562 199 c 1
 587 194 l 1
 540 41 l 2
 527 -1 523 -23 523 -41 c 0
 523 -82 546 -104 586 -104 c 0
 614 -104 633 -89 645 -84 c 1
 667 -98 l 1
 642 -144 594 -173 544 -173 c 0
 483 -173 438 -139 438 -92 c 0
 438 -65 447 -45 481 0 c 1
 -27 0 l 1
 -27 25 l 1
 25 33 37 44 53 97 c 2
 176 546 l 2
 182 568 186 591 186 606 c 1
EndSplineSet
Validated: 524289
Ligature2: "'ccmp' Glyph Composition/Decomposition in Latin lookup 49 subtable" E uni0328
EndChar

StartChar: eogonek
Encoding: 281 281 212
Width: 444
GlyphClass: 3
Flags: MW
HStem: -173 69<301 306> -13 64<112.5 221> 429 33<243.5 288>
VStem: 5 130<106 141 106 216.5> 175 84<-115.5 -20> 306 92<357.5 400.5 357.5 404.5>
LayerCount: 2
Fore
SplineSet
306 395 m 0
 306 414 299 429 277 429 c 0
 210 429 160 267 148 214 c 1
 235 237 306 300 306 395 c 0
317 142 m 1
 346 125 l 1
 324 89 314 74 296 52 c 0
 266 15 259 -3 259 -37 c 0
 259 -81 280 -104 322 -104 c 0
 337 -104 348 -101 368 -91 c 0
 376 -87 377 -86 382 -84 c 1
 404 -98 l 1
 379 -144 331 -173 281 -173 c 0
 220 -173 175 -139 175 -92 c 0
 175 -65 184 -46 216 -3 c 1
 193 -10 177 -13 156 -13 c 0
 69 -13 5 50 5 134 c 0
 5 299 149 462 293 462 c 0
 354 462 398 426 398 375 c 0
 398 340 379 302 344 270 c 0
 294 224 245 202 141 182 c 1
 137 162 135 149 135 133 c 0
 135 79 157 51 200 51 c 0
 242 51 270 73 317 142 c 1
EndSplineSet
Validated: 1
Ligature2: "'ccmp' Glyph Composition/Decomposition in Latin lookup 49 subtable" e uni0328
EndChar

StartChar: Ecaron
Encoding: 282 282 213
Width: 670
Flags: HMW
HStem: 0 32<246 325.5 246 527> 338 32<275 295 275 304.5> 637 32<376 457> 877 20<299 349 349 349 575 631 631 631>
LayerCount: 2
Fore
SplineSet
653 669 m 1
 610 479 l 1
 583 484 l 1
 583 615 520 637 394 637 c 0
 358 637 345 627 336 593 c 2
 275 370 l 1
 295 370 l 2
 298.607208159 369.966906347 302.123515561 369.949145352 305.552800294 369.949145352 c 0
 405.747154504 369.949145352 431.654682642 385.110803367 480 476 c 1
 508 472 l 1
 434 199 l 1
 406 204 l 1
 408 217 410 231 410 244 c 0
 410 337 343 338 266 338 c 1
 260 314 195 96 195 68 c 0
 195 32 232 32 260 32 c 0
 391 32 497 82 561 199 c 1
 586 194 l 1
 527 0 l 1
 -27 0 l 1
 -27 25 l 1
 24 34 39 45 53 97 c 2
 176 546 l 2
 181 563 186 584 186 602 c 0
 186 644 145 640 113 644 c 1
 113 669 l 1
 653 669 l 1
631 897 m 1
 469 723 l 1
 387 723 l 1
 299 897 l 1
 349 897 l 1
 440 800 l 1
 575 897 l 1
 631 897 l 1
EndSplineSet
Validated: 524289
EndChar

StartChar: ecaron
Encoding: 283 283 214
Width: 444
Flags: MW
HStem: -13 64<176.5 202.5> 429 33<243.5 288> 670 20<175 225 225 225 451 507 507 507>
VStem: 5 130<109.5 141.5 109.5 214.5> 306 92<347.5 401.5 315 404.5>
LayerCount: 2
Fore
SplineSet
398 372 m 0
 398 258 230 196 141 182 c 1
 137 166 135 150 135 133 c 0
 135 86 151 51 202 51 c 0
 255 51 291 103 317 142 c 1
 346 125 l 1
 301 51 250 -13 155 -13 c 0
 65 -13 5 52 5 141 c 0
 5 288 141 462 295 462 c 0
 349 462 398 431 398 372 c 0
306 395 m 0
 306 414 299 429 277 429 c 0
 210 429 160 267 148 214 c 1
 235 237 306 300 306 395 c 0
507 690 m 1
 345 516 l 1
 263 516 l 1
 175 690 l 1
 225 690 l 1
 316 593 l 1
 451 690 l 1
 507 690 l 1
EndSplineSet
Validated: 1
EndChar

StartChar: Gcircumflex
Encoding: 284 284 215
Width: 722
Flags: MW
HStem: -18 38<284 355 284 366.5> 649 36<362.5 458 325.5 514> 877 20<444 525 525 525>
VStem: 21 156<165 277 149 368>
LayerCount: 2
Fore
SplineSet
706 304 m 1
 645 301 641 276 627 222 c 2
 579 41 l 1
 499 3 411 -18 322 -18 c 0
 156 -18 21 77 21 253 c 0
 21 483 209 685 442 685 c 0
 474 685 507 682 538 674 c 0
 561 669 585 655 608 655 c 0
 628 655 643 667 650 685 c 1
 681 685 l 1
 630 464 l 1
 601 468 l 1
 601 566 570 649 458 649 c 0
 267 649 177 353 177 201 c 0
 177 97 230 20 338 20 c 0
 372 20 418 27 439 56 c 0
 449 70 493 240 493 262 c 0
 493 304 451 302 419 304 c 1
 419 330 l 1
 706 330 l 1
 706 304 l 1
560 723 m 1
 472 818 l 1
 341 723 l 1
 284 723 l 1
 444 897 l 1
 525 897 l 1
 611 723 l 1
 560 723 l 1
EndSplineSet
Validated: 1
EndChar

StartChar: gcircumflex
Encoding: 285 285 216
Width: 500
Flags: MW
HStem: -203 34<120.5 167 120.5 176.5> -26 20<98.5 117.5> 153 31<188.5 229 176 248.5> 373 56<411 478 411 411> 431 31<221 271>
LayerCount: 2
Fore
SplineSet
478 373 m 1
 411 373 l 1
 415 359 417 345 417 330 c 0
 417 214 300 153 197 153 c 0
 180 153 165 161 149 161 c 0
 136 161 122 139 122 127 c 0
 122 60 375 91 375 -55 c 0
 375 -171 221 -203 132 -203 c 0
 69 -203 -52 -183 -52 -100 c 0
 -52 -26 19 -8 78 6 c 1
 78 8 l 1
 48 18 19 37 19 72 c 0
 19 124 76 148 115 170 c 1
 65 189 35 229 35 283 c 0
 35 398 158 462 259 462 c 0
 297 462 337 453 367 429 c 1
 478 429 l 1
 478 373 l 1
300 369 m 0
 300 398 288 431 254 431 c 0
 188 431 151 301 151 248 c 0
 151 218 157 184 195 184 c 0
 263 184 300 315 300 369 c 0
266 -99 m 0
 266 -72 248 -54 225 -43 c 0
 214 -38 122 -6 113 -6 c 0
 84 -6 35 -61 35 -90 c 0
 35 -146 97 -169 144 -169 c 0
 190 -169 266 -160 266 -99 c 0
400 516 m 1x00
 312 611 l 1
 181 516 l 1
 124 516 l 1
 284 690 l 1
 365 690 l 1
 451 516 l 1
 400 516 l 1x00
EndSplineSet
Validated: 1
EndChar

StartChar: Gbreve
Encoding: 286 286 217
Width: 722
Flags: HMW
HStem: -18 38<284 355 284 366.5> 649 36<362.5 458 325.5 514> 721 76<432 488> 864 20<327 371 371 371 586 630 630 630>
VStem: 21 156<165 277 149 368>
LayerCount: 2
Fore
SplineSet
706 304 m 1
 645 301 641 276 627 222 c 2
 579 41 l 1
 499 3 411 -18 322 -18 c 0
 156 -18 21 77 21 253 c 0
 21 483 209 685 442 685 c 0
 474 685 507 682 538 674 c 0
 561 669 585 655 608 655 c 0
 628 655 643 667 650 685 c 1
 681 685 l 1
 630 464 l 1
 601 468 l 1
 601 566 570 649 458 649 c 0
 267 649 177 353 177 201 c 0
 177 97 230 20 338 20 c 0
 372 20 418 27 439 56 c 0
 449 70 493 240 493 262 c 0
 493 304 451 302 419 304 c 1
 419 330 l 1
 706 330 l 1
 706 304 l 1
630 884 m 1
 601 793 539 721 437 721 c 0
 366 721 320 754 320 828 c 0
 320 847 322 866 327 884 c 1
 371 884 l 1
 370 869 l 2
 369.893909212 867.055002211 369.841593532 865.157526612 369.841593532 863.306644474 c 0
 369.841593532 812.818897657 408.768179808 797 457 797 c 0
 521 797 558 828 586 884 c 1
 630 884 l 1
EndSplineSet
Validated: 524289
EndChar

StartChar: gbreve
Encoding: 287 287 218
Width: 500
Flags: HMW
HStem: -203 34<120.5 167 120.5 176.5> -26 20<98.5 117.5> 153 31<188.5 229 176 248.5> 373 56<411 478 411 411> 431 31<221 271>
LayerCount: 2
Fore
SplineSet
478 373 m 1
 411 373 l 1
 415 359 417 345 417 330 c 0
 417 214 300 153 197 153 c 0
 180 153 165 161 149 161 c 0
 136 161 122 139 122 127 c 0
 122 60 375 91 375 -55 c 0
 375 -171 221 -203 132 -203 c 0
 69 -203 -52 -183 -52 -100 c 0
 -52 -26 19 -8 78 6 c 1
 78 8 l 1
 48 18 19 37 19 72 c 0
 19 124 76 148 115 170 c 1
 65 189 35 229 35 283 c 0
 35 398 158 462 259 462 c 0
 297 462 337 453 367 429 c 1
 478 429 l 1
 478 373 l 1
300 369 m 0
 300 398 288 431 254 431 c 0
 188 431 151 301 151 248 c 0
 151 218 157 184 195 184 c 0
 263 184 300 315 300 369 c 0
266 -99 m 0
 266 -72 248 -54 225 -43 c 0
 214 -38 122 -6 113 -6 c 0
 84 -6 35 -61 35 -90 c 0
 35 -146 97 -169 144 -169 c 0
 190 -169 266 -160 266 -99 c 0
470 677 m 1x00
 441 586 379 514 277 514 c 0
 206 514 160 547 160 621 c 0
 160 640 162 659 167 677 c 1
 211 677 l 1
 210 662 l 2
 209.893909212 660.055002211 209.841593532 658.157526612 209.841593532 656.306644474 c 0
 209.841593532 605.818897657 248.768179808 590 297 590 c 0
 361 590 398 621 426 677 c 1
 470 677 l 1x00
EndSplineSet
Validated: 524289
EndChar

StartChar: Gdotaccent
Encoding: 288 288 219
Width: 722
Flags: MW
HStem: -18 38<284 355 284 366.5> 649 36<362.5 458 325.5 514> 732 130<454 488.5>
VStem: 21 156<165 277 149 368> 407 130<779 814>
LayerCount: 2
Fore
SplineSet
706 304 m 1
 645 301 641 276 627 222 c 2
 579 41 l 1
 499 3 411 -18 322 -18 c 0
 156 -18 21 77 21 253 c 0
 21 483 209 685 442 685 c 0
 474 685 507 682 538 674 c 0
 561 669 585 655 608 655 c 0
 628 655 643 667 650 685 c 1
 681 685 l 1
 630 464 l 1
 601 468 l 1
 601 566 570 649 458 649 c 0
 267 649 177 353 177 201 c 0
 177 97 230 20 338 20 c 0
 372 20 418 27 439 56 c 0
 449 70 493 240 493 262 c 0
 493 304 451 302 419 304 c 1
 419 330 l 1
 706 330 l 1
 706 304 l 1
471 862 m 0
 507 862 537 832 537 796 c 0
 537 762 506 732 471 732 c 0
 437 732 407 762 407 796 c 0
 407 832 436 862 471 862 c 0
EndSplineSet
Validated: 1
EndChar

StartChar: gdotaccent
Encoding: 289 289 220
Width: 500
Flags: MW
HStem: -203 34<120.5 167 120.5 176.5> -26 20<98.5 117.5> 153 31<188.5 229 176 248.5> 373 56<411 478 411 411> 431 31<221 271>
LayerCount: 2
Fore
SplineSet
478 373 m 1
 411 373 l 1
 415 359 417 345 417 330 c 0
 417 214 300 153 197 153 c 0
 180 153 165 161 149 161 c 0
 136 161 122 139 122 127 c 0
 122 60 375 91 375 -55 c 0
 375 -171 221 -203 132 -203 c 0
 69 -203 -52 -183 -52 -100 c 0
 -52 -26 19 -8 78 6 c 1
 78 8 l 1
 48 18 19 37 19 72 c 0
 19 124 76 148 115 170 c 1
 65 189 35 229 35 283 c 0
 35 398 158 462 259 462 c 0
 297 462 337 453 367 429 c 1
 478 429 l 1
 478 373 l 1
300 369 m 0
 300 398 288 431 254 431 c 0
 188 431 151 301 151 248 c 0
 151 218 157 184 195 184 c 0
 263 184 300 315 300 369 c 0
266 -99 m 0
 266 -72 248 -54 225 -43 c 0
 214 -38 122 -6 113 -6 c 0
 84 -6 35 -61 35 -90 c 0
 35 -146 97 -169 144 -169 c 0
 190 -169 266 -160 266 -99 c 0
311 655 m 0x00
 347 655 377 625 377 589 c 0
 377 555 346 525 311 525 c 0
 277 525 247 555 247 589 c 0
 247 625 276 655 311 655 c 0x00
EndSplineSet
Validated: 1
EndChar

StartChar: Gcedilla
Encoding: 290 290 221
Width: 722
GlyphClass: 3
Flags: MW
HStem: -18 38<284 355 284 366.5> 649 36<362.5 458 325.5 514>
VStem: 21 156<165 277 149 368> 279 64<-172.5 -91>
LayerCount: 2
Fore
SplineSet
213 -234 m 1
 206 -218 l 1
 245 -208 279 -187 279 -158 c 0
 279 -150 275 -144 267 -141 c 0
 248 -134 222 -121 222 -93 c 0
 222 -60 246 -40 275 -40 c 0
 316 -40 343 -70 343 -112 c 0
 343 -176 277 -218 213 -234 c 1
706 304 m 1
 645 301 641 276 627 222 c 2
 579 41 l 1
 499 3 411 -18 322 -18 c 0
 156 -18 21 77 21 253 c 0
 21 483 209 685 442 685 c 0
 474 685 507 682 538 674 c 0
 561 669 585 655 608 655 c 0
 628 655 643 667 650 685 c 1
 681 685 l 1
 630 464 l 1
 601 468 l 1
 601 566 570 649 458 649 c 0
 267 649 177 353 177 201 c 0
 177 97 230 20 338 20 c 0
 372 20 418 27 439 56 c 0
 449 70 493 240 493 262 c 0
 493 304 451 302 419 304 c 1
 419 330 l 1
 706 330 l 1
 706 304 l 1
EndSplineSet
Validated: 1
Ligature2: "'ccmp' Glyph Composition/Decomposition in Latin lookup 49 subtable" G uni0327
EndChar

StartChar: gcedilla
Encoding: 291 291 222
Width: 500
GlyphClass: 3
Flags: MW
HStem: -203 34<120.5 167 120.5 176.5> -26 20<98.5 117.5> 153 31<188.5 229 176 248.5> 373 56<411 478 411 411> 431 31<221 271>
LayerCount: 2
Fore
SplineSet
478 373 m 1
 411 373 l 1
 415 359 417 345 417 330 c 0
 417 214 300 153 197 153 c 0
 180 153 165 161 149 161 c 0
 136 161 122 139 122 127 c 0
 122 60 375 91 375 -55 c 0
 375 -171 221 -203 132 -203 c 0
 69 -203 -52 -183 -52 -100 c 0
 -52 -26 19 -8 78 6 c 1
 78 8 l 1
 48 18 19 37 19 72 c 0
 19 124 76 148 115 170 c 1
 65 189 35 229 35 283 c 0
 35 398 158 462 259 462 c 0
 297 462 337 453 367 429 c 1
 478 429 l 1
 478 373 l 1
300 369 m 0
 300 398 288 431 254 431 c 0
 188 431 151 301 151 248 c 0
 151 218 157 184 195 184 c 0
 263 184 300 315 300 369 c 0
266 -99 m 0
 266 -72 248 -54 225 -43 c 0
 214 -38 122 -6 113 -6 c 0
 84 -6 35 -61 35 -90 c 0
 35 -146 97 -169 144 -169 c 0
 190 -169 266 -160 266 -99 c 0
403 800 m 1x00
 415 779 l 1
 344 741 309 706 309 674 c 0
 309 661 316 652 336 639 c 0
 363 620 372 606 372 582 c 0
 372 544 345 516 308 516 c 0
 262 516 231 551 231 604 c 0
 231 677 299 754 403 800 c 1x00
EndSplineSet
Validated: 1
Ligature2: "'ccmp' Glyph Composition/Decomposition in Latin lookup 49 subtable" g uni0327
EndChar

StartChar: Hcircumflex
Encoding: 292 292 223
Width: 778
Flags: MW
HStem: 0 21<-24 272 -24 -24 340 657 340 340> 329 44<278 505 266 517> 649 20<116 433 433 433 501 799 799 799> 877 20<488 569 569 569>
LayerCount: 2
Fore
SplineSet
574 607 m 0
 574 635 554 636 501 644 c 1
 501 669 l 1
 799 669 l 1
 799 644 l 1
 748 637 733 625 718 572 c 2
 603 153 l 2
 589 103 584 80 584 66 c 0
 584 37 602 27 657 25 c 1
 657 0 l 1
 340 0 l 1
 340 25 l 1
 407 29 427 43 441 97 c 2
 505 329 l 1
 266 329 l 1
 212 132 l 2
 203 100 199 82 199 68 c 0
 199 36 209 30 272 25 c 1
 272 0 l 1
 -24 0 l 1
 -24 25 l 1
 26 32 42 44 56 97 c 2
 178 546 l 2
 185 572 189 593 189 604 c 0
 189 635 168 637 116 644 c 1
 116 669 l 1
 433 669 l 1
 433 644 l 1
 368 642 348 627 332 572 c 2
 278 373 l 1
 517 373 l 1
 564 546 l 2
 569 564 574 595 574 607 c 0
604 723 m 1
 516 818 l 1
 385 723 l 1
 328 723 l 1
 488 897 l 1
 569 897 l 1
 655 723 l 1
 604 723 l 1
EndSplineSet
Validated: 1
EndChar

StartChar: hcircumflex
Encoding: 293 293 224
Width: 556
Flags: HMW
HStem: -9 68<311.5 411> 390 72<308 423.5> 903 20<270 351 351 351>
VStem: 265 119<72 96.5 72 98>
LayerCount: 2
Fore
SplineSet
498 127 m 1
 459 65 412 -9 330 -9 c 0
 293 -9 265 14 265 52 c 0
 265 144 353 315 353 367 c 0
 353 381 344 390 330 390 c 0
 286 390 231 302 209 268 c 0
 164 199 131 80 108 0 c 1
 -13 0 l 1
 141 567 l 2
 145 581 149 595 149 609 c 0
 149 637.621149947 127.458635446 642.905821627 105.204913937 642.905821627 c 0
 98.6901304303 642.905821627 92.1142959844 642.452910814 86 642 c 1
 86 669 l 1
 156 675 225 685 294 699 c 1
 188 289 l 1
 190 288 l 1
 233 352 309 462 397 462 c 0
 450 462 475 435 475 381 c 0
 475 317 384 117 384 76 c 0
 384 68 393 59 401 59 c 0
 421 59 464 125 476 142 c 1
 498 127 l 1
386 749 m 1
 298 844 l 1
 167 749 l 1
 110 749 l 1
 270 923 l 1
 351 923 l 1
 437 749 l 1
 386 749 l 1
EndSplineSet
Validated: 524289
EndChar

StartChar: Hbar
Encoding: 294 294 225
Width: 778
Flags: MW
HStem: 0 21G<-24 272 -24 -24 340 657 340 340> 329 44<278 505 266 517> 461 44<117 155 105 167 314 541 700 738> 649 20G<116 433 433 433 501 799 799 799>
LayerCount: 2
Fore
SplineSet
799 644 m 1
 715 632 720 580 700 505 c 1
 750 505 l 1
 738 461 l 1
 688 461 l 1
 609 175 l 2
 601 147 584 94 584 67 c 0
 584 27 627 26 657 25 c 1
 657 0 l 1
 340 0 l 1
 340 25 l 1
 400 27 425 39 441 97 c 2
 505 329 l 1
 266 329 l 1
 255 289 199 124 199 68 c 0
 199 24 239 27 272 25 c 1
 272 0 l 1
 -24 0 l 1
 -24 25 l 1
 26 33 42 46 56 97 c 2
 155 461 l 1
 105 461 l 1
 117 505 l 1
 167 505 l 1
 172 525 189 581 189 600 c 0
 189 642 149 639 116 644 c 1
 116 669 l 1
 433 669 l 1
 433 644 l 1
 334 641 337 592 314 505 c 1
 553 505 l 1
 559 528 574 578 574 602 c 0
 574 644 534 639 501 644 c 1
 501 669 l 1
 799 669 l 1
 799 644 l 1
541 461 m 1
 302 461 l 1
 278 373 l 1
 517 373 l 1
 541 461 l 1
EndSplineSet
Validated: 1
EndChar

StartChar: hbar
Encoding: 295 295 226
Width: 556
Flags: HMW
HStem: -9 68<311.5 411> 390 72<308 423.5> 527 44<58 130 46 142 261 334>
VStem: 353 122<349 374>
LayerCount: 2
Fore
SplineSet
498 127 m 1
 459 65 412 -9 330 -9 c 0
 293 -9 265 14 265 52 c 0
 265 144 353 315 353 367 c 0
 353 381 344 390 330 390 c 0
 286 390 231 302 209 268 c 0
 164 199 131 80 108 0 c 1
 -13 0 l 1
 130 527 l 1
 46 527 l 1
 58 571 l 1
 142 571 l 1
 146 583 149 596 149 609 c 0
 149 637.621149947 127.458635446 642.905821627 105.204913937 642.905821627 c 0
 98.6901304303 642.905821627 92.1142959844 642.452910814 86 642 c 1
 86 669 l 1
 156 675 225 685 294 699 c 1
 261 571 l 1
 346 571 l 1
 334 527 l 1
 250 527 l 1
 188 289 l 1
 190 288 l 1
 233 352 309 462 397 462 c 0
 450 462 475 435 475 381 c 0
 475 317 384 117 384 76 c 0
 384 68 393 59 401 59 c 0
 421 59 464 125 476 142 c 1
 498 127 l 1
EndSplineSet
Validated: 524289
EndChar

StartChar: Itilde
Encoding: 296 296 227
Width: 393
Flags: MW
HStem: 0 21<-24 272 -24 -24> 649 20<116 414 414 414> 743 77<393.5 404> 787 75<219.5 225.5>
LayerCount: 2
Fore
SplineSet
189 607 m 0xc0
 189 635 169 636 116 644 c 1
 116 669 l 1
 414 669 l 1
 414 644 l 1
 363 638 347 625 332 572 c 2
 218 152 l 2
 205 103 200 80 200 65 c 0
 200 37 215 28 272 25 c 1
 272 0 l 1
 -24 0 l 1
 -24 25 l 1
 25 31 42 45 56 97 c 2
 179 546 l 2
 184 564 189 595 189 607 c 0xc0
450 862 m 1x10
 491 862 l 1x10
 469 779 434 743 374 743 c 0x20
 355 743 343 746 317 756 c 2
 258 779 l 2
 245 784 231 787 220 787 c 0
 198 787 185 776 172 744 c 1
 132 744 l 1
 145 816 191 862 248 862 c 0x10
 272 862 304 854 345 836 c 0
 371 825 388 820 399 820 c 0x20
 422 820 435 831 450 862 c 1x10
EndSplineSet
Validated: 1
EndChar

StartChar: itilde
Encoding: 297 297 228
Width: 278
Flags: HMW
HStem: -9 70<50 151> 536 77<273.5 284> 580 75<99.5 105.5>
VStem: 2 121<72 96.5>
LayerCount: 2
Fore
SplineSet
238 127 m 1x90
 199 67 152 -9 71 -9 c 0
 29 -9 2 16 2 58 c 0
 2 135 80 312 80 375 c 0
 80 403.107169771 54.6093161265 407.274551889 32.250781334 407.274551889 c 0
 28.3586600067 407.274551889 24.5584219849 407.148267583 21 407 c 1
 21 434 l 1
 88 439 157 447 223 462 c 1
 206 399 123 123 123 76 c 0
 123 68 130 61 138 61 c 0
 164 61 203 121 216 141 c 1
 238 127 l 1x90
330 655 m 1x20
 371 655 l 1x20
 349 572 314 536 254 536 c 0x40
 235 536 223 539 197 549 c 2
 138 572 l 2
 125 577 111 580 100 580 c 0
 78 580 65 569 52 537 c 1
 12 537 l 1
 25 609 71 655 128 655 c 0x20
 152 655 184 647 225 629 c 0
 251 618 268 613 279 613 c 0x40
 302 613 315 624 330 655 c 1x20
EndSplineSet
Validated: 524289
EndChar

StartChar: Imacron
Encoding: 298 298 229
Width: 393
Flags: MW
HStem: 0 21<-24 272 -24 -24> 649 20<116 414 414 414> 760 70<152 461 135 477>
LayerCount: 2
Fore
SplineSet
189 607 m 0
 189 635 169 636 116 644 c 1
 116 669 l 1
 414 669 l 1
 414 644 l 1
 363 638 347 625 332 572 c 2
 218 152 l 2
 205 103 200 80 200 65 c 0
 200 37 215 28 272 25 c 1
 272 0 l 1
 -24 0 l 1
 -24 25 l 1
 25 31 42 45 56 97 c 2
 179 546 l 2
 184 564 189 595 189 607 c 0
477 830 m 1
 461 760 l 1
 135 760 l 1
 152 830 l 1
 477 830 l 1
EndSplineSet
Validated: 1
EndChar

StartChar: imacron
Encoding: 299 299 230
Width: 278
Flags: HMW
HStem: -9 70<50 151> 553 70<32 341 15 357>
VStem: 2 121<72 96.5>
LayerCount: 2
Fore
SplineSet
238 127 m 1
 199 67 152 -9 71 -9 c 0
 29 -9 2 16 2 58 c 0
 2 135 80 312 80 375 c 0
 80 403.107169771 54.6093161265 407.274551889 32.250781334 407.274551889 c 0
 28.3586600067 407.274551889 24.5584219849 407.148267583 21 407 c 1
 21 434 l 1
 88 439 157 447 223 462 c 1
 206 399 123 123 123 76 c 0
 123 68 130 61 138 61 c 0
 164 61 203 121 216 141 c 1
 238 127 l 1
357 623 m 1
 341 553 l 1
 15 553 l 1
 32 623 l 1
 357 623 l 1
EndSplineSet
Validated: 524289
EndChar

StartChar: Ibreve
Encoding: 300 300 231
Width: 393
Flags: HMW
HStem: 0 21<-24 272 -24 -24> 649 20<116 414 414 414> 721 76<272 328> 864 20<167 211 211 211 426 470 470 470>
LayerCount: 2
Fore
SplineSet
189 607 m 0
 189 635 169 636 116 644 c 1
 116 669 l 1
 414 669 l 1
 414 644 l 1
 363 638 347 625 332 572 c 2
 218 152 l 2
 205 103 200 80 200 65 c 0
 200 37 215 28 272 25 c 1
 272 0 l 1
 -24 0 l 1
 -24 25 l 1
 25 31 42 45 56 97 c 2
 179 546 l 2
 184 564 189 595 189 607 c 0
470 884 m 1
 441 793 379 721 277 721 c 0
 206 721 160 754 160 828 c 0
 160 847 162 866 167 884 c 1
 211 884 l 1
 210 869 l 2
 209.893909212 867.055002211 209.841593532 865.157526612 209.841593532 863.306644474 c 0
 209.841593532 812.818897657 248.768179808 797 297 797 c 0
 361 797 398 828 426 884 c 1
 470 884 l 1
EndSplineSet
Validated: 524289
EndChar

StartChar: ibreve
Encoding: 301 301 232
Width: 278
Flags: HMW
HStem: -9 70<50 151> 514 76<152 208> 657 20<47 91 91 91 306 350 350 350>
VStem: 2 121<72 96.5>
LayerCount: 2
Fore
SplineSet
238 127 m 1
 199 67 152 -9 71 -9 c 0
 29 -9 2 16 2 58 c 0
 2 135 80 312 80 375 c 0
 80 403.107169771 54.6093161265 407.274551889 32.250781334 407.274551889 c 0
 28.3586600067 407.274551889 24.5584219849 407.148267583 21 407 c 1
 21 434 l 1
 88 439 157 447 223 462 c 1
 206 399 123 123 123 76 c 0
 123 68 130 61 138 61 c 0
 164 61 203 121 216 141 c 1
 238 127 l 1
350 677 m 1
 321 586 259 514 157 514 c 0
 86 514 40 547 40 621 c 0
 40 640 42 659 47 677 c 1
 91 677 l 1
 90 662 l 2
 89.8939092115 660.055002211 89.8415935322 658.157526612 89.8415935322 656.306644474 c 0
 89.8415935322 605.818897657 128.768179808 590 177 590 c 0
 241 590 278 621 306 677 c 1
 350 677 l 1
EndSplineSet
Validated: 524289
EndChar

StartChar: Iogonek
Encoding: 302 302 233
Width: 389
GlyphClass: 3
Flags: MW
HStem: -173 69<286.5 291> -20 20G<-32 203 -32 -32 263 263> 649 20G<107 405 405 405>
VStem: 160 84
LayerCount: 2
Fore
SplineSet
181 607 m 1
 180 607 l 1
 180 635 160 636 107 644 c 1
 107 669 l 1
 405 669 l 1
 405 644 l 1
 354 638 338 625 323 572 c 2
 209 152 l 2
 196 103 191 80 191 65 c 0
 191 37 206 28 263 25 c 1
 263 0 l 1
 250 -11 243 -27 243 -45 c 0
 243 -81 267 -104 306 -104 c 0
 335 -104 353 -89 367 -84 c 1
 389 -98 l 1
 364 -144 316 -173 266 -173 c 0
 205 -173 160 -139 160 -92 c 0
 160 -65 169 -45 203 0 c 1
 -32 0 l 1
 -32 25 l 1
 17 31 34 45 48 97 c 2
 171 546 l 2
 176 564 181 595 181 607 c 1
EndSplineSet
Validated: 1
Ligature2: "'ccmp' Glyph Composition/Decomposition in Latin lookup 49 subtable" I uni0328
EndChar

StartChar: iogonek
Encoding: 303 303 234
Width: 278
GlyphClass: 3
Flags: MW
HStem: -173 69<175.5 180> -9 21G<49.5 70.5> 665 20G<176.5 212.5>
VStem: 49 84<-115.5 -23.5>
LayerCount: 2
Fore
SplineSet
216 141 m 1
 238 127 l 1
 211 85 201 71 177 47 c 0
 142 10 133 -7 133 -40 c 0
 133 -81 155 -104 196 -104 c 0
 211 -104 222 -101 242 -91 c 0
 250 -87 251 -86 256 -84 c 1
 278 -98 l 1
 253 -144 205 -173 155 -173 c 0
 94 -173 49 -139 49 -92 c 0
 49 -66 57 -48 86 -8 c 1
 79 -9 72 -9 69 -9 c 0
 30 -9 2 17 2 54 c 0
 2 67 7 95 15 123 c 2
 73 338 l 2
 77 355 80 370 80 378 c 0
 80 399 64 407 21 407 c 1
 21 434 l 1
 99 440 169 450 223 462 c 1
 132 128 l 2
 129 116 123 82 123 76 c 0
 123 68 130 61 138 61 c 0
 153 61 176 82 202 121 c 2
 216 141 l 1
194 685 m 0
 231 685 263 654 263 617 c 0
 263 580 232 550 194 550 c 0
 157 550 128 580 128 619 c 0
 128 654 159 685 194 685 c 0
EndSplineSet
Validated: 1
Ligature2: "'ccmp' Glyph Composition/Decomposition in Latin lookup 49 subtable" i uni0328
EndChar

StartChar: Idotaccent
Encoding: 304 304 235
Width: 393
Flags: MW
HStem: 0 21<-24 272 -24 -24> 649 20<116 414 414 414> 735 130<294 328.5>
VStem: 247 130<782 817>
LayerCount: 2
Fore
SplineSet
189 607 m 0
 189 635 169 636 116 644 c 1
 116 669 l 1
 414 669 l 1
 414 644 l 1
 363 638 347 625 332 572 c 2
 218 152 l 2
 205 103 200 80 200 65 c 0
 200 37 215 28 272 25 c 1
 272 0 l 1
 -24 0 l 1
 -24 25 l 1
 25 31 42 45 56 97 c 2
 179 546 l 2
 184 564 189 595 189 607 c 0
311 865 m 0
 347 865 377 835 377 799 c 0
 377 765 346 735 311 735 c 0
 277 735 247 765 247 799 c 0
 247 835 276 865 311 865 c 0
EndSplineSet
Validated: 1
EndChar

StartChar: dotlessi
Encoding: 305 305 236
Width: 278
GlyphClass: 5
Flags: HMW
HStem: -9 70<50 151>
VStem: 2 121<72 96.5>
LayerCount: 2
Fore
SplineSet
238 127 m 1
 199 67 152 -9 71 -9 c 0
 29 -9 2 16 2 58 c 0
 2 135 80 312 80 375 c 0
 80 403.107169771 54.6093161265 407.274551889 32.250781334 407.274551889 c 0
 28.3586600067 407.274551889 24.5584219849 407.148267583 21 407 c 1
 21 434 l 1
 88 439 157 447 223 462 c 1
 206 399 123 123 123 76 c 0
 123 68 130 61 138 61 c 0
 164 61 203 121 216 141 c 1
 238 127 l 1
EndSplineSet
Validated: 524289
EndChar

StartChar: IJ
Encoding: 306 306 237
Width: 826
Flags: MW
HStem: -99 36<410 437 410 494> 0 21 649 20<561 858 858 858>
LayerCount: 2
Fore
SplineSet
634 607 m 2
 634 608 l 2
 634 630 620 636 561 644 c 1
 561 669 l 1
 858 669 l 1
 858 644 l 1
 809 638 791 626 777 572 c 2
 649 93 l 2
 614 -38 548 -99 440 -99 c 0
 352 -99 288 -56 288 2 c 0
 288 41 316 72 352 72 c 0
 387 72 415 44 415 9 c 0
 415 -23 392 -24 392 -45 c 0
 392 -57 401 -63 419 -63 c 0
 455 -63 470 -35 509 114 c 2
 623 546 l 2
 630 572 634 595 634 607 c 2
189 608 m 0
 189 636 169 637 116 645 c 1
 116 670 l 1
 414 670 l 1
 414 645 l 1
 363 639 347 626 332 573 c 2
 218 153 l 2
 205 104 200 81 200 66 c 0
 200 38 215 29 272 26 c 1
 272 1 l 1
 -24 1 l 1
 -24 26 l 1
 25 32 42 46 56 98 c 2
 179 547 l 2
 184 565 189 596 189 608 c 0
EndSplineSet
Validated: 1
EndChar

StartChar: ij
Encoding: 307 307 238
Width: 547
GlyphClass: 3
Flags: HMW
HStem: -207 31<180.5 206 180.5 247> -9 72<57.5 169.5> 550 134<176.5 212.5 176.5 212.5 459.5 495.5>
VStem: 7 120<79 90 79 106.5> 78 98<-136.5 -116.5> 411 135<599.5 634.5 597 635.5>
LayerCount: 2
Fore
SplineSet
546 616 m 0xe4
 546 578 514 550 477 550 c 0
 439 550 411 581 411 618 c 0
 411 653 442 684 477 684 c 0
 514 684 546 653 546 616 c 0xe4
263 616 m 0
 263 578 231 550 194 550 c 0
 156 550 128 581 128 618 c 0
 128 653 159 684 194 684 c 0
 231 684 263 653 263 616 c 0
506 462 m 1
 392 24 l 2
 365 -80 310 -207 184 -207 c 0
 137 -207 78 -186 78 -130 c 0xec
 78 -103 99 -77 127 -77 c 0xf4
 154 -77 176 -99 176 -126 c 0xec
 176 -147 161 -156 161 -164 c 0
 161 -171 178 -176 183 -176 c 0
 229 -176 247 -78 256 -45 c 2
 314 178 l 2
 316 187 319 195 321 204 c 1
 272 126 189 -9 85 -9 c 0
 30 -9 7 17 7 69 c 0
 7 144 80 312 80 375 c 0
 80 403.107169771 55.3347642371 407.274551889 32.5734626472 407.274551889 c 0
 28.6112286199 407.274551889 24.7066895676 407.148267583 21 407 c 1
 21 434 l 1
 88 439 157 447 223 462 c 1
 193 352 159 241 133 130 c 0
 130 130 127 93 127 87 c 0xf4
 127 71 134 63 150 63 c 0
 189 63 244 146 267 176 c 0
 302 223 327 263 342 321 c 0
 347 339 351 358 351 376 c 0
 351 403 337.5 408.0625 318.515625 408.0625 c 0
 312.1875 408.0625 305.25 407.5 298 407 c 1
 298 434 l 1
 368 440 437 447 506 462 c 1
EndSplineSet
Validated: 524289
Ligature2: "'liga' Standard Ligatures in Latin lookup 34 subtable" i j
Ligature2: "'liga' Standard Ligatures in Latin lookup 34 subtable" I J
EndChar

StartChar: Jcircumflex
Encoding: 308 308 239
Width: 500
Flags: MW
HStem: -99 36<76 103 76 160> 649 20<227 524 524 524> 877 20
LayerCount: 2
Fore
SplineSet
300 607 m 2
 300 608 l 2
 300 630 286 636 227 644 c 1
 227 669 l 1
 524 669 l 1
 524 644 l 1
 475 638 457 626 443 572 c 2
 315 93 l 2
 280 -38 214 -99 106 -99 c 0
 18 -99 -46 -56 -46 2 c 0
 -46 41 -18 72 18 72 c 0
 53 72 81 44 81 9 c 0
 81 -23 58 -24 58 -45 c 0
 58 -57 67 -63 85 -63 c 0
 121 -63 136 -35 175 114 c 2
 289 546 l 2
 296 572 300 595 300 607 c 2
504 724 m 1
 416 819 l 1
 285 724 l 1
 228 724 l 1
 388 898 l 1
 469 898 l 1
 555 724 l 1
 504 724 l 1
EndSplineSet
Validated: 1
EndChar

StartChar: jcircumflex
Encoding: 309 309 240
Width: 278
Flags: HMW
HStem: -207 31<-86.5 -61 -86.5 -20> 670 20<176 257 257 257>
VStem: -189 98<-136.5 -116.5>
LayerCount: 2
Fore
SplineSet
239 462 m 1
 125 24 l 2
 98 -80 43 -207 -83 -207 c 0
 -131 -207 -189 -186 -189 -130 c 0
 -189 -103 -168 -77 -140 -77 c 0
 -113 -77 -91 -99 -91 -126 c 0
 -91 -147 -106 -156 -106 -164 c 0
 -106 -171 -89 -176 -84 -176 c 0
 -38 -176 -20 -78 -11 -45 c 2
 81 310 l 2
 86 331 93 354 93 376 c 0
 93 402.862665288 71.7937140332 407.92998111 50.1781569 407.92998111 c 0
 43.6302949699 407.92998111 37.0448772147 407.464990555 31 407 c 1
 31 434 l 1
 101 440 170 447 239 462 c 1
292 516 m 1
 204 611 l 1
 73 516 l 1
 16 516 l 1
 176 690 l 1
 257 690 l 1
 343 516 l 1
 292 516 l 1
EndSplineSet
Validated: 524289
EndChar

StartChar: Kcedilla
Encoding: 310 310 241
Width: 688
GlyphClass: 3
Flags: MW
HStem: 0 21<-24 265 -24 -24 329 609 329 329> 642 27<507.5 509>
VStem: 277 64<-172.5 -91>
LayerCount: 2
Fore
SplineSet
211 -234 m 1
 204 -218 l 1
 243 -208 277 -187 277 -158 c 0
 277 -150 273 -144 265 -141 c 0
 246 -134 220 -121 220 -93 c 0
 220 -60 244 -40 273 -40 c 0
 314 -40 341 -70 341 -112 c 0
 341 -176 275 -218 211 -234 c 1
189 604 m 0
 189 635 168 637 116 644 c 1
 116 669 l 1
 426 669 l 1
 426 644 l 1
 367 639 346 624 332 572 c 2
 270 344 l 1
 476 520 544 588 544 617 c 0
 544 632 534 639 509 642 c 0
 506 642 497 643 488 644 c 1
 488 669 l 1
 699 669 l 1
 699 644 l 1
 656 638 648 635 605 596 c 2
 389 398 l 1
 546 60 l 2
 557 36 571 29 609 25 c 1
 609 0 l 1
 329 0 l 1
 329 25 l 1
 367 28 394 30 394 52 c 0
 394 63 390 75 381 95 c 2
 268 337 l 1
 201 88 l 2
 200 83 199 77 199 71 c 0
 199 38 213 29 265 25 c 1
 265 0 l 1
 -24 0 l 1
 -24 25 l 1
 25 31 41 44 56 97 c 2
 178 546 l 2
 185 572 189 593 189 604 c 0
EndSplineSet
Validated: 1
Ligature2: "'ccmp' Glyph Composition/Decomposition in Latin lookup 49 subtable" K uni0327
Ligature2: "'ccmp' Glyph Composition/Decomposition in Latin lookup 49 subtable" K uni0326
EndChar

StartChar: kcedilla
Encoding: 311 311 242
Width: 500
GlyphClass: 3
Flags: MW
HStem: -8 71<280 372.5> 429 20<276 483 483 483>
VStem: 157 64<-172.5 -91>
LayerCount: 2
Fore
SplineSet
91 -234 m 1
 84 -218 l 1
 123 -208 157 -187 157 -158 c 0
 157 -150 153 -144 145 -141 c 0
 126 -134 100 -121 100 -93 c 0
 100 -60 124 -40 153 -40 c 0
 194 -40 221 -70 221 -112 c 0
 221 -176 155 -218 91 -234 c 1
149 188 m 1
 99 0 l 1
 -23 0 l 1
 133 567 l 2
 138 586 141 600 141 609 c 0
 141 632 127 643 99 643 c 0
 95 643 86 643 78 642 c 1
 78 669 l 1
 157 677 209 685 286 699 c 1
 163 239 l 1
 289 338 327 375 327 401 c 0
 327 417 315 422 276 424 c 1
 276 449 l 1
 483 449 l 1
 483 424 l 1
 437 418 416 406 348 348 c 2
 285 293 l 1
 323 98 335 63 363 63 c 0
 382 63 398 80 425 127 c 1
 447 116 l 1
 397 25 361 -8 311 -8 c 0
 249 -8 219 45 188 215 c 1
 149 188 l 1
EndSplineSet
Validated: 1
Ligature2: "'ccmp' Glyph Composition/Decomposition in Latin lookup 49 subtable" k uni0327
Ligature2: "'ccmp' Glyph Composition/Decomposition in Latin lookup 49 subtable" k uni0326
EndChar

StartChar: kgreenlandic
Encoding: 312 312 243
Width: 517
Flags: HMW
HStem: -8 71<297 389.5> 429 20G<293 500 500 500>
LayerCount: 2
Fore
SplineSet
239 461 m 1
 180 239 l 1
 306 338 344 375 344 401 c 0
 344 417 332 422 293 424 c 1
 293 449 l 1
 500 449 l 1
 500 424 l 1
 454 418 433 406 365 348 c 2
 302 293 l 1
 340 98 352 63 380 63 c 0
 399 63 415 80 442 127 c 1
 464 116 l 1
 414 25 378 -8 328 -8 c 0
 266 -8 236 45 205 215 c 1
 166 188 l 1
 116 0 l 1
 -6 0 l 1
 83 328 l 2
 90.2346281956 353.723122473 93.5922308262 366.522826396 93.5922308262 375.748724592 c 0
 93.5922308262 378 93.3923048454 380.038475773 93 382 c 0
 89 401 81 406 39 407 c 1
 39 434 l 1
 95 436 175 447 239 461 c 1
EndSplineSet
Validated: 524289
EndChar

StartChar: Lacute
Encoding: 313 313 244
Width: 609
Flags: MW
HStem: 0 32<240 303 240 529> 649 20<116 433 433 433> 884 20<450 472>
LayerCount: 2
Fore
SplineSet
189 607 m 0
 189 635 169 636 116 644 c 1
 116 669 l 1
 433 669 l 1
 433 644 l 1
 367 640 348 627 332 572 c 2
 203 94 l 2
 200 83 198 70 198 62 c 0
 198 41 218 32 262 32 c 0
 344 32 415 52 469 90 c 0
 508 118 530 143 564 199 c 1
 588 194 l 1
 529 0 l 1
 -24 0 l 1
 -24 25 l 1
 25 32 42 45 56 97 c 2
 179 546 l 2
 184 564 189 595 189 607 c 0
316 723 m 1
 267 723 l 1
 389 854 l 2
 424 892 441 904 459 904 c 0
 485 904 507 882 507 857 c 0
 507 838 498 827 468 810 c 2
 316 723 l 1
EndSplineSet
Validated: 1
EndChar

StartChar: lacute
Encoding: 314 314 245
Width: 278
Flags: HMW
HStem: -9 70<47.5 151> 887 20<335 357>
VStem: 2 121<72 86.5>
LayerCount: 2
Fore
SplineSet
290 699 m 1
 145 176 l 2
 138 152 123 99 123 76 c 0
 123 68 131 61 138 61 c 0
 164 61 203 121 216 141 c 1
 238 127 l 1
 198 66 152 -9 70 -9 c 0
 25 -9 2 14 2 58 c 0
 2 115 94 415 115 490 c 0
 121 513 144 591 144 613 c 0
 144 638.111491178 120.837943464 642.956182887 99.6298344576 642.956182887 c 0
 92.9675317773 642.956182887 86.4980516029 642.478091444 81 642 c 1
 81 669 l 1
 151 675 221 686 290 699 c 1
201 726 m 1
 152 726 l 1
 274 857 l 2
 309 895 326 907 344 907 c 0
 370 907 392 885 392 860 c 0
 392 841 383 830 353 813 c 2
 201 726 l 1
EndSplineSet
Validated: 524289
EndChar

